<svg width="119" height="120" viewBox="0 0 119 120" fill="none" xmlns="http://www.w3.org/2000/svg">
<path d="M109.085 46.3659C108.102 46.3787 107.164 46.7746 106.469 47.4693C105.775 48.1639 105.379 49.1024 105.366 50.0846V79.8346L84.64 56.1338C83.3232 54.7319 81.7331 53.6146 79.9679 52.8509C78.2027 52.0871 76.2997 51.6931 74.3763 51.6931C72.4529 51.6931 70.5499 52.0871 68.7847 52.8509C67.0194 53.6146 65.4294 54.7319 64.1125 56.1338L49.8821 72.3971L45.2213 66.7446C43.937 65.204 42.3297 63.9644 40.5132 63.1138C38.6967 62.2632 36.7154 61.8223 34.7096 61.8223C32.7038 61.8223 30.7226 62.2632 28.9061 63.1138C27.0896 63.9644 25.4823 65.204 24.198 66.7446L13.6367 79.4875V30.2513C13.6498 25.9815 15.3518 21.8903 18.371 18.871C21.3902 15.8518 25.4815 14.1498 29.7513 14.1367H69.418C70.4042 14.1367 71.3501 13.7449 72.0475 13.0475C72.7449 12.3501 73.1367 11.4042 73.1367 10.418C73.1367 9.43169 72.7449 8.48582 72.0475 7.78842C71.3501 7.09101 70.4042 6.69922 69.418 6.69922H29.7513C23.5049 6.69922 17.5143 9.18059 13.0974 13.5975C8.68058 18.0143 6.1992 24.0049 6.1992 30.2513V89.7513C6.17579 89.8323 6.17579 89.9182 6.1992 89.9992C6.2645 96.2025 8.77468 102.13 13.1845 106.493C17.5943 110.856 23.5476 113.304 29.7513 113.303H89.2513C95.4294 113.291 101.355 110.852 105.752 106.511C110.148 102.17 112.663 96.2759 112.754 90.0984V50.0846C112.741 49.1108 112.352 48.1795 111.668 47.4862C110.984 46.793 110.058 46.3914 109.085 46.3659ZM89.2513 105.866H29.7513C25.7009 105.853 21.8039 104.315 18.8361 101.559C15.8683 98.8023 14.0474 95.0293 13.7359 90.9909L29.7513 71.5046C30.3512 70.8363 31.085 70.3018 31.9051 69.9359C32.7253 69.57 33.6132 69.3809 34.5113 69.3809C35.4093 69.3809 36.2973 69.57 37.1174 69.9359C37.9375 70.3018 38.6714 70.8363 39.2713 71.5046L46.7584 80.5288C47.1017 80.9464 47.5331 81.2829 48.0217 81.5144C48.5103 81.7458 49.044 81.8664 49.5846 81.8675C50.6553 81.8085 51.6644 81.3482 52.4109 80.5784L69.4675 61.0425C70.0744 60.4034 70.8049 59.8945 71.6147 59.5467C72.4245 59.1989 73.2966 59.0195 74.178 59.0195C75.0593 59.0195 75.9314 59.1989 76.7412 59.5467C77.551 59.8945 78.2815 60.4034 78.8884 61.0425L105.019 90.7925C104.77 94.8282 103.008 98.6215 100.085 101.416C97.1628 104.21 93.294 105.799 89.2513 105.866Z" fill="#8E8E8E"/>
<path d="M21.0723 35.2096C21.0723 37.9065 21.872 40.5427 23.3702 42.7851C24.8685 45.0274 26.9981 46.7751 29.4896 47.8071C31.9812 48.8391 34.7228 49.1092 37.3678 48.5831C40.0128 48.0569 42.4424 46.7583 44.3494 44.8513C46.2563 42.9444 47.555 40.5148 48.0811 37.8698C48.6072 35.2248 48.3372 32.4831 47.3052 29.9916C46.2731 27.5 44.5254 25.3705 42.2831 23.8722C40.0408 22.3739 37.4045 21.5742 34.7077 21.5742C31.0913 21.5742 27.6231 23.0108 25.066 25.5679C22.5088 28.1251 21.0723 31.5933 21.0723 35.2096ZM40.9056 35.2096C40.9056 36.4355 40.5421 37.6338 39.8611 38.653C39.18 39.6723 38.212 40.4667 37.0795 40.9358C35.947 41.4049 34.7008 41.5276 33.4985 41.2885C32.2963 41.0493 31.1919 40.459 30.3251 39.5922C29.4583 38.7254 28.868 37.6211 28.6289 36.4188C28.3897 35.2165 28.5124 33.9703 28.9816 32.8378C29.4507 31.7053 30.2451 30.7373 31.2643 30.0563C32.2835 29.3752 33.4819 29.0117 34.7077 29.0117C36.3515 29.0117 37.9279 29.6647 39.0903 30.827C40.2526 31.9894 40.9056 33.5658 40.9056 35.2096Z" fill="#8E8E8E"/>
<path d="M79.334 29.0117H90.4902V40.168C90.4902 41.1542 90.882 42.1001 91.5794 42.7975C92.2768 43.4949 93.2227 43.8867 94.209 43.8867C95.1953 43.8867 96.1411 43.4949 96.8385 42.7975C97.5359 42.1001 97.9277 41.1542 97.9277 40.168V29.0117H109.084C110.07 29.0117 111.016 28.6199 111.714 27.9225C112.411 27.2251 112.803 26.2792 112.803 25.293C112.803 24.3067 112.411 23.3608 111.714 22.6634C111.016 21.966 110.07 21.5742 109.084 21.5742H97.9277V10.418C97.9277 9.43169 97.5359 8.48582 96.8385 7.78842C96.1411 7.09101 95.1953 6.69922 94.209 6.69922C93.2227 6.69922 92.2768 7.09101 91.5794 7.78842C90.882 8.48582 90.4902 9.43169 90.4902 10.418V21.5742H79.334C78.3477 21.5742 77.4018 21.966 76.7044 22.6634C76.007 23.3608 75.6152 24.3067 75.6152 25.293C75.6152 26.2792 76.007 27.2251 76.7044 27.9225C77.4018 28.6199 78.3477 29.0117 79.334 29.0117Z" fill="#8E8E8E"/>
</svg>
