<svg width="20" height="20" viewBox="0 0 20 20" fill="none" xmlns="http://www.w3.org/2000/svg">
<g clip-path="url(#clip0_508_474)">
<path d="M6.73065 19.0699L6.31632 19.4843C5.62858 20.172 4.5182 20.1721 3.83038 19.4843L0.51582 16.1697C-0.171952 15.4819 -0.171913 14.3715 0.51582 13.6838L0.930155 13.2695L2.53773 13.2197L6.57319 17.2552L6.73065 19.0699Z" fill="#54E360"/>
<path d="M6.57319 17.255L6.73065 19.0697L6.31632 19.484C5.62858 20.1717 4.5182 20.1718 3.83038 19.484L2.17312 17.8268L4.65906 15.3408L6.57319 17.255Z" fill="#00CC71"/>
<path d="M12.9454 12.8551L12.5311 13.2694H10.8738L6.49862 8.89419L6.73065 7.46896L7.14498 7.05463C7.81619 6.38342 8.70283 5.97736 9.6226 5.88623L11.1224 8.41357L11.5865 8.87767L14.1139 10.3775C14.0227 11.2972 13.6167 12.1839 12.9454 12.8551Z" fill="#54E360"/>
<path d="M12.9454 12.855L12.5311 13.2693H10.8738L8.80225 11.1977L11.3545 8.64551L11.5865 8.87754L14.1138 10.3774C14.0227 11.2971 13.6167 12.1838 12.9454 12.855Z" fill="#00CC71"/>
<path d="M14.1138 10.3775L10.7579 9.7063C10.6419 9.67313 10.5424 9.6234 10.4595 9.54055C10.3767 9.4577 10.3269 9.35821 10.2938 9.24219L9.62256 5.88622C9.89603 5.86138 10.1694 5.8531 10.4429 5.87798L10.7661 5.63763L14.9287 2.60205L17.3981 5.07138L14.3624 9.23395L14.1221 9.55712C14.147 9.83063 14.1387 10.104 14.1138 10.3775Z" fill="#FFD400"/>
<path d="M10.7579 9.70602C10.6419 9.67286 10.5424 9.62313 10.4595 9.54028L16.1634 3.83643L17.3981 5.07107L14.3624 9.23364L14.1221 9.55681C14.147 9.83032 14.1387 10.1037 14.1138 10.3772L10.7579 9.70602Z" fill="#FF9F00"/>
<path d="M6.73083 19.0699L12.5312 13.2695L6.73083 7.46917L0.930467 13.2695L6.73083 19.0699Z" fill="#FFD400"/>
<path d="M19.826 2.65996L17.34 5.14589L14.8541 2.65996L17.34 0.174023C17.5721 -0.0580077 17.9366 -0.0580077 18.1687 0.174023L19.8259 1.83129C20.058 2.06336 20.058 2.42793 19.826 2.65996Z" fill="#A44F3E"/>
<path d="M6.73086 19.0699L12.5312 13.2695L9.63104 10.3693L3.83067 16.1697L6.73086 19.0699Z" fill="#FF9F00"/>
<path d="M17.34 5.14564L16.0971 3.90267L18.9973 1.00244L19.8259 1.83107C20.058 2.0631 20.058 2.42767 19.8259 2.6597L17.34 5.14564Z" fill="#883F2E"/>
<path d="M18.1687 5.97444C17.9367 6.20644 17.5721 6.20648 17.34 5.97444L14.0255 2.65988C13.7934 2.42785 13.7935 2.06324 14.0255 1.83125C14.2575 1.59922 14.6221 1.59922 14.8541 1.83125L18.1687 5.14581C18.4007 5.37784 18.4007 5.74237 18.1687 5.97444Z" fill="#5A5A5A"/>
<path d="M18.1687 5.97466C17.9367 6.20666 17.5721 6.20669 17.34 5.97466L15.6828 4.3174L16.5114 3.48877L18.1687 5.14603C18.4007 5.37806 18.4007 5.74259 18.1687 5.97466Z" fill="#444444"/>
<path d="M7.97362 12.0266C7.28585 11.3388 6.1755 11.3388 5.48768 12.0266C4.79995 12.7143 4.79991 13.8247 5.48768 14.5125C6.17546 15.2003 7.28588 15.2002 7.97362 14.5125C8.66139 13.8247 8.66139 12.7143 7.97362 12.0266Z" fill="#A44F3E"/>
<path d="M5.48769 14.5123L7.97362 12.0264C8.66139 12.7141 8.66139 13.8245 7.97362 14.5123C7.28589 15.2 6.1755 15.2001 5.48769 14.5123Z" fill="#883F2E"/>
</g>
<defs>
<clipPath id="clip0_508_474">
<rect width="20" height="20" fill="white"/>
</clipPath>
</defs>
</svg>
