<svg width="25" height="25" viewBox="0 0 25 25" fill="none" xmlns="http://www.w3.org/2000/svg">
<path fill-rule="evenodd" clip-rule="evenodd" d="M4.49026 3.07715C3.45426 3.07715 2.61526 3.91715 2.61526 4.95215V18.0771C2.61526 18.8728 2.93134 19.6359 3.49394 20.1985C4.05655 20.7611 4.81962 21.0771 5.61526 21.0771H20.6153C19.8196 21.0771 19.0566 20.7611 18.4939 20.1985C17.9313 19.6359 17.6153 18.8728 17.6153 18.0771V4.95215C17.6153 3.91615 16.7753 3.07715 15.7403 3.07715H4.49026ZM12.3653 9.82715C12.1664 9.82715 11.9756 9.90617 11.8349 10.0468C11.6943 10.1875 11.6153 10.3782 11.6153 10.5771C11.6153 10.7761 11.6943 10.9668 11.8349 11.1075C11.9756 11.2481 12.1664 11.3271 12.3653 11.3271H13.8653C14.0642 11.3271 14.2549 11.2481 14.3956 11.1075C14.5362 10.9668 14.6153 10.7761 14.6153 10.5771C14.6153 10.3782 14.5362 10.1875 14.3956 10.0468C14.2549 9.90617 14.0642 9.82715 13.8653 9.82715H12.3653ZM11.6153 7.57715C11.6153 7.37824 11.6943 7.18747 11.8349 7.04682C11.9756 6.90617 12.1664 6.82715 12.3653 6.82715H13.8653C14.0642 6.82715 14.2549 6.90617 14.3956 7.04682C14.5362 7.18747 14.6153 7.37824 14.6153 7.57715C14.6153 7.77606 14.5362 7.96683 14.3956 8.10748C14.2549 8.24813 14.0642 8.32715 13.8653 8.32715H12.3653C12.1664 8.32715 11.9756 8.24813 11.8349 8.10748C11.6943 7.96683 11.6153 7.77606 11.6153 7.57715ZM6.36526 12.8271C6.16635 12.8271 5.97559 12.9062 5.83493 13.0468C5.69428 13.1875 5.61526 13.3782 5.61526 13.5771C5.61526 13.7761 5.69428 13.9668 5.83493 14.1075C5.97559 14.2481 6.16635 14.3271 6.36526 14.3271H13.8653C14.0642 14.3271 14.2549 14.2481 14.3956 14.1075C14.5362 13.9668 14.6153 13.7761 14.6153 13.5771C14.6153 13.3782 14.5362 13.1875 14.3956 13.0468C14.2549 12.9062 14.0642 12.8271 13.8653 12.8271H6.36526ZM5.61526 16.5771C5.61526 16.3782 5.69428 16.1875 5.83493 16.0468C5.97559 15.9062 6.16635 15.8271 6.36526 15.8271H13.8653C14.0642 15.8271 14.2549 15.9062 14.3956 16.0468C14.5362 16.1875 14.6153 16.3782 14.6153 16.5771C14.6153 16.7761 14.5362 16.9668 14.3956 17.1075C14.2549 17.2481 14.0642 17.3271 13.8653 17.3271H6.36526C6.16635 17.3271 5.97559 17.2481 5.83493 17.1075C5.69428 16.9668 5.61526 16.7761 5.61526 16.5771ZM6.36526 6.82715C6.16635 6.82715 5.97559 6.90617 5.83493 7.04682C5.69428 7.18747 5.61526 7.37824 5.61526 7.57715V10.5771C5.61526 10.9911 5.95126 11.3271 6.36526 11.3271H9.36526C9.56418 11.3271 9.75494 11.2481 9.89559 11.1075C10.0362 10.9668 10.1153 10.7761 10.1153 10.5771V7.57715C10.1153 7.37824 10.0362 7.18747 9.89559 7.04682C9.75494 6.90617 9.56418 6.82715 9.36526 6.82715H6.36526Z" fill="#EAFF55"/>
<path d="M19.1153 6.82715H20.9903C21.6113 6.82715 22.1153 7.33115 22.1153 7.95215V18.0771C22.1153 18.475 21.9572 18.8565 21.6759 19.1378C21.3946 19.4191 21.0131 19.5771 20.6153 19.5771C20.2174 19.5771 19.8359 19.4191 19.5546 19.1378C19.2733 18.8565 19.1153 18.475 19.1153 18.0771V6.82715Z" fill="#EAFF55"/>
</svg>
