<svg width="21" height="21" viewBox="0 0 21 21" fill="none" xmlns="http://www.w3.org/2000/svg">
<g clip-path="url(#clip0_263_1381)">
<path d="M20.6018 8.61756C20.5705 8.49256 20.4768 8.36756 20.3205 8.36756C17.6643 8.11756 15.383 8.74256 13.5393 10.2113C11.5393 9.18006 9.47677 9.55506 7.88302 11.0863C8.44552 10.2113 8.66427 9.18006 8.88302 8.18006C9.19552 6.80506 9.47677 5.52381 10.508 4.52381L11.0705 4.39881C11.0705 4.61756 11.133 4.74256 11.2268 4.83631C11.508 5.14881 11.9768 5.11756 12.4143 5.02381C12.7893 5.36756 13.258 5.43006 13.6955 5.24256C13.9143 5.43006 14.1643 5.55506 14.4768 5.49256C14.7268 5.64881 15.1018 5.83631 15.3205 5.89881C15.9455 6.08631 16.508 5.99256 16.5393 5.33631C16.5705 4.89881 16.3205 4.46131 15.9768 4.24256C16.1643 3.99256 16.1955 3.68006 16.0393 3.39881L15.1955 1.77381C14.9768 1.24256 14.5705 0.711311 13.3518 0.898811C12.6955 0.992561 12.7268 0.961311 10.1643 1.02381C9.63302 1.02381 9.16427 1.30506 8.91427 1.77381C8.00802 3.30506 6.69552 4.46131 5.41427 5.58631C3.25802 7.49256 1.00802 9.49256 0.820521 13.2738C0.789271 13.6801 0.945521 14.0863 1.19552 14.3988C1.66427 14.9613 2.69552 15.8988 3.38302 16.0551C8.00802 17.0551 10.0393 19.5863 15.2893 16.5551C15.508 17.7426 15.9455 18.6801 16.6018 19.3988C16.6955 19.5238 16.883 19.5238 17.008 19.4613C22.0393 16.3051 20.6643 8.93006 20.6018 8.61756ZM15.9455 5.30506V5.36756C15.883 5.36756 15.7268 5.36756 15.5393 5.30506C15.4455 5.27381 15.2893 5.21131 15.133 5.11756C15.1643 5.08631 14.9768 5.27381 15.508 4.71131C15.8205 4.80506 15.9455 5.05506 15.9455 5.30506ZM16.9143 18.7738C16.3518 18.0863 16.008 17.1801 15.8518 16.0238C15.8205 15.8051 15.5705 15.6801 15.383 15.8051C10.133 18.9926 8.38302 16.4926 3.53927 15.4301C3.00802 15.3051 2.10177 14.4613 1.69552 13.9926C1.50802 13.7738 1.44552 13.5551 1.44552 13.3051C1.60177 9.80506 3.66427 7.99256 5.82052 6.05506C7.13302 4.86756 8.47677 3.68006 9.44552 2.05506C9.60177 1.80506 9.88302 1.64881 10.1643 1.61756C12.7268 1.52381 12.7268 1.58631 13.4143 1.49256C14.2893 1.36756 14.4455 1.64881 14.5705 1.96131L15.4768 3.68006C15.508 3.74256 15.508 3.80506 15.4455 3.86756L15.258 4.05506C15.1955 3.61756 14.9455 3.27381 15.008 2.99256C15.0393 2.83631 14.9455 2.64881 14.7893 2.61756C14.633 2.58631 14.4455 2.68006 14.4143 2.83631C14.2268 3.52381 14.7893 3.89881 14.6955 4.68006C14.508 4.89881 14.383 4.96131 14.2268 4.83631C14.5393 4.05506 13.7893 3.52381 14.0705 2.89881C14.133 2.74256 14.0705 2.55506 13.9143 2.49256C13.758 2.43006 13.5705 2.49256 13.508 2.64881C13.133 3.55506 13.9143 4.24256 13.633 4.64881C13.3518 4.80506 13.133 4.80506 12.9143 4.58631C13.008 4.02381 12.5705 3.46131 12.7893 3.21131C12.9143 3.08631 12.9143 2.89881 12.7893 2.77381C12.6643 2.64881 12.4768 2.64881 12.3518 2.77381C11.8205 3.30506 12.2893 4.08631 12.2893 4.43006C11.9768 4.52381 11.7893 4.46131 11.758 4.43006C11.758 4.43006 11.7268 4.33631 11.8518 4.11756C11.9768 3.89881 11.758 3.61756 11.508 3.68006L10.508 3.89881L10.1018 3.39881C10.008 3.27381 9.78927 3.24256 9.66427 3.36756C9.53927 3.46131 9.50802 3.68006 9.63302 3.80506L9.97677 4.21131C8.91427 5.30506 8.60177 6.71131 8.28927 8.05506C8.00802 9.33631 7.72677 10.5551 6.82052 11.4613C6.38302 11.8676 5.85177 12.2113 5.19552 12.4301C5.03927 12.4926 4.94552 12.6801 5.00802 12.8363C5.07052 12.9926 5.25802 13.0863 5.41427 13.0238C6.13302 12.7738 6.69552 12.4301 7.19552 11.9926C7.63302 11.9613 8.10177 11.8051 8.53927 11.3988C9.97677 10.0238 11.6643 9.83631 13.4768 10.8676C13.8518 11.0863 14.2268 11.3363 14.633 11.6488C14.758 11.7426 14.9768 11.7426 15.0705 11.5863C15.1643 11.4613 15.1643 11.2426 15.0393 11.1488C14.758 10.8988 14.4768 10.7113 14.1955 10.5238C15.8205 9.30506 17.7893 8.77381 20.1018 8.93006C20.2268 10.2113 20.8518 16.0863 16.9143 18.7738ZM4.16427 14.1176C3.94552 14.0863 3.78927 13.9926 3.63302 13.8988C3.57052 13.8676 3.53927 13.8051 3.47677 13.7738C3.07052 13.4301 2.85177 12.8988 2.94552 12.3988C2.97677 12.2113 2.88302 12.0551 2.69552 12.0238C2.53927 11.9926 2.35177 12.1176 2.32052 12.2738C2.16427 13.0238 2.47677 13.7738 3.07052 14.2738C3.13302 14.3051 3.19552 14.3676 3.25802 14.3988C3.47677 14.5551 3.72677 14.6801 4.00802 14.7426H4.07052C4.22677 14.7426 4.35177 14.6488 4.38302 14.4926C4.41427 14.3363 4.32052 14.1801 4.16427 14.1176ZM17.9768 15.4613C17.258 15.0551 16.6955 14.4301 16.2268 13.5863C16.133 13.4301 15.9455 13.3676 15.7893 13.4613C14.1018 14.4301 12.4768 14.6801 10.9768 14.2113C10.8205 14.1488 10.633 14.2426 10.5705 14.3988C10.508 14.5551 10.6018 14.7426 10.758 14.8051C12.3518 15.3363 14.0705 15.1176 15.8205 14.1801C16.3205 14.9613 16.9143 15.5863 17.633 16.0238C17.7893 16.1176 17.9768 16.0551 18.0705 15.8988C18.1643 15.7426 18.1018 15.5551 17.9768 15.4613Z" fill="white"/>
</g>
<defs>
<clipPath id="clip0_263_1381">
<rect width="20" height="20" fill="white" transform="translate(0.820526 0.179688)"/>
</clipPath>
</defs>
</svg>
