<svg width="24" height="25" viewBox="0 0 24 25" fill="none" xmlns="http://www.w3.org/2000/svg">
<path d="M3.75 4.95215C3.75 4.33115 4.254 3.82715 4.875 3.82715H9.375C9.996 3.82715 10.5 4.33115 10.5 4.95215V9.45215C10.5 10.0731 9.996 10.5771 9.375 10.5771H4.875C4.57663 10.5771 4.29048 10.4586 4.0795 10.2476C3.86853 10.0367 3.75 9.75052 3.75 9.45215V4.95215ZM3.75 14.7021C3.75 14.0811 4.254 13.5771 4.875 13.5771H9.375C9.996 13.5771 10.5 14.0811 10.5 14.7021V19.2021C10.5 19.8231 9.996 20.3271 9.375 20.3271H4.875C4.57663 20.3271 4.29048 20.2086 4.0795 19.9976C3.86853 19.7867 3.75 19.5005 3.75 19.2021V14.7021ZM13.5 4.95215C13.5 4.33115 14.004 3.82715 14.625 3.82715H19.125C19.746 3.82715 20.25 4.33115 20.25 4.95215V9.45215C20.25 10.0731 19.746 10.5771 19.125 10.5771H14.625C14.3266 10.5771 14.0405 10.4586 13.8295 10.2476C13.6185 10.0367 13.5 9.75052 13.5 9.45215V4.95215Z" stroke="#EAFF55" stroke-width="1.5" stroke-linecap="round" stroke-linejoin="round"/>
<path d="M6.75 6.82715H7.5V7.57715H6.75V6.82715ZM6.75 16.5771H7.5V17.3271H6.75V16.5771ZM16.5 6.82715H17.25V7.57715H16.5V6.82715ZM13.5 13.5771H14.25V14.3271H13.5V13.5771ZM13.5 19.5771H14.25V20.3271H13.5V19.5771ZM19.5 13.5771H20.25V14.3271H19.5V13.5771ZM19.5 19.5771H20.25V20.3271H19.5V19.5771ZM16.5 16.5771H17.25V17.3271H16.5V16.5771Z" stroke="#EAFF55" stroke-width="1.5" stroke-linecap="round" stroke-linejoin="round"/>
</svg>
