<svg width="35" height="35" viewBox="0 0 35 35" fill="none" xmlns="http://www.w3.org/2000/svg">
<path d="M10.5039 5.12939V8.32459M25.4148 5.12939V8.32459M5.17578 27.4957V11.5155C5.17578 10.6681 5.51242 9.85539 6.11163 9.25617C6.71085 8.65696 7.52355 8.32033 8.37097 8.32033H27.5421C28.3895 8.32033 29.2022 8.65696 29.8015 9.25617C30.4007 9.85539 30.7373 10.6681 30.7373 11.5155V27.4929M30.7373 27.4929C30.7373 28.3403 30.4007 29.153 29.8015 29.7522C29.2022 30.3514 28.3895 30.6881 27.5421 30.6881H8.37097C7.52355 30.6881 6.71085 30.3514 6.11163 29.7522C5.51242 29.153 5.17578 28.3403 5.17578 27.4929V16.8423C5.17578 15.9948 5.51242 15.1821 6.11163 14.5829C6.71085 13.9837 7.52355 13.6471 8.37097 13.6471H27.5421C28.3895 13.6471 29.2022 13.9837 29.8015 14.5829C30.4007 15.1821 30.7373 15.9948 30.7373 16.8423V27.4929ZM21.1517 18.9724H24.3469M11.5662 22.1676H17.9565M17.9594 18.9724H17.9665V18.9809H17.9594V18.9724ZM17.958 25.3628H17.9665V25.3713H17.958V25.3628ZM14.7628 25.3642H14.7699V25.3727H14.7642V25.3642H14.7628ZM11.5676 25.3642H11.5747V25.3713H11.5662V25.3642H11.5676ZM21.1532 22.1733H21.1603V22.1804H21.1532V22.1733ZM21.1532 25.3642H21.1617V25.3727H21.1532V25.3642ZM24.3483 22.1718H24.3569V22.1789H24.3498L24.3483 22.1718Z" stroke="white" stroke-width="2.13013" stroke-linecap="round" stroke-linejoin="round"/>
</svg>
