<svg width="20" height="21" viewBox="0 0 20 21" fill="none" xmlns="http://www.w3.org/2000/svg">
<g clip-path="url(#clip0_263_4441)">
<path d="M6.53702 12.3842C6.61861 12.4182 6.7104 12.4185 6.79215 12.3849C6.87391 12.3512 6.93899 12.2865 6.97301 12.2049L7.44302 11.0766H9.22103L9.69104 12.2049C9.7619 12.3748 9.95712 12.4551 10.127 12.3842C10.297 12.3134 10.3772 12.1181 10.3064 11.9482L8.63971 7.94823C8.58794 7.82406 8.46659 7.74316 8.33206 7.74316C8.19752 7.74316 8.07617 7.82406 8.0244 7.94823L6.35774 11.9482C6.32369 12.0298 6.32346 12.1216 6.35708 12.2034C6.39071 12.2851 6.4554 12.3502 6.53702 12.3842ZM8.33202 8.9432L8.94303 10.4099H7.72102L8.33202 8.9432Z" fill="#EAFF55"/>
<path fill-rule="evenodd" clip-rule="evenodd" d="M10.9994 11.7432C10.8152 11.7432 10.666 11.8924 10.666 12.0765C10.666 12.2606 10.8152 12.4098 10.9994 12.4098H12.9994C13.1835 12.4098 13.3327 12.2606 13.3327 12.0765C13.3327 11.8924 13.1835 11.7432 12.9994 11.7432H12.3327V8.40984H12.9994C13.1835 8.40984 13.3327 8.26061 13.3327 8.0765C13.3327 7.8924 13.1835 7.74316 12.9994 7.74316H10.9994C10.8152 7.74316 10.666 7.8924 10.666 8.0765C10.666 8.26061 10.8152 8.40984 10.9994 8.40984H11.666V11.7432H10.9994Z" fill="#EAFF55"/>
<path d="M0.332485 14.7438C0.332485 15.4802 0.929451 16.0771 1.66581 16.0771C1.83282 16.0765 1.9982 16.0442 2.15314 15.9818C2.94113 16.5851 4.05315 16.8998 5.41981 16.8998C5.62579 16.8998 5.83982 16.8901 6.05679 16.8762C7.02479 18.8541 8.42147 20.0771 9.99913 20.0771C11.5768 20.0771 12.9735 18.8541 13.9418 16.8771C14.1591 16.8911 14.3728 16.9008 14.5788 16.9008C15.9454 16.9008 17.0575 16.5861 17.8454 15.9828C18.0004 16.0448 18.1656 16.0768 18.3324 16.0771C18.921 16.0755 19.4388 15.6882 19.6066 15.1241C19.7744 14.56 19.5526 13.9526 19.0608 13.6295C19.1074 12.5561 18.6924 11.3381 17.8478 10.0771C18.6924 8.81647 19.1075 7.59846 19.0608 6.52479C19.637 6.15291 19.8361 5.40385 19.5206 4.79491C19.205 4.18597 18.4782 3.91673 17.8421 4.17311C16.9364 3.48012 15.5991 3.17313 13.9421 3.28112C12.9748 1.30149 11.5775 0.0771484 9.99916 0.0771484C8.42081 0.0771484 7.02348 1.30149 6.05515 3.28116C4.39882 3.17382 3.06215 3.48114 2.15514 4.17314C1.51943 3.91883 0.794488 4.18846 0.479455 4.79639C0.164421 5.40431 0.362141 6.15209 0.936472 6.52483C0.890478 7.59784 1.3058 8.81582 2.15048 10.0772C1.3058 11.3382 0.890478 12.5562 0.937489 13.6295C0.560485 13.8749 0.332911 14.294 0.332485 14.7438ZM0.999164 14.7438C0.999164 14.3756 1.29763 14.0771 1.66584 14.0771C2.03405 14.0771 2.33252 14.3756 2.33252 14.7438C2.33252 15.112 2.03405 15.4105 1.66584 15.4105C1.48902 15.4105 1.31945 15.3403 1.19442 15.2152C1.0694 15.0902 0.999164 14.9206 0.999164 14.7438ZM6.46883 3.98382C7.35623 4.09008 8.2305 4.28632 9.07817 4.5695C8.48153 4.83579 7.89887 5.13238 7.33251 5.45818C6.76415 5.7862 6.21361 6.14415 5.68317 6.5305C5.85793 5.65715 6.12119 4.80383 6.46883 3.98382ZM14.3148 6.5305C13.7846 6.14411 13.2341 5.78614 12.6658 5.45818C12.1003 5.13278 11.5186 4.83618 10.9231 4.5695C11.77 4.28646 12.6433 4.09024 13.5298 3.98382C13.8773 4.80387 14.1403 5.65715 14.3148 6.5305ZM13.5295 16.1705C12.6421 16.0642 11.7678 15.868 10.9202 15.5848C11.5168 15.3185 12.0995 15.0219 12.6658 14.6961C13.2342 14.3681 13.7847 14.0102 14.3152 13.6238C14.1404 14.4972 13.8772 15.3505 13.5295 16.1705ZM12.3325 6.03582C13.0842 6.46843 13.8028 6.95609 14.4825 7.49483C14.6051 8.35014 14.6663 9.21313 14.6658 10.0772C14.6664 10.9412 14.6053 11.8042 14.4828 12.6595C13.803 13.1982 13.0843 13.6859 12.3325 14.1185C11.5831 14.5519 10.8033 14.9305 9.99916 15.2512C9.19499 14.9303 8.41517 14.5515 7.66582 14.1178C6.91411 13.6852 6.1955 13.1975 5.51583 12.6588C5.27182 10.9459 5.27182 9.20706 5.51583 7.49414C6.19553 6.95566 6.91417 6.46824 7.66582 6.03579C8.41582 5.60203 9.19634 5.22326 10.0012 4.90245C10.8046 5.22342 11.5838 5.6022 12.3325 6.03582ZM15.2325 8.12483C15.8973 8.7134 16.5012 9.36748 17.0348 10.0772C16.5019 10.7867 15.8989 11.4408 15.2349 12.0295C15.3003 11.3808 15.3329 10.7292 15.3325 10.0772C15.3327 9.42515 15.2999 8.77353 15.2342 8.12483H15.2325ZM4.76582 12.0295C4.10082 11.4411 3.49696 10.787 2.96347 10.0772C3.4964 9.36761 4.09944 8.71353 4.76346 8.12483C4.63234 9.42308 4.63234 10.7312 4.76346 12.0295H4.76582ZM7.33448 14.6961C7.90002 15.0215 8.48166 15.3181 9.07716 15.5848C8.23034 15.8679 7.35699 16.0641 6.47048 16.1705C6.12293 15.3505 5.8598 14.4972 5.68514 13.6238C6.21489 14.0102 6.76478 14.3681 7.33248 14.6961H7.33448ZM9.99916 19.4105C8.74716 19.4105 7.60949 18.4175 6.77048 16.8068C7.87522 16.6502 8.95846 16.3679 9.99916 15.9655C11.0403 16.3681 12.124 16.6504 13.2292 16.8068C12.3885 18.4175 11.2512 19.4105 9.99916 19.4105ZM18.3325 15.4105C17.9643 15.4105 17.6658 15.112 17.6658 14.7438C17.6658 14.3756 17.9643 14.0771 18.3325 14.0771C18.7007 14.0771 18.9992 14.3756 18.9992 14.7438C18.9992 15.112 18.7007 15.4105 18.3325 15.4105ZM18.4025 13.4175C18.3788 13.4175 18.3565 13.4105 18.3325 13.4105C17.5961 13.4105 16.9992 14.0075 16.9992 14.7438C17.0004 15.0419 17.1025 15.3308 17.2888 15.5635C16.5628 16.0425 15.5031 16.2701 14.2338 16.2225C14.6471 15.19 14.94 14.1133 15.1068 13.0138C15.969 12.3196 16.7492 11.5293 17.4325 10.6585C17.9953 11.4756 18.3302 12.428 18.4025 13.4175ZM18.9992 5.41048C18.9992 5.77866 18.7007 6.07716 18.3325 6.07716C17.9643 6.07716 17.6658 5.77869 17.6658 5.41048C17.6658 5.04227 17.9643 4.7438 18.3325 4.7438C18.7007 4.7438 18.9992 5.0423 18.9992 5.41048ZM17.2888 4.59083C17.1025 4.82352 17.0004 5.11241 16.9992 5.41048C16.9992 6.14687 17.5961 6.7438 18.3325 6.7438C18.3565 6.7438 18.3788 6.73813 18.4025 6.73682C18.3302 7.72637 17.9954 8.67875 17.4325 9.49581C16.7491 8.62492 15.9688 7.83469 15.1065 7.14049C14.9395 6.04091 14.6462 4.96422 14.2325 3.93183C15.5029 3.88383 16.5632 4.11049 17.2888 4.59083ZM9.99916 0.743827C11.2512 0.743827 12.3888 1.73682 13.2278 3.34749C12.1237 3.50424 11.041 3.7865 10.0008 4.18883C8.95974 3.7862 7.87604 3.50394 6.77084 3.34749C7.60982 1.73682 8.74716 0.743827 9.99916 0.743827ZM1.66581 4.74383C2.03399 4.74383 2.33249 5.0423 2.33249 5.41051C2.33249 5.77872 2.03402 6.07719 1.66581 6.07719C1.2976 6.07719 0.999131 5.77872 0.999131 5.41051C0.999131 5.0423 1.29763 4.74383 1.66581 4.74383ZM1.59583 6.73682C1.61949 6.73682 1.64183 6.7438 1.66584 6.7438C2.40223 6.7438 2.99917 6.14684 2.99917 5.41048C2.99792 5.11241 2.89583 4.82349 2.70949 4.59083C3.43516 4.11183 4.49481 3.88449 5.7645 3.93183C5.35124 4.96429 5.05829 6.04097 4.8915 7.14049C4.02943 7.83469 3.24918 8.62479 2.56584 9.49549C2.00282 8.67859 1.66797 7.7263 1.59583 6.73682ZM2.56584 10.6588C3.24951 11.5294 4.02996 12.3195 4.89216 13.0138C5.05914 14.1135 5.35229 15.1903 5.76584 16.2228C4.49718 16.2708 3.43683 16.0425 2.71084 15.5635C2.89668 15.3306 2.99828 15.0417 2.99917 14.7438C2.99917 14.0074 2.4022 13.4105 1.66584 13.4105C1.64183 13.4105 1.61952 13.4165 1.59583 13.4175C1.66811 12.428 2.00292 11.4758 2.56584 10.6588Z" fill="#EAFF55"/>
</g>
<defs>
<clipPath id="clip0_263_4441">
<rect width="20" height="20" fill="white" transform="translate(0 0.0771484)"/>
</clipPath>
</defs>
</svg>
