<svg width="89" height="89" viewBox="0 0 89 89" fill="none" xmlns="http://www.w3.org/2000/svg">
<rect x="-2.76832" y="44.2285" width="66.414" height="66.414" rx="22.4636" transform="rotate(-45 -2.76832 44.2285)" fill="#EAFF55"/>
<rect x="-2.76832" y="44.2285" width="66.414" height="66.414" rx="22.4636" transform="rotate(-45 -2.76832 44.2285)" stroke="#111214" stroke-width="3.90671"/>
<path d="M41.5451 50.7232C39.5598 50.0614 38.0019 48.5035 37.3401 46.5182C37.2842 46.3505 37.2773 46.1703 37.3202 45.9987L38.5667 41.0124L36.6717 40.5386L35.4251 45.525C35.2921 46.0569 35.3136 46.6157 35.487 47.1359C36.3432 49.7045 38.3588 51.7201 40.9274 52.5763C41.4476 52.7497 42.0064 52.7712 42.5383 52.6382L47.5247 51.3916L47.0509 49.4966L42.0646 50.7432C41.8931 50.7861 41.7129 50.7791 41.5451 50.7232Z" fill="#1C2227"/>
<path d="M50.3294 41.9389C49.6676 39.9536 48.1097 38.3957 46.1244 37.7339C45.9567 37.678 45.7765 37.6711 45.6049 37.714L40.6186 38.9606L40.1448 37.0655L45.1312 35.8189C45.6631 35.6859 46.2219 35.7074 46.7421 35.8808C49.3107 36.737 51.3263 38.7526 52.1825 41.3212C52.3559 41.8414 52.3774 42.4002 52.2444 42.9322L50.9978 47.9185L49.1028 47.4448L50.3494 42.4584C50.3922 42.2869 50.3853 42.1067 50.3294 41.9389Z" fill="#1C2227"/>
</svg>
