<svg width="20" height="20" viewBox="0 0 20 20" fill="none" xmlns="http://www.w3.org/2000/svg">
<g clip-path="url(#clip0_508_490)">
<path d="M1.56367 11.0069C1.94758 10.9761 2.30191 11.101 2.5707 11.3252C2.73789 11.4646 2.97934 11.4652 3.14641 11.3257C3.38816 11.1238 3.69934 11.0023 4.03895 11.0023C4.37859 11.0023 4.68973 11.1238 4.93149 11.3257C5.09832 11.465 5.33969 11.465 5.50652 11.3257C5.74828 11.1238 6.05945 11.0023 6.39906 11.0023C6.73871 11.0023 7.04984 11.1238 7.29164 11.3257C7.45848 11.465 7.69984 11.465 7.86668 11.3257C8.10844 11.1238 8.41957 11.0023 8.75926 11.0023C9.09891 11.0023 9.41004 11.1238 9.6518 11.3257C9.81863 11.465 10.06 11.465 10.2268 11.3257C10.4686 11.1238 10.7797 11.0023 11.1194 11.0023C11.459 11.0023 11.7702 11.1238 12.0119 11.3257C12.1788 11.465 12.4201 11.465 12.587 11.3257C12.8287 11.1238 13.1399 11.0023 13.4795 11.0023C13.8191 11.0023 14.1303 11.1238 14.3721 11.3257C14.5389 11.465 14.7802 11.465 14.9471 11.3257C15.1889 11.1238 15.5 11.0023 15.8396 11.0023C16.1793 11.0023 16.4904 11.1238 16.7321 11.3257C16.8992 11.4652 17.1407 11.4645 17.3079 11.3251C17.5766 11.101 17.931 10.9761 18.3148 11.0069C18.8294 11.0482 19.2646 11.375 19.469 11.8236C19.5354 11.3686 19.5704 10.9033 19.5704 10.4298C19.5704 5.14418 15.2855 0.859375 9.99996 0.859375C4.71438 0.859375 0.429571 5.14418 0.429571 10.4298C0.429571 10.8419 0.455665 11.2479 0.506173 11.6463C0.734884 11.2909 1.11977 11.0426 1.56367 11.0069Z" fill="#61CCF8"/>
<path d="M18.0831 15.5542C18.7984 14.4282 19.2851 13.1427 19.4775 11.7629C19.2767 11.3051 18.8362 10.9703 18.3149 10.9285C17.931 10.8976 17.5766 11.0226 17.3079 11.2467C17.1407 11.3861 16.8993 11.3868 16.7322 11.2472C16.4904 11.0454 16.1793 10.9238 15.8396 10.9238C15.5 10.9238 15.1889 11.0454 14.9471 11.2473C14.7803 11.3866 14.5389 11.3866 14.3721 11.2473C14.1304 11.0454 13.8192 10.9238 13.4795 10.9238C13.1399 10.9238 12.8287 11.0454 12.587 11.2473C12.4202 11.3866 12.1788 11.3866 12.012 11.2473C11.7702 11.0454 11.459 10.9238 11.1194 10.9238C10.7798 10.9238 10.4686 11.0454 10.2268 11.2473C10.06 11.3866 9.81867 11.3866 9.65184 11.2473C9.41004 11.0454 9.09891 10.9238 8.7593 10.9238C8.41965 10.9238 8.10852 11.0454 7.86672 11.2473C7.69988 11.3866 7.45855 11.3866 7.29168 11.2473C7.04992 11.0454 6.73879 10.9238 6.3991 10.9238C6.05945 10.9238 5.74832 11.0454 5.50656 11.2473C5.33973 11.3866 5.09836 11.3866 4.93152 11.2473C4.68977 11.0454 4.37859 10.9238 4.03898 10.9238C3.69934 10.9238 3.3882 11.0454 3.14645 11.2473C2.97934 11.3868 2.73793 11.3862 2.57074 11.2467C2.30195 11.0226 1.94762 10.8977 1.56371 10.9285C1.115 10.9645 0.726328 11.2176 0.498632 11.5793C0.672226 13.0288 1.17051 14.3783 1.91758 15.5542H18.0831Z" fill="#ADD841"/>
<path d="M12.9999 15.4154C13.1245 15.0994 13.3518 14.8545 13.6283 14.7037C13.8191 14.5996 13.9077 14.3751 13.8393 14.1688C13.7402 13.8698 13.7413 13.5358 13.8659 13.2198C13.9905 12.9039 14.2177 12.659 14.4942 12.5082C14.685 12.4041 14.7736 12.1796 14.7052 11.9732C14.6398 11.7761 14.6184 11.5636 14.6469 11.3512C14.5491 11.3484 14.452 11.314 14.3721 11.2473C14.1303 11.0454 13.8191 10.9238 13.4795 10.9238C13.1398 10.9238 12.8287 11.0454 12.587 11.2473C12.4201 11.3866 12.1788 11.3866 12.0119 11.2473C11.7702 11.0454 11.459 10.9238 11.1194 10.9238C10.7797 10.9238 10.4686 11.0454 10.2268 11.2473C10.06 11.3866 9.81863 11.3866 9.6518 11.2473C9.41 11.0454 9.09887 10.9238 8.75926 10.9238C8.41961 10.9238 8.10848 11.0454 7.86668 11.2473C7.69984 11.3866 7.45852 11.3866 7.29164 11.2473C7.04988 11.0454 6.73875 10.9238 6.39906 10.9238C6.05941 10.9238 5.74828 11.0454 5.50652 11.2473C5.33969 11.3866 5.09832 11.3866 4.93149 11.2473C4.68973 11.0454 4.37856 10.9238 4.03895 10.9238C3.6993 10.9238 3.38816 11.0454 3.14641 11.2473C2.9793 11.3868 2.73789 11.3861 2.5707 11.2467C2.30191 11.0226 1.94758 10.8977 1.56367 10.9285C1.11496 10.9645 0.72629 11.2176 0.498594 11.5793C0.672188 13.0288 1.17047 14.3783 1.91754 15.5541H12.9536C12.9666 15.5076 12.9818 15.4612 12.9999 15.4154Z" fill="#8ECB51"/>
<path d="M1.89262 15.5152C2.60492 16.6484 3.54773 17.6221 4.65594 18.3696L8.07449 19.8056C8.69652 19.9326 9.34035 19.9999 10 19.9999C10.3084 19.9999 10.6134 19.9852 10.9144 19.9566L10.9148 19.9562L14.2991 18.9815C15.8628 18.1938 17.1807 16.9897 18.1076 15.5151H1.89262V15.5152Z" fill="#384051"/>
<path d="M14.9335 16.9247C12.6093 16.9247 12.9536 15.5542 12.9536 15.5542L12.9388 15.5151H1.89262C2.60492 16.6483 3.54773 17.6221 4.65594 18.3695L8.07449 19.8055C8.69652 19.9326 9.34035 19.9999 10 19.9999C10.3084 19.9999 10.6134 19.9852 10.9144 19.9566L10.9148 19.9562L14.2991 18.9815C15.2222 18.5165 16.0595 17.9063 16.7814 17.1811C16.3795 17.0381 15.7909 16.9247 14.9335 16.9247Z" fill="#212335"/>
<path d="M10.9148 19.9562C12.1227 19.8416 13.2651 19.5027 14.2999 18.9813C13.6207 18.0509 12.3968 16.9687 11.7964 16.4609C11.8197 16.5001 11.8293 16.546 11.8225 16.5929C11.8131 16.658 11.7742 16.7127 11.7158 16.7427C10.6466 17.2929 9.99879 18.4801 9.76984 18.965C9.75809 18.9899 9.74152 19.011 9.72219 19.0286C10.2031 19.2968 10.8151 19.534 11.0905 19.6356C11.1549 19.6594 11.1696 19.7439 11.1168 19.7879L10.9148 19.9562Z" fill="#F9CFA9"/>
<path d="M10.9148 19.9565C11.5001 19.901 12.0698 19.7923 12.6196 19.6362C12.4673 18.7152 10.7025 17.6445 10.7025 17.6445L10.6302 17.6289C10.1934 18.1346 9.90672 18.6754 9.76988 18.9653C9.75813 18.9902 9.74156 19.0113 9.72223 19.0289C10.2031 19.2971 10.8151 19.5343 11.0905 19.6359C11.155 19.6597 11.1696 19.7442 11.1169 19.7882L10.9148 19.9565Z" fill="#FBBC8D"/>
<path d="M14.5374 1.09852C14.3215 0.998676 14.0113 0.827426 13.7641 0.580199C13.0824 -0.10152 11.4327 -0.358707 10.686 0.801019C10.6381 0.875394 10.5697 0.934066 10.4906 0.973519C10.1071 1.16473 9.17926 1.8459 10.1666 3.46149C10.4021 3.84688 10.5568 4.17102 10.6539 4.4434C10.8232 4.24012 10.9744 4 10.9744 3.79C10.9744 3.57325 10.9087 3.40801 10.8559 3.27528C10.7955 3.12364 10.7556 3.02344 10.8268 2.92047C10.9266 2.77582 11.1014 2.8034 11.2318 2.8775C11.3055 2.91942 11.3514 3.00157 11.3514 3.09192V3.24465C11.3514 3.35532 11.4414 3.44535 11.5521 3.44535C11.6591 3.44535 11.7471 3.36176 11.7525 3.25504C11.7894 2.52633 11.8843 2.01829 12.0066 1.89606C12.1032 1.79942 12.3353 1.82207 12.629 1.85071C12.9713 1.88411 13.3931 1.92532 13.8457 1.81418C13.8434 1.82524 13.8408 1.83789 13.8382 1.85118L13.9041 1.7543C13.9041 1.7543 14.2554 1.61512 14.5628 1.39914C14.6727 1.32184 14.6593 1.15493 14.5374 1.09852Z" fill="#4E5D6D"/>
<path d="M10.8558 3.27549C10.7955 3.12385 10.7556 3.02365 10.8267 2.92068C10.9266 2.77604 11.1013 2.80361 11.2318 2.87771C11.3055 2.91963 11.3513 3.00178 11.3513 3.09213V3.24486C11.3513 3.35553 11.4414 3.44557 11.552 3.44557C11.659 3.44557 11.747 3.36197 11.7525 3.25525C11.7698 2.91225 11.8 2.61818 11.8399 2.39018C11.7656 2.0815 11.9716 1.64967 11.47 1.3374C10.9685 1.02521 11.1642 0.501113 11.3302 0.210449C11.0824 0.339355 10.8596 0.531582 10.686 0.80123C10.6381 0.875605 10.5697 0.934277 10.4905 0.973731C10.107 1.16494 9.17922 1.84611 10.1665 3.4617C10.402 3.84709 10.5568 4.17123 10.6539 4.44361C10.8232 4.24033 10.9743 4.00021 10.9743 3.79021C10.9743 3.57346 10.9086 3.40822 10.8558 3.27549Z" fill="#384051"/>
<path d="M14.0226 3.00744C13.6995 2.50119 13.9041 1.75439 13.9041 1.75439C13.0173 2.00213 12.213 1.62873 11.9761 1.86568C11.7887 2.05303 11.7271 2.90443 11.7094 3.25295C11.7052 3.33674 11.6359 3.40236 11.552 3.40236C11.4649 3.40236 11.3944 3.33178 11.3944 3.24475V3.09201C11.3944 2.98916 11.3424 2.89096 11.253 2.84014C11.095 2.75033 10.9005 2.73775 10.7912 2.89611C10.635 3.12232 10.9312 3.33771 10.9312 3.7901C10.9312 4.24248 10.1664 4.8674 10.1664 4.8674L10.1806 4.88533C10.2216 4.89478 10.2606 4.91369 10.294 4.94252C10.5062 5.12572 10.8896 5.51459 11.0712 6.05928C11.2938 6.72709 11.3863 6.89334 11.9625 7.19893C12.044 7.24213 12.1147 7.3001 12.1728 7.3685C12.1475 7.16873 12.1097 6.98299 12.0756 6.83897C12.0037 6.53522 12.0494 6.21174 12.2194 5.94994C12.6555 5.27822 13.353 5.61838 13.6388 5.4058C14.0732 5.08268 13.6998 4.06771 13.9313 4.00557C14.404 3.87865 14.3457 3.51365 14.0226 3.00744Z" fill="#F9CFA9"/>
<path d="M11.9626 7.19865C12.0441 7.24186 12.1148 7.29982 12.1729 7.36822C12.1475 7.16846 12.1098 6.98272 12.0757 6.83869C12.0039 6.53494 12.0495 6.21146 12.2195 5.94967C10.8597 5.66135 10.886 4.27178 10.92 3.88818C10.8266 4.32756 10.1666 4.86717 10.1666 4.86717L10.1807 4.8851C10.2217 4.89455 10.2607 4.91346 10.2941 4.94229C10.5063 5.12549 10.8898 5.51436 11.0713 6.05904C11.2939 6.72678 11.3864 6.89307 11.9626 7.19865Z" fill="#FBBC8D"/>
<path d="M17.7941 8.32817C17.6887 8.08301 17.6305 7.63668 17.396 7.54829C17.2138 7.47957 16.9933 7.63418 16.874 7.73676C16.8366 7.76887 16.7794 7.75825 16.7562 7.71477C16.7118 7.63125 16.5825 7.53129 16.342 7.60309C15.9711 7.71379 15.8947 8.4061 15.8812 8.58227C15.879 8.61082 15.8733 8.63899 15.863 8.66571C15.4596 9.70942 13.6225 10.1062 13.1883 10.2722C13.1114 10.3016 13.0281 10.2476 13.0241 10.1653C12.9869 9.39102 12.5719 8.74852 12.3481 8.4552C12.3533 9.12864 12.2595 9.99704 11.8253 10.5759C11.6404 10.8224 11.4393 11.1533 11.2364 11.5235C11.8654 12.2196 12.6236 12.6913 13.3286 12.3859C14.807 11.7457 15.9751 10.3011 16.5473 9.75614C17.0488 9.27844 17.7701 9.50387 17.8655 8.84332C17.8907 8.66872 17.8638 8.49024 17.7941 8.32817Z" fill="#F9CFA9"/>
<path d="M11.9992 10.2939C11.9482 10.3933 11.8911 10.4883 11.8253 10.576C11.6404 10.8225 11.4393 11.1533 11.2364 11.5235C11.8654 12.2196 12.6236 12.6913 13.3287 12.386C12.2907 12.1638 12.0499 10.986 11.9992 10.2939Z" fill="#FBBC8D"/>
<path d="M12.3925 7.73935C12.3656 7.49337 12.2243 7.27157 12.0057 7.15564C11.4295 6.85005 11.337 6.68376 11.1144 6.01595C10.9328 5.47126 10.5493 5.08243 10.3372 4.89923C10.252 4.82567 10.1298 4.81423 10.0322 4.87021L9.71332 5.05294L9.67684 5.11044C9.89086 5.16536 10.1028 5.27896 10.3002 5.47587C10.6653 5.83989 10.5561 6.39282 10.4504 6.92759L10.4414 6.97353C10.3612 7.38107 10.1673 7.69782 9.8807 7.88954C9.54688 8.11298 9.10012 8.17079 8.5527 8.06146C8.42836 8.03657 8.29988 8.0604 8.19047 8.12845C8.10262 8.1831 7.96699 8.26091 7.79668 8.33911C7.87274 8.73384 8.00129 9.65411 7.75375 10.4824C7.6516 10.8243 7.54379 11.2454 7.44395 11.6625C7.56293 11.7417 7.69379 11.8022 7.83891 11.8377C7.90281 11.8534 7.96547 11.8703 8.02516 11.888C8.60719 12.0609 8.74789 12.5861 8.63235 13.0009C8.54469 13.3155 8.35434 13.5032 8.13402 13.5922C8.69027 13.8958 9.27727 14.3082 9.82445 14.735C10.1566 13.9337 11.1659 11.5699 11.9114 10.5758C12.5301 9.75091 12.4581 8.33782 12.3925 7.73935Z" fill="#F7F3F1"/>
<path d="M8.55274 8.06152C8.4284 8.03664 8.29992 8.06047 8.19051 8.12852C8.10266 8.18316 7.96703 8.26098 7.79672 8.33918C7.87277 8.73391 8.00133 9.65418 7.75379 10.4825C7.65164 10.8243 7.54383 11.2455 7.44398 11.6626C7.56297 11.7417 7.69383 11.8023 7.83895 11.8378C7.90285 11.8534 7.96551 11.8704 8.02524 11.8881C8.26848 11.9603 8.43438 12.0942 8.53695 12.2557C8.62445 12.0413 8.72688 11.8232 8.83981 11.6041C9.48434 10.3541 9.88078 7.88965 9.88078 7.88965C9.54692 8.11309 9.10016 8.1709 8.55274 8.06152Z" fill="#CDE2FF"/>
<path d="M5.75035 16.629C5.47144 16.1409 5.42098 15.6421 5.4957 15.1738C4.87621 16.2749 4.70269 17.6757 4.65418 18.3687C5.67281 19.0559 6.83086 19.5523 8.07703 19.8065C8.24941 19.5126 8.45558 19.1496 8.6689 18.7477C7.69539 18.38 6.36656 17.7074 5.75035 16.629Z" fill="#E7387F"/>
<path d="M6.94801 17.8683C6.46742 17.5343 6.03359 17.1246 5.75035 16.629C5.47144 16.1409 5.42098 15.6421 5.4957 15.1738C4.87621 16.2749 4.70269 17.6757 4.65418 18.3687C5.23695 18.7618 5.86551 19.0922 6.52992 19.3508C6.09785 18.5167 6.61766 18.0604 6.94801 17.8683Z" fill="#C6237C"/>
<path d="M11.8064 16.3703C11.2507 15.8395 9.97504 14.6691 8.72855 13.862C8.7282 13.8619 8.30527 13.7729 8.16808 13.5772C7.97515 13.6656 7.7557 13.6749 7.56047 13.624C7.54094 13.619 7.52129 13.6134 7.50144 13.6074C6.9793 13.4496 6.87812 13.2457 6.80621 12.9729L6.73304 12.9478C6.73304 12.9478 4.63019 14.9056 5.66422 16.7152C6.52918 18.2288 8.79875 18.9436 9.51785 19.1369C9.64273 19.1704 9.77312 19.1094 9.82832 18.9924C10.0506 18.5216 10.691 17.3427 11.7454 16.8C11.9081 16.7163 11.9388 16.4967 11.8064 16.3703Z" fill="#E5646E"/>
<path d="M8.72855 13.8624C8.5573 13.7515 8.38656 13.6473 8.21832 13.5527C8.10777 13.613 7.98645 13.6444 7.86473 13.6525L7.57027 14.2092C7.07523 15.1449 7.35199 16.314 8.21398 16.9285L10.1893 18.3368C10.3282 18.1164 10.4993 17.8762 10.7025 17.6444L8.71414 16.2268C8.2023 15.862 8.03797 15.1678 8.33191 14.6121L8.72855 13.8624Z" fill="#CDE2FF"/>
<path d="M7.54418 13.6867C8.75457 14.0019 9.24258 12.1821 8.04359 11.826C7.98359 11.8082 7.92055 11.7911 7.8543 11.7749C6.63473 11.4764 6.41652 9.33124 6.28891 8.84519C6.26801 8.76554 6.33078 8.68862 6.41297 8.69354C7.21879 8.74229 7.92801 8.36776 8.22465 8.18327C8.31875 8.12472 8.43141 8.10304 8.54008 8.12476C9.67211 8.35101 10.3344 7.85198 10.5048 6.98593C10.614 6.43097 10.7464 5.82944 10.3459 5.43003C9.41285 4.49948 8.17527 5.34702 7.84551 5.60394C7.78887 5.64808 7.72223 5.67659 7.65152 5.68925C6.45973 5.90245 3.7109 7.26491 4.17238 8.75581C4.64879 10.2948 5.95848 11.6125 6.43828 12.2403C6.91813 12.8681 6.49274 13.3701 7.4827 13.6694C7.50336 13.6757 7.52383 13.6814 7.54418 13.6867Z" fill="#F9CFA9"/>
<path d="M8.04359 11.826C7.98359 11.8082 7.92055 11.7911 7.8543 11.7749C6.64285 11.4784 6.41953 9.36003 6.29149 8.85538C5.81184 8.62937 5.46754 8.32417 5.63664 7.9321C6.06633 6.93601 7.50188 7.49265 8.35149 6.64304C9.2011 5.79343 10.5445 6.3412 10.5445 6.3412L10.6037 6.40046C10.6416 6.03698 10.6071 5.69054 10.3459 5.43003C9.41281 4.49948 8.17524 5.34702 7.84547 5.60394C7.78883 5.64808 7.72219 5.67659 7.65152 5.68925C6.45973 5.90245 3.71086 7.26491 4.17238 8.75581C4.64879 10.2948 5.95844 11.6125 6.43828 12.2403C6.91809 12.8681 6.49274 13.3701 7.4827 13.6694C7.50332 13.6757 7.52383 13.6814 7.54414 13.6867C8.75457 14.0018 9.24258 12.1821 8.04359 11.826Z" fill="#FBBC8D"/>
<path d="M1.62359 5.7983C2.30465 6.15256 3.15344 6.23607 3.80754 5.84549C4.19484 5.6142 4.48277 5.24123 4.87254 5.01408C5.79535 4.47631 7.01203 4.88408 8.00359 4.48701C8.15121 4.42791 8.29508 4.34885 8.39899 4.2285C8.6368 3.95314 8.60809 3.53166 8.47184 3.19432C8.33559 2.85697 8.10969 2.56139 7.97617 2.22295C7.83488 1.86475 7.81461 1.46658 7.89856 1.09131C5.19777 1.69646 2.92863 3.44307 1.62359 5.7983Z" fill="#93DCFC"/>
</g>
<defs>
<clipPath id="clip0_508_490">
<rect width="20" height="20" fill="white"/>
</clipPath>
</defs>
</svg>
