<svg width="23" height="23" viewBox="0 0 23 23" fill="none" xmlns="http://www.w3.org/2000/svg">
<path d="M3.5705 12.2109C3.5705 11.6417 4.0325 11.1797 4.60175 11.1797H6.66425C7.2335 11.1797 7.6955 11.6417 7.6955 12.2109V18.3984C7.6955 18.9677 7.2335 19.4297 6.66425 19.4297H4.60175C4.32824 19.4297 4.06594 19.321 3.87254 19.1276C3.67914 18.9342 3.5705 18.6719 3.5705 18.3984V12.2109ZM9.758 8.08594C9.758 7.51669 10.22 7.05469 10.7892 7.05469H12.8517C13.421 7.05469 13.883 7.51669 13.883 8.08594V18.3984C13.883 18.9677 13.421 19.4297 12.8517 19.4297H10.7892C10.5157 19.4297 10.2534 19.321 10.06 19.1276C9.86665 18.9342 9.758 18.6719 9.758 18.3984V8.08594ZM15.9455 3.96094C15.9455 3.39169 16.4075 2.92969 16.9767 2.92969H19.0392C19.6085 2.92969 20.0705 3.39169 20.0705 3.96094V18.3984C20.0705 18.9677 19.6085 19.4297 19.0392 19.4297H16.9767C16.7032 19.4297 16.4409 19.321 16.2475 19.1276C16.0541 18.9342 15.9455 18.6719 15.9455 18.3984V3.96094Z" stroke="white" stroke-linecap="round" stroke-linejoin="round"/>
</svg>
