<svg width="49" height="48" viewBox="0 0 49 48" fill="none" xmlns="http://www.w3.org/2000/svg">
<g filter="url(#filter0_ddd_519_385)">
<rect x="8.33499" y="0.695312" width="32.3299" height="32.3299" rx="16.1649" fill="url(#paint0_linear_519_385)" style="mix-blend-mode:overlay" shape-rendering="crispEdges"/>
<rect x="8.70238" y="1.0627" width="31.5951" height="31.5951" rx="15.7976" stroke="url(#paint1_linear_519_385)" stroke-width="0.73477" style="mix-blend-mode:overlay" shape-rendering="crispEdges"/>
<g clip-path="url(#clip0_519_385)">
<path d="M33.0284 20.8573C32.865 20.8573 32.7161 20.7515 32.6611 20.5981C32.6068 20.447 32.6531 20.2728 32.7758 20.1689C32.904 20.0603 33.0918 20.0469 33.2345 20.1352C33.3713 20.2197 33.4431 20.3851 33.4116 20.5428C33.3757 20.7231 33.2123 20.8573 33.0284 20.8573Z" fill="#EAFF55"/>
<path d="M27.7683 24.5705C27.3522 24.5705 26.9808 24.4393 26.7073 24.1658C25.9712 23.4297 26.2656 21.982 27.3776 20.87C27.8834 20.3642 28.4851 20.0067 29.0717 19.8634C29.7275 19.7031 30.2964 19.8225 30.6735 20.1997C31.4097 20.9358 31.1152 22.3834 30.0032 23.4955V23.4955C29.3042 24.1945 28.4725 24.5705 27.7683 24.5705ZM29.6169 20.5758C29.4814 20.5758 29.3521 20.5991 29.2571 20.6223C28.8139 20.7306 28.3302 21.0222 27.9301 21.4224C27.087 22.2655 26.9001 23.2538 27.2597 23.6134C27.6193 23.973 28.6076 23.7863 29.4508 22.9431C30.2938 22.0999 30.4807 21.1117 30.1211 20.7522C29.9854 20.6165 29.7958 20.5758 29.6169 20.5758Z" fill="#EAFF55"/>
<path d="M32.9244 21.666C32.7159 21.6098 32.5018 21.7333 32.4456 21.9416L32.4421 21.9545C31.7803 24.383 29.5577 26.0791 27.0374 26.0791C23.9488 26.0791 21.436 23.5663 21.436 20.4777C21.436 16.6615 25.8511 11.2343 27.0374 9.84523C28.0751 11.0602 31.5843 15.3654 32.4469 18.9869C32.4968 19.1968 32.7075 19.3264 32.9174 19.2764C33.1272 19.2264 33.2568 19.0157 33.2068 18.8059C32.7614 16.9359 31.635 14.7136 29.8588 12.2009C28.5438 10.3407 27.3763 9.04277 27.3272 8.98844C27.2532 8.90637 27.1478 8.85957 27.0373 8.85957C26.9268 8.85957 26.8214 8.90641 26.7473 8.98844C26.7354 9.00168 25.7895 10.0536 24.6567 11.5906C23.1936 9.08055 21.4025 7.07832 21.3229 6.98977C21.2489 6.9075 21.1435 6.86043 21.0328 6.86035H21.0324C20.9219 6.86035 20.8166 6.90719 20.7425 6.98922C20.69 7.0473 19.4437 8.43352 18.1771 10.3216C16.4538 12.8906 15.58 15.0486 15.58 16.7355C15.58 19.6932 17.9474 22.1085 20.8868 22.186C21.6356 24.8786 24.1094 26.8604 27.0374 26.8604C29.9091 26.8604 32.4416 24.9275 33.1961 22.1592L33.2 22.1448C33.2561 21.9365 33.1327 21.7221 32.9244 21.666ZM16.3613 16.7355C16.3613 13.5798 19.9695 9.09863 21.0319 7.84785C21.6301 8.55559 23.0383 10.2998 24.1553 12.2871C24.0099 12.4939 23.8633 12.7069 23.717 12.9251C21.685 15.9542 20.6547 18.4953 20.6547 20.4777C20.6547 20.7896 20.6772 21.0963 20.7206 21.3964C18.2898 21.2354 16.3613 19.2064 16.3613 16.7355Z" fill="#EAFF55"/>
</g>
</g>
<defs>
<filter id="filter0_ddd_519_385" x="-6.36041" y="-14.0001" width="61.7207" height="61.7209" filterUnits="userSpaceOnUse" color-interpolation-filters="sRGB">
<feFlood flood-opacity="0" result="BackgroundImageFix"/>
<feColorMatrix in="SourceAlpha" type="matrix" values="0 0 0 0 0 0 0 0 0 0 0 0 0 0 0 0 0 0 127 0" result="hardAlpha"/>
<feOffset dy="7.3477"/>
<feGaussianBlur stdDeviation="3.67385"/>
<feComposite in2="hardAlpha" operator="out"/>
<feColorMatrix type="matrix" values="0 0 0 0 0 0 0 0 0 0 0 0 0 0 0 0 0 0 0.1 0"/>
<feBlend mode="normal" in2="BackgroundImageFix" result="effect1_dropShadow_519_385"/>
<feColorMatrix in="SourceAlpha" type="matrix" values="0 0 0 0 0 0 0 0 0 0 0 0 0 0 0 0 0 0 127 0" result="hardAlpha"/>
<feOffset dy="2.93908"/>
<feGaussianBlur stdDeviation="1.46954"/>
<feComposite in2="hardAlpha" operator="out"/>
<feColorMatrix type="matrix" values="0 0 0 0 0 0 0 0 0 0 0 0 0 0 0 0 0 0 0.05 0"/>
<feBlend mode="normal" in2="effect1_dropShadow_519_385" result="effect2_dropShadow_519_385"/>
<feColorMatrix in="SourceAlpha" type="matrix" values="0 0 0 0 0 0 0 0 0 0 0 0 0 0 0 0 0 0 127 0" result="hardAlpha"/>
<feOffset dy="0.73477"/>
<feComposite in2="hardAlpha" operator="out"/>
<feColorMatrix type="matrix" values="0 0 0 0 0 0 0 0 0 0 0 0 0 0 0 0 0 0 0.05 0"/>
<feBlend mode="normal" in2="effect2_dropShadow_519_385" result="effect3_dropShadow_519_385"/>
<feBlend mode="normal" in="SourceGraphic" in2="effect3_dropShadow_519_385" result="shape"/>
</filter>
<linearGradient id="paint0_linear_519_385" x1="24.4999" y1="0.695312" x2="24.4999" y2="33.0252" gradientUnits="userSpaceOnUse">
<stop stop-color="white" stop-opacity="0.5"/>
<stop offset="1" stop-color="white"/>
</linearGradient>
<linearGradient id="paint1_linear_519_385" x1="24.4999" y1="0.695312" x2="24.4999" y2="33.0252" gradientUnits="userSpaceOnUse">
<stop stop-color="white" stop-opacity="0.5"/>
<stop offset="1" stop-color="white"/>
</linearGradient>
<clipPath id="clip0_519_385">
<rect width="20" height="20" fill="white" transform="translate(14.4999 6.86035)"/>
</clipPath>
</defs>
</svg>
