<svg width="20" height="20" viewBox="0 0 20 20" fill="none" xmlns="http://www.w3.org/2000/svg">
<path d="M15.7812 12.7533L14.7709 13.7389V16.2858L15.7812 17.2712C16.2156 17.6948 17.0184 17.4761 17.1003 16.9119L17.5016 17.2025C18.0453 17.5966 18.8561 17.1851 18.7344 16.5775L18.6605 16.2086L19.2744 15.8048C19.412 15.7235 19.5261 15.6077 19.6054 15.4688C19.6846 15.3299 19.7263 15.1728 19.7263 15.0129C19.7263 14.853 19.6846 14.6958 19.6054 14.557C19.5261 14.4181 19.412 14.3023 19.2744 14.2209L18.6605 13.8172L18.7344 13.4483C18.8561 12.8401 18.0453 12.4287 17.5016 12.8233L17.1003 13.1139C17.0186 12.5484 16.2158 12.3297 15.7812 12.7533Z" fill="#A9DB1F"/>
<path d="M17.4206 15.2856H14.7711C14.6986 15.2856 14.629 15.2568 14.5777 15.2056C14.5265 15.1543 14.4977 15.0847 14.4977 15.0122C14.4977 14.9397 14.5265 14.8701 14.5777 14.8189C14.629 14.7676 14.6986 14.7388 14.7711 14.7388H17.4206C17.4931 14.7388 17.5627 14.7676 17.614 14.8189C17.6653 14.8701 17.6941 14.9397 17.6941 15.0122C17.6941 15.0847 17.6653 15.1543 17.614 15.2056C17.5627 15.2568 17.4931 15.2856 17.4206 15.2856Z" fill="#00A400"/>
<path d="M14.7703 13.7202V16.303C14.7702 16.4799 14.7335 16.655 14.6625 16.8171C14.5915 16.9792 14.4877 17.1248 14.3577 17.2449C14.2277 17.3649 14.0742 17.4567 13.907 17.5146C13.7397 17.5725 13.5623 17.5951 13.3859 17.5811L11.4766 17.4311L11.4125 17.4264L10.9703 17.392L10.9297 17.3889L10.0906 17.3233C10.0906 17.3233 8.80937 17.217 7.17188 17.0092C6.99531 16.9874 6.81406 16.9639 6.62969 16.9389C3.80469 16.5577 0.273438 15.9061 0.273438 15.0124C0.273438 13.8295 6.46719 13.067 9.01562 12.8045C9.22344 12.7827 9.40625 12.7639 9.55937 12.7499C9.89531 12.717 10.0906 12.7014 10.0906 12.7014L12.7875 12.4905L13.3313 12.4483H13.3328L13.3859 12.4436C13.5623 12.4294 13.7396 12.4518 13.9069 12.5095C14.0741 12.5672 14.2276 12.6589 14.3576 12.7788C14.4877 12.8987 14.5915 13.0443 14.6625 13.2063C14.7335 13.3683 14.7702 13.5433 14.7703 13.7202Z" fill="#FF9000"/>
<path d="M13.3344 12.469V14.5784C13.3344 14.6509 13.3056 14.7205 13.2543 14.7718C13.203 14.823 13.1335 14.8519 13.0609 14.8519C12.9884 14.8519 12.9189 14.823 12.8676 14.7718C12.8163 14.7205 12.7875 14.6509 12.7875 14.5784V12.4909L13.3312 12.4487H13.3328C13.3342 12.4554 13.3347 12.4622 13.3344 12.469Z" fill="#FF641A"/>
<path d="M11.4766 14.8301V17.4316L11.4125 17.427L10.9703 17.3926L10.9297 17.3895V14.8301C10.9297 14.7576 10.9585 14.688 11.0098 14.6367C11.0611 14.5854 11.1306 14.5566 11.2031 14.5566C11.2756 14.5566 11.3452 14.5854 11.3965 14.6367C11.4478 14.688 11.4766 14.7576 11.4766 14.8301Z" fill="#FF641A"/>
<path d="M9.5625 12.7771V14.5786C9.5625 14.6511 9.53369 14.7207 9.48241 14.772C9.43113 14.8232 9.36158 14.8521 9.28906 14.8521C9.21654 14.8521 9.14699 14.8232 9.09571 14.772C9.04443 14.7207 9.01562 14.6511 9.01562 14.5786V12.8052C9.22344 12.7833 9.40625 12.7646 9.55937 12.7505C9.56204 12.7591 9.5631 12.7681 9.5625 12.7771Z" fill="#FF641A"/>
<path d="M7.17656 15.333V16.9736C7.17665 16.9858 7.17507 16.9979 7.17188 17.0096C6.99531 16.9877 6.81406 16.9643 6.62969 16.9393V15.333C6.62969 15.2605 6.6585 15.1909 6.70978 15.1397C6.76106 15.0884 6.83061 15.0596 6.90313 15.0596C6.97565 15.0596 7.0452 15.0884 7.09648 15.1397C7.14775 15.1909 7.17656 15.2605 7.17656 15.333Z" fill="#FF641A"/>
<path d="M5.42641 6.22662C5.70208 5.77332 6.09097 5.39956 6.55484 5.14209L6.64141 5.09193L5.85859 3.73975L5.77219 3.78975C4.87359 4.30943 4.46672 5.19787 4.35031 6.19912C2.94516 6.3485 1.72797 7.21084 0.998281 8.34115L2.44156 8.23943L3.51094 9.04475L4.78125 8.25381L6.05188 9.04475L7.12109 8.23943L8.56438 8.34115C8.21692 7.79004 7.75844 7.31737 7.21815 6.9533C6.67787 6.58923 6.06765 6.34175 5.42641 6.22662Z" fill="#A9DB1F"/>
<path d="M2.54688 13.8177C4.34734 13.366 6.81984 13.0451 8.43641 12.8665C8.99462 12.2734 9.30038 11.4865 9.28906 10.6721C9.27518 9.84212 9.02368 9.03352 8.56437 8.34209L7.12109 8.24037L6.05187 9.04568L4.78125 8.25412L3.51078 9.04506L2.44141 8.23975L0.998125 8.34146C0.538704 9.03308 0.287205 9.84191 0.273438 10.6721C0.273437 12.1691 1.18875 13.2624 2.54688 13.8177Z" fill="#FF641A"/>
<path d="M13.3859 12.4433C13.5623 12.4293 13.7398 12.4519 13.907 12.5097C14.0743 12.5675 14.2278 12.6593 14.3578 12.7793C14.4879 12.8993 14.5918 13.0449 14.6629 13.207C14.734 13.369 14.7709 13.544 14.7711 13.721V13.7391L15.0561 13.461C15.195 11.7579 15.8208 10.1061 16.3127 9.03613C15.7345 9.47405 15.0466 9.74375 14.3248 9.81551C14.1373 10.4368 13.9775 10.6972 13.8798 11.3322C13.8734 11.3724 13.8529 11.409 13.8219 11.4355C13.7909 11.4619 13.7515 11.4763 13.7108 11.4763C13.6701 11.4763 13.6307 11.4619 13.5997 11.4355C13.5687 11.409 13.5481 11.3724 13.5417 11.3322C13.4441 10.6972 13.2841 10.4368 13.0967 9.81551C12.3751 9.74367 11.6874 9.47397 11.1094 9.03613C11.6306 10.1503 12.0116 11.3248 12.2436 12.5329L13.3859 12.4433Z" fill="#A9DB1F"/>
<path d="M18.4506 6.15773C18.5576 5.79706 18.5632 5.41387 18.4667 5.05025C18.3701 4.68663 18.1753 4.35665 17.9034 4.09655C17.6316 3.83646 17.2934 3.6563 16.9259 3.57588C16.5583 3.49547 16.1758 3.51789 15.8202 3.6407C15.6079 3.26857 15.3009 2.95922 14.9305 2.74404C14.56 2.52887 14.1392 2.41553 13.7108 2.41553C13.2824 2.41553 12.8616 2.52887 12.4911 2.74404C12.1206 2.95922 11.8137 3.26857 11.6014 3.6407C11.2458 3.51837 10.8634 3.4963 10.4961 3.5769C10.1289 3.65749 9.79084 3.83765 9.51915 4.09762C9.24746 4.3576 9.05259 4.68735 8.95589 5.05073C8.85919 5.41412 8.86439 5.79711 8.97094 6.15773C8.69278 6.30015 8.45932 6.51657 8.29628 6.78316C8.13324 7.04975 8.04693 7.35617 8.04688 7.66867V7.67539C8.23784 7.88231 8.41086 8.10509 8.56406 8.34133C8.73788 8.61012 8.88409 8.89579 9.00047 9.19398C9.31525 9.34891 9.6704 9.40214 10.0168 9.34632C10.3631 9.2905 10.6836 9.12839 10.9337 8.88242C11.5386 9.47008 12.5563 9.85617 13.7105 9.85617C14.8647 9.85617 15.8823 9.47008 16.4872 8.88242C16.6619 9.05365 16.8716 9.18512 17.1018 9.26782C17.332 9.35053 17.5774 9.38252 17.8211 9.36162C18.0649 9.34071 18.3012 9.26739 18.514 9.14669C18.7268 9.02598 18.911 8.86073 19.054 8.66225C19.197 8.46376 19.2955 8.23673 19.3426 7.99667C19.3897 7.75662 19.3845 7.50922 19.3271 7.27139C19.2698 7.03357 19.1618 6.81093 19.0105 6.61872C18.8591 6.42651 18.668 6.26926 18.4503 6.15773H18.4506Z" fill="#00A400"/>
</svg>
