<svg width="23" height="23" viewBox="0 0 23 23" fill="none" xmlns="http://www.w3.org/2000/svg">
<path d="M21.2055 5.44067L22.2725 4.37384C22.4498 4.19643 22.5082 3.93224 22.4221 3.69675C22.336 3.46109 22.1209 3.29694 21.8708 3.27579L19.8914 3.10878L19.7244 1.12936C19.7034 0.87944 19.5391 0.664429 19.3036 0.578323C19.0681 0.49205 18.804 0.550461 18.6265 0.727875L17.5595 1.79471C15.8341 0.736771 13.8612 0.179688 11.8205 0.179688C8.88237 0.179688 6.11995 1.3239 4.04234 3.4015C1.96474 5.47911 0.820526 8.24153 0.820526 11.1797C0.820526 14.1178 1.96474 16.8803 4.04234 18.9579C6.11995 21.0355 8.88237 22.1797 11.8205 22.1797C14.7587 22.1797 17.5211 21.0355 19.5987 18.9579C21.6763 16.8803 22.8205 14.1178 22.8205 11.1797C22.8205 9.13901 22.2634 7.16631 21.2055 5.44067ZM18.6526 3.75952C18.6791 4.07272 18.9275 4.32114 19.2407 4.34766L20.3795 4.44366L18.838 5.98517L17.1569 5.84334L17.015 4.16219L18.5565 2.62068L18.6526 3.75952ZM14.0119 11.1797C14.0119 12.388 13.0289 13.3711 11.8205 13.3711C10.6122 13.3711 9.62912 12.388 9.62912 11.1797C9.62912 9.97136 10.6122 8.98828 11.8205 8.98828C12.1906 8.98828 12.5392 9.08076 12.8452 9.24341L11.3648 10.724C11.1131 10.9756 11.1131 11.3836 11.3648 11.6354C11.4905 11.7613 11.6555 11.8242 11.8205 11.8242C11.9855 11.8242 12.1505 11.7613 12.2762 11.6354L13.7568 10.155C13.9194 10.461 14.0119 10.8096 14.0119 11.1797ZM13.7822 8.30649C13.2232 7.9238 12.5476 7.69922 11.8205 7.69922C9.90137 7.69922 8.34006 9.26053 8.34006 11.1797C8.34006 13.0988 9.90137 14.6602 11.8205 14.6602C13.7397 14.6602 15.301 13.0988 15.301 11.1797C15.301 10.4526 15.0764 9.77699 14.6937 9.21806L16.534 7.37779C17.3747 8.41811 17.8791 9.74107 17.8791 11.1797C17.8791 14.5203 15.1612 17.2383 11.8205 17.2383C8.47987 17.2383 5.76193 14.5203 5.76193 11.1797C5.76193 7.83904 8.47987 5.12109 11.8205 5.12109C13.2591 5.12109 14.5821 5.62547 15.6224 6.46622L13.7822 8.30649ZM18.6871 18.0463C16.8531 19.8805 14.4144 20.8906 11.8205 20.8906C9.22662 20.8906 6.78798 19.8805 4.95392 18.0463C3.11969 16.2122 2.10959 13.7736 2.10959 11.1797C2.10959 8.58578 3.11969 6.14714 4.95392 4.31308C6.78798 2.47885 9.22662 1.46875 11.8205 1.46875C13.5175 1.46875 15.1612 1.90465 16.6189 2.73532L15.892 3.46227C15.7745 3.57976 15.7075 3.7372 15.7033 3.90152C15.7028 3.92502 15.7035 3.94852 15.7053 3.97218L15.7921 5.00058C14.6462 4.26138 13.2826 3.83203 11.8205 3.83203C7.76904 3.83203 4.47287 7.1282 4.47287 11.1797C4.47287 15.2312 7.76904 18.5273 11.8205 18.5273C15.872 18.5273 19.1682 15.2312 19.1682 11.1797C19.1682 9.71758 18.7388 8.35399 17.9996 7.2081L19.028 7.29488C19.0462 7.29622 19.0643 7.29706 19.0822 7.29706C19.0853 7.29706 19.0885 7.29672 19.0915 7.29655C19.1 7.29655 19.1084 7.29588 19.117 7.29538C19.1309 7.29454 19.145 7.2937 19.1588 7.29202C19.1673 7.29085 19.1759 7.28951 19.1845 7.28816C19.1981 7.28598 19.2115 7.28346 19.2249 7.28044C19.2335 7.27843 19.2419 7.27625 19.2503 7.27406C19.2634 7.27054 19.2763 7.26651 19.2892 7.26215C19.2976 7.25929 19.3058 7.25644 19.314 7.25325C19.3266 7.24838 19.3391 7.24301 19.3515 7.23714C19.3594 7.23361 19.3672 7.23009 19.3751 7.22606C19.3876 7.21968 19.3996 7.21263 19.4116 7.20558C19.4188 7.20122 19.426 7.19719 19.433 7.19283C19.4458 7.18443 19.4581 7.17537 19.4703 7.16614C19.476 7.16177 19.4819 7.15791 19.4874 7.15338C19.5049 7.13928 19.5218 7.12434 19.5379 7.10823L20.2649 6.38129C21.0956 7.83904 21.5315 9.48276 21.5315 11.1797C21.5315 13.7736 20.5214 16.2122 18.6871 18.0463Z" fill="white"/>
</svg>
