<svg width="20" height="20" viewBox="0 0 20 20" fill="none" xmlns="http://www.w3.org/2000/svg">
<g clip-path="url(#clip0_508_573)">
<path d="M18.1715 11.1352C18.1715 13.5417 16.6066 16.8675 14.7144 18.6843C13.8753 19.4911 12.9714 20.0002 12.111 20.0002C11.5672 20.0002 11.0248 19.9129 10.5581 19.772C9.91875 19.5785 9.23879 19.5785 8.59941 19.772C8.13281 19.9129 7.59043 20.0002 7.04656 20.0002C6.14516 20.0002 5.19547 19.4409 4.3225 18.5661C2.48492 16.7261 0.986094 13.49 0.986094 11.1351C0.986094 7.6607 3.06449 5.56156 5.01883 5.05488C5.955 4.81215 7.04125 4.96851 7.91852 5.19675C8.82574 5.4332 9.76863 5.47277 10.6874 5.31547C10.8727 5.28363 11.0566 5.24406 11.239 5.19675C12.1163 4.96851 13.202 4.81215 14.1387 5.05488C16.0931 5.5616 18.1715 7.66074 18.1715 11.1352Z" fill="#F94848"/>
<path d="M14.7143 18.6841C12.3923 19.0944 10.6038 18.9807 9.25617 18.6544C7.05559 18.1216 5.41856 16.2655 5.14574 14.0178C4.46242 8.38855 8.14055 6.74965 8.14055 6.74965C9.21859 7.23945 10.4308 6.97789 10.4308 6.97789C9.65723 6.20484 10.6875 5.31547 10.6875 5.31547C9.76871 5.47277 8.82578 5.4332 7.91859 5.19675C7.04129 4.96851 5.95508 4.81215 5.01891 5.05488C3.06449 5.5616 0.986134 7.66074 0.986134 11.1352C0.986134 14.6091 4.24774 20.0002 7.04656 20.0002C7.59039 20.0002 8.13281 19.9129 8.59945 19.772C9.23883 19.5785 9.91875 19.5785 10.5582 19.772C11.0248 19.9129 11.5672 20.0002 12.1111 20.0002C12.9714 20.0002 13.8753 19.4911 14.7145 18.6843C14.7143 18.6842 14.7145 18.6843 14.7143 18.6841Z" fill="#E23D3D"/>
<path d="M19.0139 0.215049C19.0139 0.215049 18.5313 3.57895 15.9897 4.5581C13.56 5.49427 11.3943 2.96325 10.5059 3.16255C10.4659 3.17075 10.4287 3.18524 10.394 3.20599C10.3925 3.20645 10.3921 3.20696 10.3921 3.20696L10.3925 3.20505C10.4225 3.11435 11.3968 0.212236 13.8988 0.0220798C16.4404 -0.171006 17.8234 0.987158 19.0139 0.215049Z" fill="#C7F492"/>
<path d="M19.0139 0.215049C19.0139 0.215049 17.4697 2.09704 15.2982 2.09704C13.3887 2.09704 11.0439 2.95505 10.5059 3.16255C10.4413 3.18716 10.4031 3.20259 10.3939 3.20599C10.3925 3.20645 10.392 3.20696 10.392 3.20696L10.3925 3.20505C10.4224 3.11435 11.3967 0.212236 13.8988 0.0220798C16.4404 -0.171006 17.8234 0.987158 19.0139 0.215049Z" fill="#A3E261"/>
<path d="M16.5042 9.55519C16.4094 8.60065 15.8317 7.87659 15.2141 7.93798C14.5964 7.99937 14.1726 8.82295 14.2675 9.7775C14.3624 10.732 14.94 11.4561 15.5576 11.3947C16.1753 11.3333 16.5991 10.5097 16.5042 9.55519Z" fill="#FC8181"/>
<path d="M11.3785 6.50146C11.3785 6.8967 10.7579 7.2258 9.93418 7.30057C9.81934 7.31119 9.70063 7.3165 9.57903 7.3165C9.45211 7.3165 9.32859 7.31072 9.20938 7.29963C8.39336 7.22193 7.78004 6.89428 7.78004 6.50146H11.3785Z" fill="#E23D3D"/>
<path d="M10.9519 3.16474L9.63207 5.16928C9.73098 5.5756 9.81641 6.02342 9.87191 6.50162C9.9023 6.75978 9.92402 7.02666 9.93418 7.30072C9.81934 7.31135 9.70063 7.31666 9.57902 7.31666C9.45211 7.31666 9.32859 7.31088 9.20937 7.29978C9.19875 7.02568 9.17512 6.75931 9.14277 6.50162C8.90633 4.62783 8.18344 3.24771 8.17477 3.23228C8.08113 3.05568 8.14824 2.83658 8.32484 2.74299C8.50145 2.64888 8.72055 2.71595 8.81414 2.8926C8.83539 2.93314 9.10125 3.44127 9.36957 4.25197L10.3477 2.76666C10.4573 2.5997 10.6821 2.55385 10.8486 2.66388C11.0156 2.77342 11.0619 2.99779 10.9519 3.16474Z" fill="#B25719"/>
</g>
<defs>
<clipPath id="clip0_508_573">
<rect width="20" height="20" fill="white"/>
</clipPath>
</defs>
</svg>
