<svg width="59" height="58" viewBox="0 0 59 58" fill="none" xmlns="http://www.w3.org/2000/svg">
<g filter="url(#filter0_ddd_263_2439)">
<rect x="9.79779" y="0.361328" width="39.4045" height="39.4045" rx="19.7022" fill="url(#paint0_linear_263_2439)" style="mix-blend-mode:overlay" shape-rendering="crispEdges"/>
<rect x="10.2456" y="0.809106" width="38.5089" height="38.5089" rx="19.2545" stroke="url(#paint1_linear_263_2439)" stroke-width="0.895556" style="mix-blend-mode:overlay" shape-rendering="crispEdges"/>
<g clip-path="url(#clip0_263_2439)">
<path d="M38.885 14.3245L39.952 13.2576C40.1292 13.0802 40.1876 12.816 40.1015 12.5805C40.0154 12.3449 39.8004 12.1807 39.5503 12.1596L37.5709 11.9926L37.4039 10.0132C37.3829 9.76323 37.2186 9.54822 36.9831 9.46211C36.7476 9.37584 36.4834 9.43425 36.306 9.61166L35.239 10.6785C33.5135 9.62056 31.5407 9.06348 29.5 9.06348C26.5618 9.06348 23.7994 10.2077 21.7218 12.2853C19.6442 14.3629 18.5 17.1253 18.5 20.0635C18.5 23.0016 19.6442 25.7641 21.7218 27.8417C23.7994 29.9193 26.5618 31.0635 29.5 31.0635C32.4382 31.0635 35.2006 29.9193 37.2782 27.8417C39.3558 25.7641 40.5 23.0016 40.5 20.0635C40.5 18.0228 39.9429 16.0501 38.885 14.3245ZM36.332 12.6433C36.3586 12.9565 36.607 13.2049 36.9202 13.2314L38.059 13.3275L36.5175 14.869L34.8363 14.7271L34.6945 13.046L36.236 11.5045L36.332 12.6433ZM31.6914 20.0635C31.6914 21.2718 30.7083 22.2549 29.5 22.2549C28.2917 22.2549 27.3086 21.2718 27.3086 20.0635C27.3086 18.8551 28.2917 17.8721 29.5 17.8721C29.8701 17.8721 30.2187 17.9646 30.5247 18.1272L29.0443 19.6078C28.7925 19.8594 28.7925 20.2674 29.0443 20.5192C29.17 20.6451 29.335 20.708 29.5 20.708C29.665 20.708 29.83 20.6451 29.9557 20.5192L31.4363 19.0388C31.5989 19.3448 31.6914 19.6934 31.6914 20.0635ZM31.4616 17.1903C30.9027 16.8076 30.2271 16.583 29.5 16.583C27.5808 16.583 26.0195 18.1443 26.0195 20.0635C26.0195 21.9826 27.5808 23.5439 29.5 23.5439C31.4192 23.5439 32.9805 21.9826 32.9805 20.0635C32.9805 19.3364 32.7559 18.6608 32.3732 18.1019L34.2135 16.2616C35.0542 17.3019 35.5586 18.6249 35.5586 20.0635C35.5586 23.4041 32.8407 26.1221 29.5 26.1221C26.1593 26.1221 23.4414 23.4041 23.4414 20.0635C23.4414 16.7228 26.1593 14.0049 29.5 14.0049C30.9386 14.0049 32.2616 14.5093 33.3019 15.35L31.4616 17.1903ZM36.3666 26.9301C34.5325 28.7643 32.0939 29.7744 29.5 29.7744C26.9061 29.7744 24.4675 28.7643 22.6334 26.9301C20.7992 25.096 19.7891 22.6574 19.7891 20.0635C19.7891 17.4696 20.7992 15.0309 22.6334 13.1969C24.4675 11.3626 26.9061 10.3525 29.5 10.3525C31.1969 10.3525 32.8407 10.7884 34.2984 11.6191L33.5715 12.3461C33.454 12.4635 33.387 12.621 33.3828 12.7853C33.3823 12.8088 33.383 12.8323 33.3848 12.856L33.4716 13.8844C32.3257 13.1452 30.9621 12.7158 29.5 12.7158C25.4485 12.7158 22.1523 16.012 22.1523 20.0635C22.1523 24.115 25.4485 27.4111 29.5 27.4111C33.5515 27.4111 36.8477 24.115 36.8477 20.0635C36.8477 18.6014 36.4183 17.2378 35.6791 16.0919L36.7075 16.1787C36.7256 16.18 36.7438 16.1808 36.7617 16.1808C36.7647 16.1808 36.7679 16.1805 36.771 16.1803C36.7795 16.1803 36.7879 16.1797 36.7965 16.1792C36.8104 16.1783 36.8245 16.1775 36.8383 16.1758C36.8468 16.1746 36.8554 16.1733 36.8639 16.172C36.8775 16.1698 36.891 16.1673 36.9044 16.1642C36.9129 16.1622 36.9213 16.16 36.9297 16.1579C36.9428 16.1543 36.9557 16.1503 36.9687 16.1459C36.9771 16.1431 36.9853 16.1402 36.9935 16.137C37.0061 16.1322 37.0185 16.1268 37.0309 16.1209C37.0388 16.1174 37.0467 16.1139 37.0546 16.1098C37.067 16.1035 37.0791 16.0964 37.091 16.0894C37.0983 16.085 37.1055 16.081 37.1125 16.0766C37.1253 16.0682 37.1375 16.0592 37.1498 16.0499C37.1555 16.0456 37.1614 16.0417 37.1669 16.0372C37.1844 16.0231 37.2013 16.0081 37.2174 15.992L37.9444 15.2651C38.775 16.7228 39.2109 18.3665 39.2109 20.0635C39.2109 22.6574 38.2008 25.096 36.3666 26.9301Z" fill="#EAFF55"/>
</g>
</g>
<defs>
<filter id="filter0_ddd_263_2439" x="-8.11334" y="-17.5498" width="75.2267" height="75.2266" filterUnits="userSpaceOnUse" color-interpolation-filters="sRGB">
<feFlood flood-opacity="0" result="BackgroundImageFix"/>
<feColorMatrix in="SourceAlpha" type="matrix" values="0 0 0 0 0 0 0 0 0 0 0 0 0 0 0 0 0 0 127 0" result="hardAlpha"/>
<feOffset dy="8.95556"/>
<feGaussianBlur stdDeviation="4.47778"/>
<feComposite in2="hardAlpha" operator="out"/>
<feColorMatrix type="matrix" values="0 0 0 0 0 0 0 0 0 0 0 0 0 0 0 0 0 0 0.1 0"/>
<feBlend mode="normal" in2="BackgroundImageFix" result="effect1_dropShadow_263_2439"/>
<feColorMatrix in="SourceAlpha" type="matrix" values="0 0 0 0 0 0 0 0 0 0 0 0 0 0 0 0 0 0 127 0" result="hardAlpha"/>
<feOffset dy="3.58223"/>
<feGaussianBlur stdDeviation="1.79111"/>
<feComposite in2="hardAlpha" operator="out"/>
<feColorMatrix type="matrix" values="0 0 0 0 0 0 0 0 0 0 0 0 0 0 0 0 0 0 0.05 0"/>
<feBlend mode="normal" in2="effect1_dropShadow_263_2439" result="effect2_dropShadow_263_2439"/>
<feColorMatrix in="SourceAlpha" type="matrix" values="0 0 0 0 0 0 0 0 0 0 0 0 0 0 0 0 0 0 127 0" result="hardAlpha"/>
<feOffset dy="0.895556"/>
<feComposite in2="hardAlpha" operator="out"/>
<feColorMatrix type="matrix" values="0 0 0 0 0 0 0 0 0 0 0 0 0 0 0 0 0 0 0.05 0"/>
<feBlend mode="normal" in2="effect2_dropShadow_263_2439" result="effect3_dropShadow_263_2439"/>
<feBlend mode="normal" in="SourceGraphic" in2="effect3_dropShadow_263_2439" result="shape"/>
</filter>
<linearGradient id="paint0_linear_263_2439" x1="29.5" y1="0.361328" x2="29.5" y2="39.7658" gradientUnits="userSpaceOnUse">
<stop stop-color="white" stop-opacity="0.5"/>
<stop offset="1" stop-color="white"/>
</linearGradient>
<linearGradient id="paint1_linear_263_2439" x1="29.5" y1="0.361328" x2="29.5" y2="39.7658" gradientUnits="userSpaceOnUse">
<stop stop-color="white" stop-opacity="0.5"/>
<stop offset="1" stop-color="white"/>
</linearGradient>
<clipPath id="clip0_263_2439">
<rect width="22" height="22" fill="white" transform="translate(18.5 9.06348)"/>
</clipPath>
</defs>
</svg>
