<svg width="24" height="24" viewBox="0 0 24 24" fill="none" xmlns="http://www.w3.org/2000/svg">
<g clip-path="url(#clip0_859_71)">
<path d="M12 0C5.37225 0 0 5.373 0 12C0 18.627 5.37225 24 12 24C18.627 24 24 18.627 24 12C24 5.373 18.6278 0 12 0ZM12.1298 18.447C8.568 18.447 5.68275 15.5618 5.68275 12C5.68275 8.43825 8.568 5.553 12.1298 5.553C13.8705 5.553 15.3255 6.19425 16.4408 7.233L14.6235 9.05025V9.0465C13.947 8.4015 13.0883 8.0715 12.1298 8.0715C10.0028 8.0715 8.274 9.8685 8.274 11.9955C8.274 14.1225 10.0028 15.924 12.1298 15.924C14.0595 15.924 15.3735 14.82 15.6435 13.305H12.1298V10.7902H18.1935C18.2738 11.2207 18.318 11.673 18.318 12.144C18.318 15.828 15.852 18.447 12.1298 18.447Z" fill="#D7D8D9"/>
</g>
<defs>
<clipPath id="clip0_859_71">
<rect width="24" height="24" fill="white"/>
</clipPath>
</defs>
</svg>
