<svg width="18" height="22" viewBox="0 0 18 22" fill="none" xmlns="http://www.w3.org/2000/svg">
<path d="M5.25 6.57715V5.18515C5.25 4.05015 6.095 3.08715 7.226 2.99315C7.599 2.96315 7.974 2.93615 8.349 2.91315M12.75 17.0771H15C15.5967 17.0771 16.169 16.8401 16.591 16.4181C17.0129 15.9962 17.25 15.4239 17.25 14.8271V5.18515C17.25 4.05015 16.405 3.08715 15.274 2.99315C14.9 2.96213 14.5256 2.93546 14.151 2.91315M14.151 2.91315C14.009 2.45385 13.7226 2.05208 13.3357 1.76669C12.9489 1.48129 12.4808 1.32726 12 1.32715H10.5C10.0192 1.32726 9.55115 1.48129 9.16426 1.76669C8.77738 2.05208 8.49203 2.45385 8.35 2.91315C8.285 3.12315 8.25 3.34615 8.25 3.57715V4.32715H14.25V3.57715C14.25 3.34615 14.216 3.12315 14.151 2.91315ZM12.75 17.8271V15.9521C12.75 15.057 12.3944 14.1986 11.7615 13.5657C11.1285 12.9327 10.2701 12.5771 9.375 12.5771H7.875C7.57663 12.5771 7.29048 12.4586 7.0795 12.2476C6.86853 12.0367 6.75 11.7505 6.75 11.4521V9.95215C6.75 9.05704 6.39442 8.1986 5.76149 7.56566C5.12855 6.93273 4.27011 6.57715 3.375 6.57715H2.25M3.75 6.57715H1.875C1.254 6.57715 0.75 7.08115 0.75 7.70215V19.7021C0.75 20.3231 1.254 20.8271 1.875 20.8271H11.625C12.246 20.8271 12.75 20.3231 12.75 19.7021V15.5771C12.75 13.1902 11.8018 10.901 10.114 9.21319C8.42613 7.52536 6.13695 6.57715 3.75 6.57715Z" stroke="#EAFF55" stroke-width="1.5" stroke-linecap="round" stroke-linejoin="round"/>
</svg>
