<svg width="20" height="20" viewBox="0 0 20 20" fill="none" xmlns="http://www.w3.org/2000/svg">
<g clip-path="url(#clip0_508_529)">
<path fill-rule="evenodd" clip-rule="evenodd" d="M2.65964 12.2086V2.67135C2.65964 1.19508 3.86643 0 5.33099 0H13.0521H13.6848C13.638 0 13.5911 0.0117165 13.5559 0.0234329C13.4153 0.0820152 13.3216 0.222613 13.3216 0.36321V2.80023C13.3216 3.46807 13.8723 4.00703 14.5284 4.00703H16.9654H16.9772C17.1529 4.00703 17.3052 3.87815 17.3404 3.7024V4.28823V12.2086H2.65964Z" fill="#BCE2F6"/>
<path fill-rule="evenodd" clip-rule="evenodd" d="M16.9772 4.00703H16.9654H14.5284C13.8723 4.00703 13.3216 3.46807 13.3216 2.80023V0.36321V0H13.6848C13.7786 0 13.884 0.0351494 13.9543 0.105448L17.1998 3.35091C17.2818 3.42121 17.3404 3.52665 17.3404 3.64382V3.7024V4.00703H16.9772Z" fill="#98B7C7"/>
<path fill-rule="evenodd" clip-rule="evenodd" d="M17.5864 19.9999H2.40188C1.47627 19.9999 0.726421 19.2384 0.726421 18.3245V13.884C0.726421 12.9583 1.47627 12.2085 2.40188 12.2085H17.5864C18.512 12.2085 19.2619 12.9583 19.2619 13.884V18.3245C19.2619 19.2384 18.512 19.9999 17.5864 19.9999Z" fill="#FFE600"/>
<path fill-rule="evenodd" clip-rule="evenodd" d="M14.6807 10.8259H5.31928C5.16696 10.8259 5.0498 10.7087 5.0498 10.5564C5.0498 10.4158 5.16696 10.2869 5.31928 10.2869H14.6807C14.8213 10.2869 14.9385 10.4158 14.9385 10.5564C14.9385 10.7087 14.8213 10.8259 14.6807 10.8259ZM14.6807 8.7755H5.31928C5.16696 8.7755 5.0498 8.65833 5.0498 8.51774C5.0498 8.36542 5.16696 8.24826 5.31928 8.24826H14.6807C14.8213 8.24826 14.9385 8.36542 14.9385 8.51774C14.9385 8.65833 14.8213 8.7755 14.6807 8.7755ZM14.6807 6.73683H5.31928C5.16696 6.73683 5.0498 6.61967 5.0498 6.46735C5.0498 6.32676 5.16696 6.19788 5.31928 6.19788H14.6807C14.8213 6.19788 14.9385 6.32676 14.9385 6.46735C14.9385 6.61967 14.8213 6.73683 14.6807 6.73683ZM12.2671 3.35078L11.1892 2.27286C11.0838 2.16741 11.0838 2.00338 11.1892 1.89793C11.2947 1.79249 11.4587 1.79249 11.5641 1.89793L12.8295 3.1516C12.8764 3.21018 12.8998 3.28048 12.8998 3.35078C12.8998 3.42107 12.8764 3.47966 12.8295 3.53824L11.5641 4.7919C11.5173 4.83877 11.447 4.87392 11.3767 4.87392C11.3064 4.87392 11.2361 4.83877 11.1892 4.7919C11.0838 4.68645 11.0838 4.52242 11.1892 4.41697L12.2671 3.35078ZM7.69772 3.35078L8.76392 4.41697C8.86936 4.52242 8.86936 4.68645 8.76392 4.7919C8.71705 4.83877 8.64675 4.87392 8.57645 4.87392C8.50615 4.87392 8.43585 4.83877 8.38899 4.7919L7.13533 3.53824C7.07675 3.47966 7.05331 3.42107 7.05331 3.35078C7.05331 3.28048 7.07675 3.21018 7.13533 3.1516L8.38899 1.89793C8.49444 1.79249 8.65847 1.79249 8.76392 1.89793C8.86936 2.00338 8.86936 2.16741 8.76392 2.27286L7.69772 3.35078ZM9.64265 4.92078C9.58407 4.92078 9.61922 4.92078 9.57235 4.90906C9.43175 4.87392 9.34974 4.7216 9.38489 4.581L10.0644 2.05025C10.0996 1.90965 10.2519 1.81592 10.3925 1.86278C10.5331 1.89793 10.6151 2.03853 10.58 2.17913L9.90041 4.7216C9.86526 4.83877 9.75981 4.92078 9.64265 4.92078Z" fill="#333333"/>
<path fill-rule="evenodd" clip-rule="evenodd" d="M8.13123 17.7038C7.25249 17.7038 6.67839 17.0125 6.67839 16.1689C6.67839 15.794 6.79555 15.4074 7.0416 15.1145C7.31107 14.7864 7.69772 14.6224 8.13123 14.6224C9.00996 14.6224 9.57235 15.3136 9.57235 16.1689C9.57235 16.5439 9.4669 16.9188 9.22086 17.2117C8.93966 17.5515 8.56474 17.7038 8.13123 17.7038ZM8.13123 15.1496C7.5454 15.1496 7.21734 15.6065 7.21734 16.1689C7.21734 16.7196 7.5454 17.1766 8.13123 17.1766C8.4007 17.1766 8.63503 17.0828 8.81078 16.8719C8.97481 16.6845 9.04511 16.415 9.04511 16.1689C9.04511 15.6065 8.71705 15.1496 8.13123 15.1496ZM4.65144 17.1766H5.9754C6.11599 17.1766 6.23316 17.2937 6.23316 17.446C6.23316 17.5866 6.11599 17.7038 5.9754 17.7038H4.38196C4.22964 17.7038 4.11248 17.5866 4.11248 17.446V14.8918C4.11248 14.7395 4.22964 14.6224 4.38196 14.6224C4.52256 14.6224 4.65144 14.7395 4.65144 14.8918V17.1766ZM12.4663 16.9305V16.579H11.7282C11.5759 16.579 11.4587 16.4618 11.4587 16.3095C11.4587 16.1689 11.5759 16.0518 11.7282 16.0518H12.7358C12.8764 16.0518 13.0053 16.1689 13.0053 16.3095V17.0828C13.0053 17.1648 12.9584 17.2586 12.8764 17.3054C12.5249 17.528 12.1148 17.7155 11.693 17.7155C11.2361 17.7155 10.826 17.4812 10.5565 17.118C10.0879 16.4618 10.1582 15.6768 10.6737 15.0676C10.99 14.6927 11.4939 14.5521 11.9625 14.6458C12.4312 14.7512 12.8061 15.0676 12.9467 15.5362C12.9936 15.6768 12.9115 15.8292 12.7709 15.8643C12.6303 15.9112 12.478 15.8292 12.4429 15.6886C12.3492 15.4191 12.1383 15.2316 11.8571 15.173C11.5759 15.1145 11.2595 15.1965 11.0721 15.4191C10.7206 15.8292 10.662 16.3564 10.99 16.8016C11.365 17.3406 11.9625 17.2234 12.4663 16.9305ZM14.7745 17.7038C14.2589 17.7038 13.6731 17.3757 13.6731 16.8016C13.6731 16.661 13.7903 16.5439 13.9426 16.5439C14.0832 16.5439 14.2121 16.661 14.2121 16.8016C14.2121 17.0594 14.5753 17.1766 14.7745 17.1766C14.9854 17.1766 15.3486 17.0594 15.3486 16.8016C15.3486 16.497 14.9619 16.4736 14.7276 16.4267C14.1886 16.333 13.6731 16.1807 13.6731 15.5245C13.6731 14.9504 14.2589 14.6224 14.7745 14.6224C15.29 14.6224 15.8758 14.9504 15.8758 15.5245C15.8758 15.6768 15.7586 15.794 15.618 15.794C15.4657 15.794 15.3486 15.6768 15.3486 15.5245C15.3486 15.2785 14.9854 15.1496 14.7745 15.1496C14.5753 15.1496 14.2121 15.2785 14.2121 15.5245C14.2121 15.8409 14.587 15.8643 14.8213 15.8995C15.3603 16.0049 15.8758 16.1455 15.8758 16.8016C15.8758 17.3757 15.29 17.7038 14.7745 17.7038Z" fill="#333333"/>
</g>
<defs>
<clipPath id="clip0_508_529">
<rect width="20" height="20" fill="white"/>
</clipPath>
</defs>
</svg>
