<svg width="34" height="34" viewBox="0 0 34 34" fill="none" xmlns="http://www.w3.org/2000/svg">
<g clip-path="url(#clip0_263_2376)">
<path d="M4.18314 19.5826C4.08546 19.6763 4.01495 19.7946 3.97908 19.9251C3.94321 20.0556 3.94331 20.1934 3.97939 20.3238C4.01547 20.4543 4.08617 20.5725 4.184 20.6661C4.28182 20.7596 4.40314 20.8249 4.53507 20.855L12.597 22.7014L16.855 15.3263C16.9545 15.154 17.1183 15.0283 17.3104 14.9769C17.5025 14.9254 17.7073 14.9523 17.8795 15.0518C18.0518 15.1512 18.1775 15.3151 18.229 15.5072C18.2804 15.6993 18.2535 15.904 18.154 16.0763L13.896 23.4514L19.526 29.51C19.6181 29.609 19.7353 29.6812 19.8651 29.719C19.995 29.7568 20.1326 29.7587 20.2634 29.7247C20.3943 29.6907 20.5135 29.622 20.6085 29.5257C20.7035 29.4295 20.7707 29.3094 20.803 29.1781C22.4446 22.4875 22.9317 15.5658 22.2434 8.71127C22.2316 8.59285 22.1917 8.47896 22.1272 8.37899C22.0626 8.27902 21.9752 8.19585 21.8721 8.13635C21.7691 8.07684 21.6533 8.04272 21.5345 8.03679C21.4156 8.03087 21.2971 8.05331 21.1886 8.10227C14.908 10.9332 9.15685 14.8158 4.18314 19.5826Z" fill="#EAFF55"/>
</g>
<defs>
<clipPath id="clip0_263_2376">
<rect width="24" height="24" fill="white" transform="translate(0.362183 21.3926) rotate(-60)"/>
</clipPath>
</defs>
</svg>
