<svg width="56" height="56" viewBox="0 0 56 56" fill="none" xmlns="http://www.w3.org/2000/svg">
<g filter="url(#filter0_ddd_263_3737)">
<rect x="9.10256" y="0.179688" width="37.7949" height="37.7949" rx="18.8974" fill="url(#paint0_linear_263_3737)" style="mix-blend-mode:overlay" shape-rendering="crispEdges"/>
<rect x="9.53205" y="0.609175" width="36.9359" height="36.9359" rx="18.4679" stroke="url(#paint1_linear_263_3737)" stroke-width="0.858974" style="mix-blend-mode:overlay" shape-rendering="crispEdges"/>
<g clip-path="url(#clip0_263_3737)">
<path d="M23.2343 25.1339C23.3116 25.1945 23.362 25.2829 23.3749 25.3802C23.3877 25.4776 23.3619 25.576 23.303 25.6546C23.244 25.7331 23.1566 25.7853 23.0596 25.8001C22.9625 25.815 22.8635 25.7911 22.7838 25.7338C21.7792 24.9781 20.9679 23.9951 20.4167 22.8653C20.3734 22.7758 20.3675 22.6729 20.4 22.5791C20.4326 22.4853 20.501 22.4082 20.5903 22.3648C20.6796 22.3213 20.7825 22.3151 20.8764 22.3474C20.9703 22.3797 21.0476 22.4479 21.0912 22.5371C21.5901 23.5601 22.3246 24.45 23.2343 25.1339ZM24.1297 25.8092C24.031 25.8105 23.9369 25.8505 23.8676 25.9207C23.7982 25.9909 23.7594 26.0856 23.7594 26.1842C23.7594 26.2829 23.7982 26.3776 23.8676 26.4477C23.9369 26.5179 24.031 26.558 24.1297 26.5592C24.2283 26.558 24.3225 26.5179 24.3918 26.4477C24.4611 26.3776 24.5 26.2829 24.5 26.1842C24.5 26.0856 24.4611 25.9909 24.3918 25.9207C24.3225 25.8505 24.2283 25.8105 24.1297 25.8092ZM17.9398 10.5617C17.7943 10.3035 17.7566 9.9984 17.8348 9.71258C17.913 9.42676 18.1008 9.18333 18.3574 9.03516C18.614 8.88699 18.9187 8.84605 19.2053 8.92123C19.492 8.99641 19.7374 9.18164 19.8882 9.43669L22.8285 14.5296C23.3233 14.4895 23.8193 14.5905 24.259 14.8209C24.6987 15.0513 25.064 15.4018 25.3125 15.8315L26.7431 18.3092H28.3407C28.7151 16.1298 31.1222 14.266 32.9943 15.0337L34.3497 12.6862C34.1121 12.4545 33.9585 12.1502 33.9131 11.8214C33.8677 11.4927 33.9332 11.1582 34.099 10.8708L35.4113 8.59735C35.6124 8.25708 35.9396 8.0099 36.3218 7.90953C36.7041 7.80916 37.1105 7.86371 37.4528 8.06133C37.7951 8.25895 38.0455 8.58366 38.1497 8.9649C38.2539 9.34614 38.2034 9.7531 38.0093 10.0973L36.6969 12.3708C36.5301 12.6581 36.2728 12.8821 35.9652 13.0078C35.6577 13.1335 35.3171 13.1538 34.9968 13.0656L33.644 15.4086C34.0425 15.7673 34.3419 16.2227 34.5133 16.7307C34.6846 17.2388 34.7222 17.7824 34.6224 18.3092H35.7549C36.0531 18.3096 36.3391 18.4282 36.55 18.6391C36.7609 18.85 36.8795 19.136 36.8799 19.4342C36.8791 21.3141 36.3136 23.1504 35.2568 24.7051C34.2 26.2598 32.7005 27.4612 30.9527 28.1535C31.1875 28.2583 31.3794 28.4403 31.4965 28.6692C31.6136 28.8982 31.6489 29.1602 31.5965 29.412C31.5441 29.6637 31.4071 29.8899 31.2084 30.0531C31.0096 30.2162 30.7611 30.3065 30.5039 30.3089H24.504C24.2463 30.3065 23.9973 30.2158 23.7983 30.0521C23.5994 29.8884 23.4626 29.6614 23.4107 29.409C23.3588 29.1566 23.395 28.8941 23.5132 28.6651C23.6314 28.4362 23.8244 28.2546 24.0602 28.1508C22.3128 27.4585 20.8133 26.2576 19.756 24.7036C18.6987 23.1495 18.1322 21.3139 18.1299 19.4343C18.1302 19.136 18.2488 18.85 18.4597 18.6391C18.6706 18.4282 18.9566 18.3096 19.2549 18.3093H20.6943C20.4859 17.8904 20.3932 17.4234 20.4259 16.9566C20.4585 16.4899 20.6153 16.0404 20.8801 15.6546L17.9398 10.5617ZM24.504 28.8089C24.4055 28.8103 24.3115 28.8505 24.2424 28.9207C24.1732 28.9908 24.1345 29.0854 24.1345 29.1839C24.1345 29.2824 24.1732 29.3769 24.2424 29.4471C24.3115 29.5173 24.4055 29.5574 24.504 29.5589H30.504C30.6024 29.5574 30.6964 29.5173 30.7655 29.4471C30.8347 29.3769 30.8734 29.2824 30.8734 29.1839C30.8734 29.0854 30.8347 28.9908 30.7655 28.9207C30.6964 28.8505 30.6024 28.8103 30.504 28.8089C28.9994 28.8089 26.0117 28.8086 24.504 28.8089ZM33.7286 16.7484C33.3228 18.4723 32.4179 20.0384 31.127 21.2509C31.6093 21.159 32.0648 20.9598 32.4598 20.6681C32.8548 20.3764 33.1792 19.9996 33.4089 19.5657C33.6697 19.15 33.8338 18.681 33.8892 18.1934C33.9445 17.7058 33.8896 17.212 33.7286 16.7484ZM29.9605 21.0386C31.3774 20.888 33.6407 16.2721 32.9164 15.8326C32.0785 15.8917 30.1663 18.696 29.9457 20.185C29.8178 20.8094 29.9325 21.0225 29.9605 21.0386ZM36.0473 11.9958L37.3598 9.72233C37.4563 9.55028 37.4811 9.34712 37.4289 9.15688C37.3767 8.96663 37.2516 8.80463 37.0808 8.70597C36.9099 8.60732 36.7071 8.57995 36.5162 8.62981C36.3253 8.67967 36.1618 8.80273 36.061 8.97233L34.7485 11.2458C34.6525 11.4178 34.6281 11.6207 34.6805 11.8106C34.7328 12.0005 34.8578 12.1621 35.0284 12.2606C35.199 12.3592 35.4015 12.3866 35.5921 12.337C35.7828 12.2875 35.9463 12.1649 36.0473 11.9958ZM29.1945 20.1384C29.5961 18.4136 30.4988 16.8461 31.789 15.633C30.0126 15.8114 28.4237 18.3898 29.1945 20.1384ZM27.1761 19.0592C27.2532 19.1874 27.3041 19.3297 27.3257 19.4777C27.3473 19.6257 27.3392 19.7765 27.302 19.9214C27.2648 20.0663 27.1991 20.2023 27.1087 20.3216C27.0184 20.4408 26.9053 20.5409 26.7759 20.616L24.1776 22.116C23.9192 22.2651 23.6121 22.3054 23.3239 22.2281C23.0357 22.1509 22.7899 21.9624 22.6407 21.704L21.1137 19.0592H19.2548C19.2054 19.0586 19.1564 19.0679 19.1107 19.0865C19.0649 19.1052 19.0233 19.1327 18.9884 19.1677C18.9534 19.2026 18.9258 19.2442 18.9072 19.2899C18.8886 19.3357 18.8793 19.3847 18.8799 19.4341C18.864 27.0615 28.23 30.9441 33.6037 25.5324C34.4071 24.7334 35.044 23.7831 35.4776 22.7363C35.9112 21.6896 36.1329 20.5672 36.1299 19.4342C36.1298 19.3348 36.0902 19.2395 36.0199 19.1692C35.9496 19.0989 35.8543 19.0593 35.7549 19.0592H34.4485C33.3611 22.6016 28.4011 23.3606 28.2598 19.0592H27.1761ZM18.5893 10.1867L21.6548 15.4964C21.6935 15.5635 21.7105 15.641 21.7034 15.7182C21.6963 15.7954 21.6654 15.8685 21.6151 15.9274C21.3636 16.222 21.2094 16.5871 21.1736 16.9727C21.1379 17.3584 21.2223 17.7457 21.4153 18.0814L23.2903 21.329C23.3403 21.4149 23.4222 21.4776 23.5182 21.5033C23.6143 21.5291 23.7166 21.5158 23.8028 21.4663L26.4007 19.9663C26.4867 19.9165 26.5495 19.8346 26.5752 19.7385C26.6009 19.6425 26.5875 19.5402 26.5379 19.454L24.6629 16.2064C24.4688 15.8712 24.1756 15.6043 23.8236 15.4424C23.4717 15.2806 23.0782 15.2318 22.6974 15.3026C22.6212 15.3162 22.5426 15.3062 22.4723 15.2737C22.402 15.2413 22.3433 15.1881 22.3041 15.1214L19.2387 9.8117C19.2009 9.74857 19.1454 9.69788 19.0791 9.66587C19.0128 9.63386 18.9386 9.62192 18.8656 9.63153C18.7927 9.64114 18.7241 9.67188 18.6683 9.71995C18.6126 9.76803 18.5721 9.83136 18.5519 9.90214C18.539 9.94968 18.5357 9.9993 18.5421 10.0481C18.5485 10.097 18.5645 10.1441 18.5893 10.1867Z" fill="#EAFF55"/>
</g>
</g>
<defs>
<filter id="filter0_ddd_263_3737" x="-8.07693" y="-16.9998" width="72.1538" height="72.1539" filterUnits="userSpaceOnUse" color-interpolation-filters="sRGB">
<feFlood flood-opacity="0" result="BackgroundImageFix"/>
<feColorMatrix in="SourceAlpha" type="matrix" values="0 0 0 0 0 0 0 0 0 0 0 0 0 0 0 0 0 0 127 0" result="hardAlpha"/>
<feOffset dy="8.58974"/>
<feGaussianBlur stdDeviation="4.29487"/>
<feComposite in2="hardAlpha" operator="out"/>
<feColorMatrix type="matrix" values="0 0 0 0 0 0 0 0 0 0 0 0 0 0 0 0 0 0 0.1 0"/>
<feBlend mode="normal" in2="BackgroundImageFix" result="effect1_dropShadow_263_3737"/>
<feColorMatrix in="SourceAlpha" type="matrix" values="0 0 0 0 0 0 0 0 0 0 0 0 0 0 0 0 0 0 127 0" result="hardAlpha"/>
<feOffset dy="3.4359"/>
<feGaussianBlur stdDeviation="1.71795"/>
<feComposite in2="hardAlpha" operator="out"/>
<feColorMatrix type="matrix" values="0 0 0 0 0 0 0 0 0 0 0 0 0 0 0 0 0 0 0.05 0"/>
<feBlend mode="normal" in2="effect1_dropShadow_263_3737" result="effect2_dropShadow_263_3737"/>
<feColorMatrix in="SourceAlpha" type="matrix" values="0 0 0 0 0 0 0 0 0 0 0 0 0 0 0 0 0 0 127 0" result="hardAlpha"/>
<feOffset dy="0.858974"/>
<feComposite in2="hardAlpha" operator="out"/>
<feColorMatrix type="matrix" values="0 0 0 0 0 0 0 0 0 0 0 0 0 0 0 0 0 0 0.05 0"/>
<feBlend mode="normal" in2="effect2_dropShadow_263_3737" result="effect3_dropShadow_263_3737"/>
<feBlend mode="normal" in="SourceGraphic" in2="effect3_dropShadow_263_3737" result="shape"/>
</filter>
<linearGradient id="paint0_linear_263_3737" x1="28" y1="0.179687" x2="28" y2="37.9746" gradientUnits="userSpaceOnUse">
<stop stop-color="white" stop-opacity="0.5"/>
<stop offset="1" stop-color="white"/>
</linearGradient>
<linearGradient id="paint1_linear_263_3737" x1="28" y1="0.179687" x2="28" y2="37.9746" gradientUnits="userSpaceOnUse">
<stop stop-color="white" stop-opacity="0.5"/>
<stop offset="1" stop-color="white"/>
</linearGradient>
<clipPath id="clip0_263_3737">
<rect width="24" height="24" fill="white" transform="translate(16 7.07715)"/>
</clipPath>
</defs>
</svg>
