<svg width="51" height="51" viewBox="0 0 51 51" fill="none" xmlns="http://www.w3.org/2000/svg">
<g filter="url(#filter0_ddd_263_1440)">
<rect x="8.72092" y="0.779297" width="34.2791" height="34.2791" rx="17.1395" fill="url(#paint0_linear_263_1440)" style="mix-blend-mode:overlay" shape-rendering="crispEdges"/>
<rect x="9.11045" y="1.16883" width="33.5" height="33.5" rx="16.75" stroke="url(#paint1_linear_263_1440)" stroke-width="0.77907" style="mix-blend-mode:overlay" shape-rendering="crispEdges"/>
<path d="M19.2117 21.4921C19.2117 21.2501 19.2756 21.0196 19.4034 20.8005C19.5313 20.5768 19.6933 20.3623 19.8896 20.1569C20.0905 19.9514 20.2936 19.7483 20.499 19.5474C20.6588 19.3922 20.782 19.1891 20.8688 18.938C20.9601 18.687 21.0285 18.4108 21.0742 18.1095C21.1198 17.8082 21.1563 17.5001 21.1837 17.1851C21.2111 16.3224 21.3184 15.5578 21.5056 14.8913C21.6973 14.2248 21.9803 13.6656 22.3546 13.2137C22.7335 12.7618 23.2219 12.4285 23.8199 12.214C23.9478 11.7621 24.192 11.3832 24.5526 11.0773C24.9132 10.7715 25.3469 10.6186 25.8536 10.6186C26.1914 10.6186 26.5041 10.6916 26.7917 10.8377C26.6502 10.9883 26.5269 11.1572 26.4219 11.3444C26.3169 11.527 26.2325 11.721 26.1686 11.9264C26.0864 11.8945 25.9814 11.8785 25.8536 11.8785C25.5569 11.8785 25.3172 11.9857 25.1346 12.2003C24.9566 12.4148 24.8562 12.6956 24.8333 13.0425C24.8288 13.1338 24.8014 13.2046 24.7512 13.2548C24.7055 13.3004 24.6416 13.3324 24.5595 13.3506C24.1897 13.4511 23.8542 13.6382 23.5529 13.9121C23.2562 14.1814 23.0165 14.5923 22.8339 15.1446C22.6559 15.6924 22.5532 16.4274 22.5258 17.3495C22.5075 17.6781 22.4779 17.984 22.4368 18.267C22.4003 18.55 22.3501 18.8125 22.2862 19.0544C22.2268 19.2918 22.1538 19.5064 22.067 19.6981C21.9803 19.8852 21.8776 20.045 21.7589 20.1774C21.6494 20.3052 21.5352 20.4307 21.4165 20.554C21.2979 20.6727 21.1883 20.7822 21.0879 20.8827C20.9874 20.9831 20.9076 21.063 20.8482 21.1223V21.2045H30.8453V21.1223C30.7859 21.063 30.7083 20.9831 30.6125 20.8827C30.5166 20.7822 30.4093 20.6727 30.2906 20.554C30.1765 20.4307 30.0624 20.3052 29.9483 20.1774C29.8296 20.045 29.7269 19.8852 29.6401 19.6981C29.5534 19.5064 29.4804 19.2918 29.421 19.0544C29.3617 18.8125 29.3115 18.55 29.2704 18.267C29.2293 17.984 29.2019 17.6781 29.1882 17.3495C29.1837 17.1532 29.1745 16.9683 29.1608 16.7948C29.1517 16.6168 29.138 16.4502 29.1197 16.295C29.3343 16.3269 29.5603 16.3269 29.7976 16.295C30.0396 16.2585 30.261 16.2014 30.4618 16.1238C30.4801 16.2973 30.4961 16.4776 30.5098 16.6647C30.5234 16.8473 30.5326 17.0368 30.5371 17.2331C30.5691 17.5389 30.6056 17.8402 30.6467 18.1369C30.6923 18.4291 30.7585 18.6984 30.8453 18.9449C30.9366 19.1914 31.0598 19.3922 31.215 19.5474C31.4204 19.7483 31.6213 19.9514 31.8176 20.1569C32.0184 20.3623 32.1828 20.5768 32.3106 20.8005C32.4384 21.0196 32.5023 21.2501 32.5023 21.4921C32.5023 21.7842 32.3996 22.0193 32.1942 22.1973C31.9933 22.3708 31.7149 22.4575 31.3588 22.4575H28.5377C28.5195 22.9003 28.3939 23.3112 28.1611 23.6901C27.9329 24.0735 27.6202 24.3816 27.223 24.6144C26.8305 24.8518 26.374 24.9705 25.8536 24.9705C25.3378 24.9705 24.8813 24.8518 24.4841 24.6144C24.0916 24.3816 23.7789 24.0735 23.5461 23.6901C23.3178 23.3112 23.1946 22.9003 23.1763 22.4575H20.3552C19.9992 22.4575 19.7184 22.3708 19.513 22.1973C19.3121 22.0193 19.2117 21.7842 19.2117 21.4921ZM24.4704 22.4575C24.4933 22.8912 24.6325 23.2359 24.8881 23.4915C25.1483 23.7471 25.4701 23.8749 25.8536 23.8749C26.2462 23.8749 26.568 23.7471 26.8191 23.4915C27.0747 23.2359 27.2162 22.8912 27.2436 22.4575H24.4704ZM29.2841 15.4117C28.8459 15.4117 28.4487 15.3044 28.0927 15.0899C27.7366 14.8753 27.4513 14.5877 27.2367 14.2271C27.0222 13.8665 26.9149 13.4716 26.9149 13.0425C26.9149 12.6089 27.0222 12.214 27.2367 11.8579C27.4513 11.4973 27.7366 11.2097 28.0927 10.9952C28.4487 10.7806 28.8459 10.6734 29.2841 10.6734C29.7086 10.6734 30.0989 10.7806 30.455 10.9952C30.8156 11.2097 31.1032 11.4973 31.3177 11.8579C31.5323 12.214 31.6396 12.6089 31.6396 13.0425C31.6396 13.4716 31.5323 13.8665 31.3177 14.2271C31.1032 14.5877 30.8156 14.8753 30.455 15.0899C30.0989 15.3044 29.7086 15.4117 29.2841 15.4117Z" fill="#F97316"/>
</g>
<defs>
<filter id="filter0_ddd_263_1440" x="-6.86048" y="-14.8021" width="65.4419" height="65.4421" filterUnits="userSpaceOnUse" color-interpolation-filters="sRGB">
<feFlood flood-opacity="0" result="BackgroundImageFix"/>
<feColorMatrix in="SourceAlpha" type="matrix" values="0 0 0 0 0 0 0 0 0 0 0 0 0 0 0 0 0 0 127 0" result="hardAlpha"/>
<feOffset dy="7.7907"/>
<feGaussianBlur stdDeviation="3.89535"/>
<feComposite in2="hardAlpha" operator="out"/>
<feColorMatrix type="matrix" values="0 0 0 0 0 0 0 0 0 0 0 0 0 0 0 0 0 0 0.1 0"/>
<feBlend mode="normal" in2="BackgroundImageFix" result="effect1_dropShadow_263_1440"/>
<feColorMatrix in="SourceAlpha" type="matrix" values="0 0 0 0 0 0 0 0 0 0 0 0 0 0 0 0 0 0 127 0" result="hardAlpha"/>
<feOffset dy="3.11628"/>
<feGaussianBlur stdDeviation="1.55814"/>
<feComposite in2="hardAlpha" operator="out"/>
<feColorMatrix type="matrix" values="0 0 0 0 0 0 0 0 0 0 0 0 0 0 0 0 0 0 0.05 0"/>
<feBlend mode="normal" in2="effect1_dropShadow_263_1440" result="effect2_dropShadow_263_1440"/>
<feColorMatrix in="SourceAlpha" type="matrix" values="0 0 0 0 0 0 0 0 0 0 0 0 0 0 0 0 0 0 127 0" result="hardAlpha"/>
<feOffset dy="0.77907"/>
<feComposite in2="hardAlpha" operator="out"/>
<feColorMatrix type="matrix" values="0 0 0 0 0 0 0 0 0 0 0 0 0 0 0 0 0 0 0.05 0"/>
<feBlend mode="normal" in2="effect2_dropShadow_263_1440" result="effect3_dropShadow_263_1440"/>
<feBlend mode="normal" in="SourceGraphic" in2="effect3_dropShadow_263_1440" result="shape"/>
</filter>
<linearGradient id="paint0_linear_263_1440" x1="25.8605" y1="0.779297" x2="25.8605" y2="35.0584" gradientUnits="userSpaceOnUse">
<stop stop-color="white" stop-opacity="0.5"/>
<stop offset="1" stop-color="white"/>
</linearGradient>
<linearGradient id="paint1_linear_263_1440" x1="25.8605" y1="0.779297" x2="25.8605" y2="35.0584" gradientUnits="userSpaceOnUse">
<stop stop-color="white" stop-opacity="0.5"/>
<stop offset="1" stop-color="white"/>
</linearGradient>
</defs>
</svg>
