<svg width="25" height="25" viewBox="0 0 25 25" fill="none" xmlns="http://www.w3.org/2000/svg">
<path d="M15.717 18C17.5802 17.7794 19.4108 17.3397 21.171 16.69C19.6804 15.0388 18.8567 12.8925 18.86 10.668V9.91797C18.86 8.32667 18.2278 6.80055 17.1026 5.67533C15.9774 4.55011 14.4513 3.91797 12.86 3.91797C11.2687 3.91797 9.74255 4.55011 8.61733 5.67533C7.49212 6.80055 6.85997 8.32667 6.85997 9.91797V10.668C6.86299 12.8926 6.03896 15.0389 4.54797 16.69C6.28097 17.33 8.10797 17.775 10.003 18M15.717 18C13.819 18.2251 11.901 18.2251 10.003 18M15.717 18C15.8611 18.4498 15.8969 18.9274 15.8216 19.3937C15.7462 19.86 15.5618 20.302 15.2834 20.6835C15.0049 21.0651 14.6403 21.3756 14.2192 21.5896C13.7981 21.8036 13.3324 21.9151 12.86 21.9151C12.3876 21.9151 11.9219 21.8036 11.5008 21.5896C11.0797 21.3756 10.715 21.0651 10.4366 20.6835C10.1581 20.302 9.97374 19.86 9.89839 19.3937C9.82304 18.9274 9.85887 18.4498 10.003 18" stroke="#F97316" stroke-width="1.5" stroke-linecap="round" stroke-linejoin="round"/>
</svg>
