<svg width="14" height="15" viewBox="0 0 14 15" fill="none" xmlns="http://www.w3.org/2000/svg">
<path d="M0.211748 11.4921C0.211748 11.2501 0.275656 11.0196 0.403472 10.8005C0.531288 10.5768 0.693341 10.3623 0.88963 10.1569C1.09048 9.95143 1.29362 9.7483 1.49904 9.54744C1.65881 9.39224 1.78206 9.1891 1.86879 8.93803C1.96009 8.68697 2.02856 8.41079 2.07421 8.10951C2.11986 7.80823 2.15638 7.5001 2.18377 7.18513C2.21116 6.32237 2.31843 5.55775 2.50559 4.89128C2.69732 4.22481 2.98034 3.66562 3.35466 3.2137C3.73354 2.76178 4.22198 2.42854 4.81998 2.21399C4.94779 1.76207 5.19201 1.38319 5.55264 1.07734C5.91326 0.771496 6.34692 0.618573 6.85362 0.618573C7.19142 0.618573 7.50411 0.691611 7.7917 0.837687C7.65019 0.988327 7.52694 1.15723 7.42195 1.34439C7.31696 1.52698 7.23251 1.72099 7.1686 1.92641C7.08643 1.89445 6.98144 1.87848 6.85362 1.87848C6.55691 1.87848 6.31725 1.98575 6.13466 2.2003C5.95663 2.41485 5.8562 2.69559 5.83338 3.04251C5.82881 3.13381 5.80142 3.20457 5.75121 3.25478C5.70556 3.30043 5.64165 3.33238 5.55948 3.35064C5.18973 3.45107 4.85421 3.63823 4.55293 3.91212C4.25622 4.18145 4.01656 4.59229 3.83397 5.14463C3.65594 5.69242 3.55323 6.42736 3.52584 7.34946C3.50758 7.67813 3.47791 7.98398 3.43682 8.267C3.4003 8.55002 3.35009 8.8125 3.28618 9.05444C3.22684 9.29181 3.1538 9.50636 3.06707 9.69808C2.98034 9.88524 2.87763 10.045 2.75894 10.1774C2.64938 10.3052 2.53526 10.4307 2.41658 10.554C2.29789 10.6727 2.18833 10.7822 2.08791 10.8827C1.98748 10.9831 1.90759 11.063 1.84825 11.1223V11.2045H11.8453V11.1223C11.786 11.063 11.7084 10.9831 11.6125 10.8827C11.5166 10.7822 11.4094 10.6727 11.2907 10.554C11.1765 10.4307 11.0624 10.3052 10.9483 10.1774C10.8296 10.045 10.7269 9.88524 10.6402 9.69808C10.5534 9.50636 10.4804 9.29181 10.4211 9.05444C10.3617 8.8125 10.3115 8.55002 10.2704 8.267C10.2293 7.98398 10.2019 7.67813 10.1883 7.34946C10.1837 7.15317 10.1746 6.9683 10.1609 6.79483C10.1517 6.6168 10.138 6.45018 10.1198 6.29498C10.3343 6.32693 10.5603 6.32693 10.7977 6.29498C11.0396 6.25846 11.261 6.2014 11.4618 6.1238C11.4801 6.29726 11.4961 6.47757 11.5098 6.66473C11.5235 6.84733 11.5326 7.03677 11.5372 7.23306C11.5691 7.5389 11.6056 7.84018 11.6467 8.1369C11.6924 8.42905 11.7586 8.69838 11.8453 8.94488C11.9366 9.19138 12.0598 9.39224 12.2151 9.54744C12.4205 9.7483 12.6213 9.95143 12.8176 10.1569C13.0185 10.3623 13.1828 10.5768 13.3106 10.8005C13.4384 11.0196 13.5023 11.2501 13.5023 11.4921C13.5023 11.7842 13.3996 12.0193 13.1942 12.1973C12.9934 12.3708 12.7149 12.4575 12.3588 12.4575H9.53776C9.5195 12.9003 9.39397 13.3112 9.16116 13.6901C8.93292 14.0735 8.62022 14.3816 8.22308 14.6144C7.8305 14.8518 7.37402 14.9705 6.85362 14.9705C6.33779 14.9705 5.88131 14.8518 5.48416 14.6144C5.09159 14.3816 4.77889 14.0735 4.54608 13.6901C4.31784 13.3112 4.19459 12.9003 4.17633 12.4575H1.35525C0.999187 12.4575 0.718448 12.3708 0.513029 12.1973C0.312175 12.0193 0.211748 11.7842 0.211748 11.4921ZM5.47047 12.4575C5.49329 12.8912 5.63252 13.2359 5.88815 13.4915C6.14835 13.7471 6.47017 13.8749 6.85362 13.8749C7.2462 13.8749 7.56802 13.7471 7.81909 13.4915C8.07472 13.2359 8.21623 12.8912 8.24362 12.4575H5.47047ZM10.2841 5.41168C9.84589 5.41168 9.44875 5.3044 9.09269 5.08986C8.73663 4.87531 8.45132 4.58772 8.23677 4.2271C8.02223 3.86647 7.91495 3.47161 7.91495 3.04251C7.91495 2.60885 8.02223 2.21399 8.23677 1.85793C8.45132 1.49731 8.73663 1.20972 9.09269 0.995174C9.44875 0.780626 9.84589 0.673352 10.2841 0.673352C10.7086 0.673352 11.0989 0.780626 11.455 0.995174C11.8156 1.20972 12.1032 1.49731 12.3178 1.85793C12.5323 2.21399 12.6396 2.60885 12.6396 3.04251C12.6396 3.47161 12.5323 3.86647 12.3178 4.2271C12.1032 4.58772 11.8156 4.87531 11.455 5.08986C11.0989 5.3044 10.7086 5.41168 10.2841 5.41168Z" fill="#F97316"/>
</svg>
