<svg width="13" height="13" viewBox="0 0 13 13" fill="none" xmlns="http://www.w3.org/2000/svg">
<mask id="mask0_263_565" style="mask-type:alpha" maskUnits="userSpaceOnUse" x="1" y="1" width="11" height="11">
<path d="M4.74499 10.8732L9.55083 6.06737L7.26815 3.78468L2.46231 8.59052C2.39615 8.65676 2.34915 8.73968 2.3263 8.83048L1.79364 11.5419L4.50452 11.0092C4.59554 10.9865 4.6788 10.9394 4.74499 10.8732ZM11.1023 4.51593C11.2962 4.32197 11.4051 4.05894 11.4051 3.78468C11.4051 3.51043 11.2962 3.2474 11.1023 3.05344L10.2821 2.23325C10.0881 2.03935 9.82509 1.93042 9.55083 1.93042C9.27657 1.93042 9.01354 2.03935 8.81958 2.23325L7.99939 3.05344L10.2821 5.33612L11.1023 4.51593Z" fill="#006FFD"/>
</mask>
<g mask="url(#mask0_263_565)">
<rect x="0.83252" y="0.969238" width="11.5337" height="11.5337" fill="#24262B"/>
</g>
</svg>
