<svg width="20" height="20" viewBox="0 0 20 20" fill="none" xmlns="http://www.w3.org/2000/svg">
<path d="M9.85807 0.5C10.9744 0.500041 11.9399 0.870634 12.7507 1.61133L12.9098 1.76465C13.7526 2.60758 14.1753 3.62607 14.1755 4.81641C14.1755 5.93302 13.8039 6.89833 13.0632 7.70898L12.9108 7.86914C12.0682 8.71191 11.0489 9.13375 9.85807 9.13379C8.74192 9.13379 7.77635 8.76321 6.96549 8.02246L6.80534 7.86914C5.96266 7.02648 5.54069 6.00728 5.54069 4.81641C5.5408 3.62597 5.96276 2.60726 6.80534 1.76465C7.64805 0.921944 8.66704 0.5 9.85807 0.5Z" stroke="white"/>
<path d="M13.9277 10.1602C14.3908 10.1602 14.8135 10.2379 15.1875 10.3857V10.3867C15.4771 10.5015 15.7323 10.6455 15.9512 10.8154L16.1582 10.9941C16.3518 11.1794 16.5328 11.3976 16.6973 11.6465L16.8564 11.9062C17.007 12.1712 17.1355 12.4439 17.2402 12.7197L17.3369 12.9961C17.4252 13.2717 17.503 13.5696 17.5693 13.8838L17.6318 14.2031C17.6901 14.5285 17.7346 14.8386 17.7637 15.1289L17.7871 15.4131C17.8129 15.7816 17.827 16.1676 17.8271 16.5596L17.8135 16.8984C17.7593 17.5548 17.5443 18.0872 17.1865 18.5088L16.9951 18.71C16.4569 19.2221 15.7332 19.499 14.7988 19.499H5.16895C4.35131 19.499 3.69455 19.2867 3.18262 18.8906L2.97168 18.71C2.43204 18.1959 2.14062 17.4897 2.14062 16.5596C2.14063 16.3646 2.14392 16.1709 2.15039 15.9795L2.17969 15.4131C2.19888 15.1357 2.23259 14.8372 2.28125 14.5225L2.33496 14.2031C2.41267 13.7702 2.51241 13.3645 2.62988 12.9971C2.7187 12.7196 2.8312 12.4434 2.9668 12.1738L3.11035 11.9062C3.26316 11.6372 3.43415 11.3976 3.61914 11.1904L3.80859 10.9941C4.00364 10.8075 4.2348 10.6447 4.50098 10.5107L4.77832 10.3867C5.15236 10.2386 5.57561 10.1602 6.03906 10.1602C6.0721 10.1602 6.12987 10.1637 6.31543 10.2686L6.54883 10.4111L7.36816 10.9395H7.36914C7.67938 11.1374 8.07747 11.3092 8.53809 11.458V11.459C9.01339 11.6126 9.49996 11.6914 9.9834 11.6914C10.3458 11.6914 10.7097 11.6466 11.0693 11.5596L11.4277 11.459C11.7738 11.3472 12.084 11.2219 12.3486 11.083L12.5977 10.9395H12.5986L13.418 10.4111C13.7956 10.1653 13.8837 10.1602 13.9277 10.1602Z" stroke="white"/>
</svg>
