<svg width="25" height="25" viewBox="0 0 25 25" fill="none" xmlns="http://www.w3.org/2000/svg">
<path fill-rule="evenodd" clip-rule="evenodd" d="M2.70502 12.0771C2.70502 6.69215 7.07002 2.32715 12.455 2.32715C17.84 2.32715 22.205 6.69215 22.205 12.0771C22.205 17.4621 17.84 21.8271 12.455 21.8271C7.07002 21.8271 2.70502 17.4621 2.70502 12.0771ZM16.729 11.0941C16.9042 11.1916 17.0501 11.3342 17.1517 11.507C17.2533 11.6798 17.3069 11.8767 17.3069 12.0771C17.3069 12.2776 17.2533 12.4745 17.1517 12.6473C17.0501 12.8201 16.9042 12.9627 16.729 13.0601L11.126 16.1731C10.9548 16.2682 10.7618 16.3169 10.566 16.3144C10.3702 16.312 10.1784 16.2585 10.0096 16.1592C9.84082 16.0599 9.70088 15.9183 9.60362 15.7483C9.50635 15.5784 9.45513 15.386 9.45502 15.1901V8.96415C9.45502 8.10715 10.376 7.56415 11.126 7.98115L16.729 11.0941Z" fill="#EAFF55"/>
</svg>
