<svg width="48" height="48" viewBox="0 0 48 48" fill="none" xmlns="http://www.w3.org/2000/svg">
<g filter="url(#filter0_ddd_519_399)">
<rect x="8.22757" y="0.695312" width="32.3299" height="32.3299" rx="16.1649" fill="url(#paint0_linear_519_399)" style="mix-blend-mode:overlay" shape-rendering="crispEdges"/>
<rect x="8.59495" y="1.0627" width="31.5951" height="31.5951" rx="15.7976" stroke="url(#paint1_linear_519_399)" stroke-width="0.73477" style="mix-blend-mode:overlay" shape-rendering="crispEdges"/>
<g clip-path="url(#clip0_519_399)">
<path fill-rule="evenodd" clip-rule="evenodd" d="M17.0253 17.8687L14.84 16.555C14.7102 16.477 14.6681 16.3082 14.7462 16.1783C14.8243 16.0485 14.993 16.0064 15.1229 16.0845L17.2998 17.3931L19.0247 16.3562C18.9902 16.2462 18.9716 16.1291 18.9716 16.0077C18.9716 15.459 19.3516 14.9982 19.8627 14.8747V12.5963C19.8627 12.5 19.9132 12.4107 19.9958 12.3611L22.7001 10.7354V8.18564C22.7001 8.03415 22.823 7.91113 22.9746 7.91113C23.1261 7.91113 23.2491 8.03415 23.2491 8.18564V10.7354L25.8119 12.276L28.3748 10.7354V8.18564C28.3748 8.03415 28.4978 7.91113 28.6493 7.91113C28.8008 7.91113 28.9238 8.03415 28.9238 8.18564V10.7354L31.6281 12.3611C31.7107 12.4107 31.7612 12.5 31.7612 12.5963V15.8525L33.9465 17.1662C34.0763 17.2442 34.1183 17.413 34.0403 17.5429C33.9622 17.6727 33.7934 17.7147 33.6636 17.6367L31.4867 16.328L28.7907 17.9487C28.7037 18.001 28.5949 18.001 28.5079 17.9487L26.6412 16.8265C26.4298 17.0406 26.1363 17.1734 25.8119 17.1734C25.4876 17.1734 25.1941 17.0406 24.9827 16.8265L23.2491 17.8687V21.1248C23.2491 21.2212 23.1986 21.3105 23.116 21.3601L20.4117 22.9858V25.5355C20.4117 25.687 20.2887 25.81 20.1372 25.81C19.9857 25.81 19.8627 25.687 19.8627 25.5355V22.9858L17.1584 21.3601C17.0758 21.3105 17.0253 21.2212 17.0253 21.1248V17.8687ZM19.3079 16.8265C18.8078 17.1272 17.5743 17.8687 17.5743 17.8687V20.9696L20.1372 22.5102L22.7001 20.9696V17.8687L20.9665 16.8265C20.755 17.0406 20.4615 17.1734 20.1372 17.1734C19.8129 17.1734 19.5193 17.0406 19.3079 16.8265ZM20.1372 15.3911C19.7969 15.3911 19.5206 15.6674 19.5206 16.0077C19.5206 16.348 19.7969 16.6243 20.1372 16.6243C20.4775 16.6243 20.7538 16.348 20.7538 16.0077C20.7538 15.6674 20.4775 15.3911 20.1372 15.3911ZM20.4117 14.8747C20.9227 14.9982 21.3028 15.459 21.3028 16.0077C21.3028 16.1291 21.2842 16.2462 21.2497 16.3562L22.9746 17.3931L24.6994 16.3562C24.6649 16.2462 24.6463 16.1291 24.6463 16.0077C24.6463 15.459 25.0264 14.9982 25.5374 14.8747V12.7516L22.9746 11.2109L20.4117 12.7516V14.8747ZM26.9245 16.3562L28.6493 17.3931L31.2121 15.8525V12.7516L28.6493 11.2109L26.0864 12.7516V14.8747C26.5975 14.9982 26.9776 15.459 26.9776 16.0077C26.9776 16.1291 26.9589 16.2462 26.9245 16.3562ZM25.8119 15.3911C25.4716 15.3911 25.1953 15.6674 25.1953 16.0077C25.1953 16.348 25.4716 16.6243 25.8119 16.6243C26.1522 16.6243 26.4285 16.348 26.4285 16.0077C26.4285 15.6674 26.1522 15.3911 25.8119 15.3911ZM18.3824 18.5229C18.3824 18.3714 18.5054 18.2484 18.6569 18.2484C18.8084 18.2484 18.9314 18.3714 18.9314 18.5229V20.4558C18.9314 20.6073 18.8084 20.7303 18.6569 20.7303C18.5054 20.7303 18.3824 20.6073 18.3824 20.4558V18.5229ZM21.5722 13.6999C21.4423 13.778 21.2735 13.7359 21.1955 13.6061C21.1174 13.4762 21.1594 13.3074 21.2893 13.2294L22.9233 12.2471C23.0532 12.169 23.2219 12.2111 23.3 12.3409C23.3781 12.4707 23.336 12.6396 23.2062 12.7176L21.5722 13.6999ZM28.4116 12.6598C28.2818 12.5817 28.2397 12.4129 28.3178 12.2831C28.3958 12.1532 28.5646 12.1111 28.6945 12.1892L30.4247 13.2294C30.5546 13.3074 30.5967 13.4762 30.5186 13.6061C30.4405 13.7359 30.2717 13.778 30.1419 13.6999L28.4116 12.6598Z" fill="#EAFF55"/>
</g>
</g>
<defs>
<filter id="filter0_ddd_519_399" x="-6.46783" y="-14.0001" width="61.7207" height="61.7209" filterUnits="userSpaceOnUse" color-interpolation-filters="sRGB">
<feFlood flood-opacity="0" result="BackgroundImageFix"/>
<feColorMatrix in="SourceAlpha" type="matrix" values="0 0 0 0 0 0 0 0 0 0 0 0 0 0 0 0 0 0 127 0" result="hardAlpha"/>
<feOffset dy="7.3477"/>
<feGaussianBlur stdDeviation="3.67385"/>
<feComposite in2="hardAlpha" operator="out"/>
<feColorMatrix type="matrix" values="0 0 0 0 0 0 0 0 0 0 0 0 0 0 0 0 0 0 0.1 0"/>
<feBlend mode="normal" in2="BackgroundImageFix" result="effect1_dropShadow_519_399"/>
<feColorMatrix in="SourceAlpha" type="matrix" values="0 0 0 0 0 0 0 0 0 0 0 0 0 0 0 0 0 0 127 0" result="hardAlpha"/>
<feOffset dy="2.93908"/>
<feGaussianBlur stdDeviation="1.46954"/>
<feComposite in2="hardAlpha" operator="out"/>
<feColorMatrix type="matrix" values="0 0 0 0 0 0 0 0 0 0 0 0 0 0 0 0 0 0 0.05 0"/>
<feBlend mode="normal" in2="effect1_dropShadow_519_399" result="effect2_dropShadow_519_399"/>
<feColorMatrix in="SourceAlpha" type="matrix" values="0 0 0 0 0 0 0 0 0 0 0 0 0 0 0 0 0 0 127 0" result="hardAlpha"/>
<feOffset dy="0.73477"/>
<feComposite in2="hardAlpha" operator="out"/>
<feColorMatrix type="matrix" values="0 0 0 0 0 0 0 0 0 0 0 0 0 0 0 0 0 0 0.05 0"/>
<feBlend mode="normal" in2="effect2_dropShadow_519_399" result="effect3_dropShadow_519_399"/>
<feBlend mode="normal" in="SourceGraphic" in2="effect3_dropShadow_519_399" result="shape"/>
</filter>
<linearGradient id="paint0_linear_519_399" x1="24.3925" y1="0.695312" x2="24.3925" y2="33.0252" gradientUnits="userSpaceOnUse">
<stop stop-color="white" stop-opacity="0.5"/>
<stop offset="1" stop-color="white"/>
</linearGradient>
<linearGradient id="paint1_linear_519_399" x1="24.3925" y1="0.695312" x2="24.3925" y2="33.0252" gradientUnits="userSpaceOnUse">
<stop stop-color="white" stop-opacity="0.5"/>
<stop offset="1" stop-color="white"/>
</linearGradient>
<clipPath id="clip0_519_399">
<rect width="20" height="20" fill="white" transform="translate(14.3925 6.86035)"/>
</clipPath>
</defs>
</svg>
