<svg width="20" height="20" viewBox="0 0 20 20" fill="none" xmlns="http://www.w3.org/2000/svg">
<path d="M11.4187 10.0385C11.9108 10.0385 12.3098 9.63959 12.3098 9.14745C12.3098 8.65531 11.9108 8.25635 11.4187 8.25635C10.9265 8.25635 10.5276 8.65531 10.5276 9.14745C10.5276 9.63959 10.9265 10.0385 11.4187 10.0385Z" fill="#AFE269"/>
<path d="M5.74396 10.0385C6.2361 10.0385 6.63506 9.63959 6.63506 9.14745C6.63506 8.65531 6.2361 8.25635 5.74396 8.25635C5.25182 8.25635 4.85286 8.65531 4.85286 9.14745C4.85286 9.63959 5.25182 10.0385 5.74396 10.0385Z" fill="#AFE269"/>
<path fill-rule="evenodd" clip-rule="evenodd" d="M2.63208 11.0083L0.446784 9.69466C0.316941 9.61662 0.274901 9.4478 0.35298 9.31796C0.431019 9.18811 0.599803 9.14608 0.729686 9.22411L2.90659 10.5328L4.63141 9.49588C4.59694 9.38584 4.57835 9.26874 4.57835 9.14737C4.57835 8.59862 4.95839 8.13788 5.46945 8.01435V5.736C5.46945 5.63964 5.51996 5.55035 5.60251 5.50074L8.30682 3.87502V1.32529C8.30682 1.1738 8.4298 1.05078 8.58133 1.05078C8.73282 1.05078 8.85584 1.1738 8.85584 1.32529V3.87502L11.4187 5.41568L13.9815 3.87502V1.32529C13.9815 1.1738 14.1045 1.05078 14.256 1.05078C14.4076 1.05078 14.5305 1.1738 14.5305 1.32529V3.87502L17.2349 5.50074C17.3174 5.55035 17.3679 5.63964 17.3679 5.736V8.99211L19.5532 10.3058C19.6831 10.3838 19.7251 10.5527 19.647 10.6825C19.569 10.8123 19.4002 10.8544 19.2703 10.7763L17.0934 9.46768L14.3975 11.0883C14.3105 11.1407 14.2016 11.1407 14.1146 11.0883L12.248 9.96619C12.0365 10.1803 11.743 10.313 11.4187 10.313C11.0944 10.313 10.8008 10.1803 10.5894 9.96619L8.85584 11.0083V14.2645C8.85584 14.3608 8.80533 14.4501 8.72274 14.4997L6.01847 16.1254V18.6752C6.01847 18.8267 5.89545 18.9497 5.74396 18.9497C5.59243 18.9497 5.46945 18.8267 5.46945 18.6752V16.1254L2.76514 14.4997C2.68259 14.4501 2.63208 14.3608 2.63208 14.2645V11.0083ZM4.91467 9.96619C4.41451 10.2669 3.1811 11.0083 3.1811 11.0083V14.1092L5.74396 15.6499L8.30682 14.1092V11.0083L6.57322 9.96619C6.3618 10.1803 6.06827 10.313 5.74396 10.313C5.41965 10.313 5.12608 10.1803 4.91467 9.96619ZM5.74396 8.53078C5.40365 8.53078 5.12737 8.80709 5.12737 9.14737C5.12737 9.48768 5.40365 9.764 5.74396 9.764C6.08423 9.764 6.36055 9.48768 6.36055 9.14737C6.36055 8.80709 6.08423 8.53078 5.74396 8.53078ZM6.01847 8.01435C6.52949 8.13788 6.90957 8.59862 6.90957 9.14737C6.90957 9.26874 6.89098 9.38584 6.85647 9.49588L8.58133 10.5328L10.3062 9.49588C10.2716 9.38584 10.2531 9.26874 10.2531 9.14737C10.2531 8.59862 10.6331 8.13788 11.1442 8.01435V5.89125L8.58133 4.35058L6.01847 5.89125V8.01435ZM12.5312 9.49588L14.256 10.5328L16.8189 8.99211V5.89125L14.256 4.35058L11.6932 5.89125V8.01435C12.2042 8.13788 12.5843 8.59862 12.5843 9.14737C12.5843 9.26874 12.5657 9.38584 12.5312 9.49588ZM11.4187 8.53078C11.0784 8.53078 10.8021 8.80709 10.8021 9.14737C10.8021 9.48768 11.0784 9.764 11.4187 9.764C11.759 9.764 12.0353 9.48768 12.0353 9.14737C12.0353 8.80709 11.759 8.53078 11.4187 8.53078ZM3.98914 11.6625C3.98914 11.511 4.11212 11.388 4.26365 11.388C4.41514 11.388 4.53816 11.511 4.53816 11.6625V13.5954C4.53816 13.7469 4.41514 13.8699 4.26365 13.8699C4.11212 13.8699 3.98914 13.7469 3.98914 13.5954V11.6625ZM7.17894 6.83957C7.04906 6.9176 6.88027 6.87557 6.80223 6.74572C6.72416 6.61588 6.7662 6.44706 6.89608 6.36902L8.53008 5.3867C8.65992 5.30866 8.82871 5.3507 8.90678 5.48055C8.98482 5.61039 8.94278 5.77921 8.81294 5.85725L7.17894 6.83957ZM14.0184 5.79941C13.8885 5.72133 13.8465 5.55255 13.9245 5.4227C14.0026 5.29282 14.1714 5.25078 14.3012 5.32886L16.0315 6.36902C16.1613 6.44706 16.2034 6.61588 16.1253 6.74572C16.0473 6.87557 15.8785 6.9176 15.7486 6.83957L14.0184 5.79941Z" fill="white"/>
</svg>
