<svg width="20" height="20" viewBox="0 0 20 20" fill="none" xmlns="http://www.w3.org/2000/svg">
<path fill-rule="evenodd" clip-rule="evenodd" d="M14.0924 2.86657C11.2653 2.0588 8.26836 2.0588 5.44117 2.86657C4.17871 3.22727 3.19187 4.21411 2.83117 5.47657C2.0234 8.30376 2.0234 11.3007 2.83117 14.1278C3.19187 15.3903 4.17871 16.3771 5.44118 16.7379C8.26837 17.5456 11.2653 17.5456 14.0924 16.7379C15.3549 16.3771 16.3418 15.3903 16.7025 14.1278C17.5102 11.3007 17.5102 8.30376 16.7025 5.47657C16.3417 4.21411 15.3549 3.22727 14.0924 2.86657ZM11.2852 7.09678C10.2996 6.76824 9.23401 6.76824 8.24841 7.09678L8.10571 7.14434C8.01937 7.17312 7.95162 7.24087 7.92284 7.32721C7.82758 7.61298 7.82758 7.92194 7.92284 8.20771L8.09724 8.73093L6.55298 9.24568L6.37858 8.72247C6.17194 8.10256 6.17194 7.43236 6.37858 6.81246C6.56938 6.24005 7.01855 5.79088 7.59096 5.60008L7.73365 5.55251C9.05339 5.1126 10.4802 5.1126 11.8 5.55251L11.9602 5.60592C12.4888 5.78211 12.9257 6.16106 13.1749 6.6594C13.6517 7.61312 13.6517 8.7357 13.1749 9.68942C12.9257 10.1878 12.4888 10.5667 11.9602 10.7429L11.5684 10.8735C11.1142 11.0249 11.0231 11.0613 10.9597 11.1014C10.7821 11.2137 10.6548 11.3903 10.6044 11.5943C10.5864 11.6671 10.5807 11.7651 10.5807 12.2439H8.95291L8.95286 12.1677C8.95251 11.8087 8.95221 11.4954 9.02403 11.2043C9.17509 10.5922 9.55704 10.0623 10.0899 9.72544C10.3433 9.56526 10.6407 9.46645 10.9813 9.35328L11.4454 9.19864C11.5644 9.15897 11.6628 9.07365 11.7189 8.96145C11.9666 8.466 11.9666 7.88282 11.7189 7.38737C11.6628 7.27517 11.5644 7.18985 11.4454 7.15018L11.2852 7.09678ZM9.15638 12.9561C9.0243 13.0221 8.91721 13.1292 8.85117 13.2613C8.65904 13.6455 8.65904 14.0978 8.85117 14.4821C8.91721 14.6142 9.0243 14.7213 9.15638 14.7873C9.54065 14.9795 9.99296 14.9795 10.3772 14.7873C10.5093 14.7213 10.6164 14.6142 10.6824 14.4821C10.8746 14.0978 10.8746 13.6455 10.6824 13.2613C10.6164 13.1292 10.5093 13.0221 10.3772 12.9561C9.99296 12.7639 9.54065 12.7639 9.15638 12.9561Z" fill="#50535B"/>
</svg>
