<svg width="25" height="25" viewBox="0 0 25 25" fill="none" xmlns="http://www.w3.org/2000/svg">
<path fill-rule="evenodd" clip-rule="evenodd" d="M6.77503 3.1538C10.549 2.71566 14.361 2.71566 18.135 3.1538C19.632 3.3278 20.705 4.6138 20.705 6.0838V21.5768C20.7048 21.7045 20.6721 21.8301 20.6098 21.9416C20.5475 22.0531 20.4578 22.1468 20.3491 22.2139C20.2404 22.281 20.1164 22.3193 19.9888 22.325C19.8612 22.3308 19.7343 22.3038 19.62 22.2468L12.455 18.6658L5.29003 22.2488C5.17561 22.3059 5.04848 22.3328 4.92073 22.327C4.79297 22.3211 4.66884 22.2827 4.56012 22.2154C4.45139 22.148 4.3617 22.054 4.29955 21.9423C4.2374 21.8305 4.20486 21.7047 4.20503 21.5768V6.0838C4.20503 4.6138 5.27803 3.3278 6.77503 3.1538Z" fill="#EAFF55"/>
</svg>
