<svg width="20" height="20" viewBox="0 0 20 20" fill="none" xmlns="http://www.w3.org/2000/svg">
<g clip-path="url(#clip0_508_452)">
<path d="M9.72582 5.29916V11.1587C9.65188 11.1587 9.57754 11.1417 9.50965 11.1073H9.50926C9.50926 11.1073 5.12859 8.91697 5.12738 8.91619C4.96535 8.83338 4.86312 8.6669 4.86312 8.48428V3.24822C4.86312 3.15369 4.89059 3.06318 4.93988 2.98682L9.72582 5.29916Z" fill="#B1E4F9"/>
<path d="M14.5889 3.24822V8.48428C14.5889 8.6669 14.4867 8.83338 14.3247 8.91619C14.3235 8.91701 9.93836 11.1094 9.93633 11.1106C9.86965 11.1425 9.79774 11.1587 9.72582 11.1587V5.29916L14.5121 2.98682C14.5614 3.06318 14.5889 3.15369 14.5889 3.24822Z" fill="#90D8F9"/>
<path d="M14.5121 2.98665L9.94266 5.27142C9.80613 5.33966 9.64547 5.33966 9.50899 5.27142L4.93988 2.98665C4.98594 2.91435 5.05141 2.85411 5.13102 2.81454L9.50926 0.6254C9.6457 0.557158 9.80633 0.557158 9.94281 0.6254L14.3211 2.81454C14.4007 2.85411 14.4661 2.91431 14.5121 2.98665Z" fill="#E4F6FF"/>
<path d="M14.5121 2.98665L9.94269 5.27138C9.80617 5.33966 9.64547 5.33962 9.50894 5.27134L8.98359 5.00853L12.4083 3.29618C12.6948 3.15313 12.6948 2.74384 12.4083 2.6004L8.98398 0.888018L9.50926 0.6254C9.6457 0.557158 9.80633 0.557158 9.94281 0.6254L14.3211 2.81454C14.4007 2.85411 14.4661 2.91431 14.5121 2.98665Z" fill="#D3EFFB"/>
<path d="M4.86312 13.5662V19.4254C4.78879 19.4254 4.71445 19.4084 4.64613 19.374L0.267891 17.1849C0.103828 17.1029 0 16.9352 0 16.7514V11.5153C0 11.4207 0.0274609 11.3303 0.0767578 11.2539L4.86312 13.5662Z" fill="#B1E4F9"/>
<path d="M9.72582 11.5153V16.7514C9.72582 16.9352 9.62238 17.1029 9.45793 17.1849L5.07969 19.374C5.0118 19.4084 4.93746 19.4254 4.86312 19.4254V13.5662L9.64906 11.2539C9.69836 11.3303 9.72582 11.4208 9.72582 11.5153Z" fill="#90D8F9"/>
<path d="M9.64906 11.2541L5.07996 13.5388C4.94348 13.6071 4.78277 13.6071 4.64629 13.5388L0.0767574 11.2541C0.121992 11.183 0.18625 11.1236 0.264218 11.0836C0.265429 11.0828 0.26664 11.0824 0.267851 11.0816L4.12043 9.15548L4.64609 8.89243C4.64812 8.89122 4.65055 8.8904 4.65258 8.88962C4.78754 8.82415 4.94512 8.82536 5.07926 8.89243H5.07965L9.45789 11.0816C9.4591 11.0824 9.4607 11.0828 9.46191 11.084C9.54035 11.1236 9.60379 11.183 9.64906 11.2541Z" fill="#E4F6FF"/>
<path d="M9.64906 11.2541L5.07996 13.5388C4.94347 13.6071 4.78277 13.6071 4.64629 13.5388L4.12051 13.2759L7.54519 11.5636C7.83168 11.4202 7.83168 11.0113 7.54519 10.8678L4.12051 9.15548L4.64617 8.89243C4.6482 8.89122 4.65062 8.8904 4.65265 8.88962C4.78762 8.82415 4.94519 8.82536 5.07933 8.89243H5.07973L9.45797 11.0816C9.45918 11.0824 9.46078 11.0828 9.46199 11.084C9.54035 11.1236 9.60379 11.183 9.64906 11.2541Z" fill="#D3EFFB"/>
<path d="M14.6459 13.5533L12.1998 18.7877C12.1352 18.7578 12.0774 18.7138 12.0309 18.6572L12.0305 18.6568C12.0285 18.6544 8.98359 14.8111 8.98277 14.8099C8.87086 14.6664 8.84863 14.4721 8.92621 14.3068L11.1428 9.56291C11.1828 9.47725 11.2459 9.40736 11.323 9.35889L14.1307 12.9028L14.7145 13.4119L14.6459 13.5533Z" fill="#B1E4F9"/>
<path d="M19.9547 13.6796C19.9547 13.6799 19.9543 13.6804 19.9543 13.6808L17.7373 18.4243C17.6605 18.5891 17.4973 18.697 17.3159 18.7035C17.3143 18.7038 17.3127 18.7038 17.3111 18.7038L12.4047 18.8335C12.3332 18.8335 12.2633 18.8178 12.1999 18.7875L14.646 13.553L14.7146 13.4116H19.996C20.0076 13.5013 19.9943 13.5943 19.9547 13.6796Z" fill="#90D8F9"/>
<path d="M19.9959 13.4118L14.8883 13.5468C14.7357 13.5508 14.5901 13.4828 14.4953 13.3631L11.323 9.3588C11.3953 9.31274 11.4802 9.28606 11.5695 9.28364L16.4625 9.15395H16.4633C16.6124 9.15032 16.755 9.21536 16.8496 9.33012L16.8557 9.33739L19.8949 13.1742L19.8953 13.1746C19.9507 13.2445 19.9846 13.3265 19.9959 13.4118Z" fill="#E4F6FF"/>
<path d="M19.9959 13.4118L14.8883 13.5468C14.7357 13.5508 14.5901 13.4827 14.4953 13.3631L14.1307 12.9027L17.9578 12.8013C18.2787 12.7928 18.4516 12.4218 18.2528 12.1706L15.875 9.1697L16.4625 9.15395H16.4633C16.6124 9.15032 16.755 9.21536 16.8496 9.33012L16.8557 9.33739L19.8949 13.1742L19.8953 13.1746C19.9507 13.2445 19.9846 13.3265 19.9959 13.4118Z" fill="#D3EFFB"/>
<path d="M13.2242 7.75461C13.4045 7.75461 13.5507 7.60842 13.5507 7.42809C13.5507 7.24775 13.4045 7.10156 13.2242 7.10156C13.0438 7.10156 12.8977 7.24775 12.8977 7.42809C12.8977 7.60842 13.0438 7.75461 13.2242 7.75461Z" fill="#75CEF9"/>
<path d="M13.2242 6.48947C13.4045 6.48947 13.5507 6.34328 13.5507 6.16295C13.5507 5.98262 13.4045 5.83643 13.2242 5.83643C13.0438 5.83643 12.8977 5.98262 12.8977 6.16295C12.8977 6.34328 13.0438 6.48947 13.2242 6.48947Z" fill="#75CEF9"/>
<path d="M11.9589 8.20383C12.1392 8.20383 12.2854 8.05764 12.2854 7.8773C12.2854 7.69697 12.1392 7.55078 11.9589 7.55078C11.7786 7.55078 11.6324 7.69697 11.6324 7.8773C11.6324 8.05764 11.7786 8.20383 11.9589 8.20383Z" fill="#75CEF9"/>
</g>
<defs>
<clipPath id="clip0_508_452">
<rect width="20" height="20" fill="white"/>
</clipPath>
</defs>
</svg>
