<svg width="24" height="25" viewBox="0 0 24 25" fill="none" xmlns="http://www.w3.org/2000/svg">
<path fill-rule="evenodd" clip-rule="evenodd" d="M11.47 2.97032C11.6106 2.82987 11.8012 2.75098 12 2.75098C12.1988 2.75098 12.3894 2.82987 12.53 2.97032L17.03 7.47032C17.1625 7.61249 17.2346 7.80054 17.2312 7.99484C17.2277 8.18914 17.149 8.37453 17.0116 8.51194C16.8742 8.64935 16.6888 8.72806 16.4945 8.73149C16.3002 8.73492 16.1122 8.6628 15.97 8.53032L12.75 5.31032V17.0003C12.75 17.1992 12.671 17.39 12.5303 17.5306C12.3897 17.6713 12.1989 17.7503 12 17.7503C11.8011 17.7503 11.6103 17.6713 11.4697 17.5306C11.329 17.39 11.25 17.1992 11.25 17.0003V5.31032L8.03 8.53032C7.88783 8.6628 7.69978 8.73492 7.50548 8.73149C7.31118 8.72806 7.12579 8.64935 6.98838 8.51194C6.85097 8.37453 6.77225 8.18914 6.76883 7.99484C6.7654 7.80054 6.83752 7.61249 6.97 7.47032L11.47 2.97032ZM3 16.2503C3.19891 16.2503 3.38968 16.3293 3.53033 16.47C3.67098 16.6106 3.75 16.8014 3.75 17.0003V19.2503C3.75 19.6481 3.90804 20.0297 4.18934 20.311C4.47064 20.5923 4.85218 20.7503 5.25 20.7503H18.75C19.1478 20.7503 19.5294 20.5923 19.8107 20.311C20.092 20.0297 20.25 19.6481 20.25 19.2503V17.0003C20.25 16.8014 20.329 16.6106 20.4697 16.47C20.6103 16.3293 20.8011 16.2503 21 16.2503C21.1989 16.2503 21.3897 16.3293 21.5303 16.47C21.671 16.6106 21.75 16.8014 21.75 17.0003V19.2503C21.75 20.046 21.4339 20.809 20.8713 21.3716C20.3087 21.9342 19.5456 22.2503 18.75 22.2503H5.25C4.45435 22.2503 3.69129 21.9342 3.12868 21.3716C2.56607 20.809 2.25 20.046 2.25 19.2503V17.0003C2.25 16.8014 2.32902 16.6106 2.46967 16.47C2.61032 16.3293 2.80109 16.2503 3 16.2503Z" fill="#EAFF55"/>
</svg>
