<svg width="20" height="20" viewBox="0 0 20 20" fill="none" xmlns="http://www.w3.org/2000/svg">
<g clip-path="url(#clip0_508_539)">
<path d="M8.52641 8.67383H11.3873V18.9545H8.52641V8.67383Z" fill="#95D528"/>
<path d="M10.3579 8.67383H11.3873V18.9545H10.3579V8.67383Z" fill="#89C627"/>
<path d="M16.065 10.2764L14.2306 11.8845C13.1278 12.8513 12.2977 14.0891 11.8159 15.4612C11.9328 14.3396 12.187 13.2341 12.5725 12.1742L13.8413 8.68668L12.6974 8.27051L11.4286 11.758C10.9974 12.9435 10.7172 14.1786 10.5948 15.434L10.5296 16.1028C10.4904 16.5052 10.1585 16.8257 9.75426 16.828C9.32047 16.8304 8.96809 16.4795 8.96809 16.0463V10.9487H7.75086V14.6797C7.40344 13.9298 6.97027 13.2192 6.45801 12.5651L4.8066 10.4564L3.84828 11.207L5.49969 13.3156C6.51301 14.6095 7.17891 16.1523 7.42535 17.7771L7.6343 19.1546C7.67149 19.3996 7.88211 19.5807 8.12996 19.5807H11.8163C12.0618 19.5807 12.2712 19.4029 12.311 19.1606L12.651 17.0897C12.9232 15.4313 13.7692 13.9077 15.033 12.7998L16.8674 11.1917L16.065 10.2764Z" fill="#B9EA6A"/>
<path d="M16.065 10.2764L14.2306 11.8844C13.1278 12.8512 12.2977 14.089 11.8159 15.4611C11.8739 14.9049 11.9657 14.3527 12.0905 13.808C11.3518 14.7604 10.8542 15.8896 10.6572 17.0897L10.3173 19.1606C10.2775 19.4029 10.0681 19.5807 9.82254 19.5807H11.8163C12.0618 19.5807 12.2713 19.4029 12.311 19.1606L12.651 17.0897C12.9232 15.4312 13.7692 13.9077 15.033 12.7997L16.8674 11.1917L16.065 10.2764Z" fill="#A1E42C"/>
<path d="M16.8174 5.87315C16.7002 5.87132 16.5843 5.87577 16.4702 5.88612C16.0125 5.92772 15.6143 5.58229 15.5863 5.12362C15.5857 5.11308 15.585 5.10253 15.5843 5.09198C15.4716 3.49636 14.1851 2.21042 12.5894 2.09913C12.3134 2.07987 12.0441 2.0955 11.7857 2.14183C11.475 2.19753 11.1605 2.06632 10.9802 1.80733C10.3945 0.966396 9.4202 0.416826 8.31781 0.419443C7.21535 0.422021 6.24305 0.975966 5.66121 1.81968C5.49363 2.06269 5.20238 2.19464 4.90953 2.15761C4.7743 2.1405 4.63649 2.13179 4.49656 2.1321C2.71047 2.13628 1.2659 3.58761 1.27012 5.3737C1.27059 5.57995 1.29063 5.78151 1.32816 5.97686C1.38168 6.25511 1.28688 6.54163 1.0759 6.73081C0.403321 7.3339 -0.0152727 8.21417 0.00054764 9.19171C0.0280476 10.8943 1.39742 12.3004 3.09883 12.3698C3.93524 12.4039 4.70402 12.12 5.29547 11.6296C5.5852 11.3894 5.99949 11.3902 6.29051 11.6288C6.87234 12.1059 7.6232 12.3841 8.43957 12.359C10.0841 12.3086 11.4421 11.0071 11.5634 9.36632C11.5653 9.34144 11.5668 9.31659 11.5681 9.29179C11.5893 8.87546 11.9403 8.55894 12.3571 8.55913H12.3661C12.4757 8.55886 12.584 8.55315 12.6907 8.54226C13.128 8.49753 13.5141 8.83468 13.5363 9.27366C13.5375 9.29722 13.5389 9.32081 13.5406 9.34448C13.6564 10.9531 14.9646 12.2427 16.5748 12.3353C18.4868 12.4452 20.0631 10.8942 19.9982 8.99378C19.9396 7.28257 18.5294 5.89976 16.8174 5.87315Z" fill="#118E5E"/>
<path d="M19.9981 8.99383C19.9826 8.5411 19.8718 8.11176 19.6865 7.72399C19.1441 8.87473 17.9429 9.65438 16.5682 9.57535C14.958 9.48278 13.6498 8.19317 13.534 6.58453C13.5323 6.56086 13.5309 6.53727 13.5297 6.51371C13.5075 6.07473 13.1214 5.73758 12.6841 5.78231C12.5774 5.79321 12.4691 5.79895 12.3595 5.79918C12.3565 5.79918 12.3535 5.79918 12.3505 5.79918C11.9336 5.79899 11.5827 6.11551 11.5615 6.53184C11.5602 6.5566 11.5587 6.58145 11.5568 6.60637C11.4355 8.24715 10.0775 9.54864 8.43297 9.59907C7.6166 9.6241 6.8657 9.34594 6.28391 8.86887C5.99285 8.63024 5.57859 8.62949 5.28887 8.86969C4.69742 9.36 3.92863 9.64391 3.09223 9.60981C1.86438 9.55977 0.809727 8.8134 0.307266 7.76196C0.103204 8.19469 -0.00785105 8.67985 0.000430203 9.19176C0.0279302 10.8943 1.39731 12.3005 3.09871 12.3698C3.93512 12.4039 4.70391 12.12 5.29535 11.6297C5.58508 11.3895 5.99938 11.3902 6.29039 11.6289C6.87223 12.1059 7.62309 12.3841 8.43945 12.3591C10.0839 12.3086 11.442 11.0072 11.5633 9.36637C11.5652 9.34149 11.5667 9.31664 11.568 9.29184C11.5892 8.87551 11.9402 8.55899 12.357 8.55918H12.366C12.4755 8.55891 12.5838 8.55321 12.6906 8.54231C13.1279 8.49762 13.5139 8.83473 13.5361 9.27371C13.5373 9.29727 13.5388 9.32086 13.5405 9.34453C13.6563 10.9532 14.9645 12.2428 16.5746 12.3354C18.4866 12.4453 20.0629 10.8943 19.9981 8.99383Z" fill="#017B4F"/>
<path d="M5.44984 5.66172C5.67087 5.66172 5.85004 5.48255 5.85004 5.26152C5.85004 5.0405 5.67087 4.86133 5.44984 4.86133C5.22882 4.86133 5.04965 5.0405 5.04965 5.26152C5.04965 5.48255 5.22882 5.66172 5.44984 5.66172Z" fill="#017B4F"/>
<path d="M6.61785 4.61191C6.83887 4.61191 7.01805 4.43274 7.01805 4.21172C7.01805 3.9907 6.83887 3.81152 6.61785 3.81152C6.39683 3.81152 6.21766 3.9907 6.21766 4.21172C6.21766 4.43274 6.39683 4.61191 6.61785 4.61191Z" fill="#017B4F"/>
<path d="M7.01805 7.41514C7.23907 7.41514 7.41824 7.23596 7.41824 7.01494C7.41824 6.79392 7.23907 6.61475 7.01805 6.61475C6.79702 6.61475 6.61785 6.79392 6.61785 7.01494C6.61785 7.23596 6.79702 7.41514 7.01805 7.41514Z" fill="#017B4F"/>
<path d="M8.07406 7.41514C8.29508 7.41514 8.47426 7.23596 8.47426 7.01494C8.47426 6.79392 8.29508 6.61475 8.07406 6.61475C7.85304 6.61475 7.67387 6.79392 7.67387 7.01494C7.67387 7.23596 7.85304 7.41514 8.07406 7.41514Z" fill="#017B4F"/>
<path d="M9.82258 5.92246C10.0436 5.92246 10.2228 5.74329 10.2228 5.52227C10.2228 5.30124 10.0436 5.12207 9.82258 5.12207C9.60156 5.12207 9.42238 5.30124 9.42238 5.52227C9.42238 5.74329 9.60156 5.92246 9.82258 5.92246Z" fill="#017B4F"/>
<path d="M17.3386 8.30088C17.5596 8.30088 17.7388 8.12171 17.7388 7.90068C17.7388 7.67966 17.5596 7.50049 17.3386 7.50049C17.1176 7.50049 16.9384 7.67966 16.9384 7.90068C16.9384 8.12171 17.1176 8.30088 17.3386 8.30088Z" fill="#017B4F"/>
<path d="M2.18566 8.30088C2.40669 8.30088 2.58586 8.12171 2.58586 7.90068C2.58586 7.67966 2.40669 7.50049 2.18566 7.50049C1.96464 7.50049 1.78547 7.67966 1.78547 7.90068C1.78547 8.12171 1.96464 8.30088 2.18566 8.30088Z" fill="#017B4F"/>
<path d="M3.84828 10.9156C4.0693 10.9156 4.24848 10.7365 4.24848 10.5154C4.24848 10.2944 4.0693 10.1152 3.84828 10.1152C3.62726 10.1152 3.44809 10.2944 3.44809 10.5154C3.44809 10.7365 3.62726 10.9156 3.84828 10.9156Z" fill="#118E5E"/>
</g>
<defs>
<clipPath id="clip0_508_539">
<rect width="20" height="20" fill="white"/>
</clipPath>
</defs>
</svg>
