<svg width="20" height="20" viewBox="0 0 20 20" fill="none" xmlns="http://www.w3.org/2000/svg">
<path d="M14.3005 20H5.69952C5.29662 20 4.95191 19.7105 4.88225 19.3137L4.57666 17.5725C3.69227 12.5337 3.24757 7.42756 3.24757 2.31175V0.444145C3.24757 0.198873 3.44644 0 3.69171 0H16.3083C16.5536 0 16.7524 0.198873 16.7524 0.444145V2.31175C16.7524 7.42756 16.3077 12.5337 15.4233 17.5725L15.1177 19.3137C15.0481 19.7105 14.7034 20 14.3005 20Z" fill="#CCEFFD"/>
<path d="M5.27429 6.32959C5.10608 6.32959 4.97167 6.47035 4.98008 6.63836C5.15924 10.2104 5.55907 13.7785 6.17573 17.2919L6.33557 18.2025C6.35324 18.3031 6.44064 18.3765 6.54278 18.3765H13.4572C13.5594 18.3765 13.6467 18.3031 13.6644 18.2025L13.8242 17.2919C14.4408 13.7785 14.8407 10.2105 15.0198 6.63836C15.0282 6.47035 14.8938 6.32959 14.7256 6.32959H5.27429Z" fill="#75CFF9"/>
<path d="M16.3083 0H15.101C15.3464 0 15.5452 0.198833 15.5452 0.444145V2.31175C15.5452 7.42756 15.1005 12.5337 14.2161 17.5725L13.9105 19.3137C13.8408 19.7105 13.4961 20 13.0932 20H14.3005C14.7034 20 15.0481 19.7105 15.1177 19.3137L15.4233 17.5725C16.3077 12.5337 16.7524 7.42752 16.7524 2.31171V0.444105C16.7524 0.198833 16.5536 0 16.3083 0Z" fill="#AAE2FA"/>
<path d="M14.7257 6.32959H13.5185C13.6867 6.32959 13.8211 6.47035 13.8127 6.63832C13.6335 10.2104 13.2337 13.7784 12.617 17.2918L12.4572 18.2025C12.4396 18.3031 12.3522 18.3765 12.25 18.3765H13.4573C13.5594 18.3765 13.6468 18.3031 13.6645 18.2025L13.8243 17.2918C14.4409 13.7784 14.8408 10.2104 15.0199 6.63832C15.0283 6.47035 14.8939 6.32959 14.7257 6.32959Z" fill="#6CBFF8"/>
</svg>
