<svg width="21" height="21" viewBox="0 0 21 21" fill="none" xmlns="http://www.w3.org/2000/svg">
<g clip-path="url(#clip0_263_1193)">
<path d="M9.77925 13.3716L7.16136 10.7537L11.1292 6.78582L13.7471 9.40371L9.77925 13.3716Z" fill="#F97316"/>
<path d="M0.99628 12.4425C0.2746 13.1642 0.2746 14.3387 0.996319 15.0606L1.92417 15.9885L1.44366 16.4689C1.09401 16.8187 0.901397 17.2835 0.901397 17.7781C0.901397 18.2726 1.09405 18.7375 1.4437 19.0871C1.79331 19.4368 2.25827 19.6294 2.75284 19.6294C3.24355 19.6294 3.70503 19.4398 4.05374 19.0953C4.05655 19.0926 4.05933 19.0899 4.06206 19.0871L4.54245 18.6068L5.47038 19.5347C5.81999 19.8843 6.28491 20.0768 6.77948 20.0769C7.27409 20.0769 7.73913 19.8842 8.08894 19.5345C8.25843 19.3649 8.38741 19.1701 8.47722 18.9623L1.56812 12.0532C1.35749 12.1447 1.16351 12.2751 0.99628 12.4425Z" fill="#F97316"/>
<path d="M19.9123 5.09307L18.9844 4.16514L19.4581 3.69143C19.4605 3.68916 19.4627 3.68693 19.465 3.68463C20.1868 2.96287 20.1868 1.78834 19.4651 1.06631C19.1154 0.71666 18.6505 0.524082 18.156 0.524082C17.6615 0.524082 17.1965 0.716621 16.8467 1.06623C16.8438 1.06924 16.8408 1.07225 16.8378 1.07533L16.3662 1.54689L15.4383 0.618887C15.0887 0.269277 14.6237 0.0766602 14.1292 0.0766602C13.6347 0.0766602 13.1698 0.269277 12.8201 0.618965C12.6505 0.788652 12.5215 0.983613 12.4316 1.1915L19.3404 8.10033C19.551 8.00889 19.745 7.87842 19.9124 7.71119C20.2621 7.3615 20.4547 6.89658 20.4547 6.40205C20.4547 5.90752 20.2621 5.44264 19.9123 5.09307Z" fill="#F97316"/>
<path d="M8.9503 14.1985L6.33206 11.5802L4.50936 9.75756C4.15971 9.40791 3.69479 9.21533 3.20034 9.21533C2.70585 9.21533 2.24085 9.40791 1.89096 9.75768C1.72139 9.92725 1.59198 10.1219 1.50214 10.3297L10.2015 19.029C10.4121 18.9375 10.6059 18.8067 10.7732 18.6394C11.1228 18.2897 11.3153 17.8248 11.3153 17.3303C11.3153 16.8357 11.1228 16.3708 10.7731 16.0212L8.9503 14.1985Z" fill="#F97316"/>
<path d="M10.135 1.51506C9.41327 2.23689 9.41327 3.41143 10.135 4.13326L11.9577 5.95592L14.576 8.57424L14.5761 8.5742L16.3987 10.3967L16.3987 10.3968L16.3988 10.3969C16.7485 10.7465 17.2134 10.939 17.7079 10.939H17.708C18.2024 10.939 18.6673 10.7464 19.0169 10.3969C19.1841 10.2297 19.315 10.036 19.4066 9.82549L10.7065 1.12549C10.496 1.21697 10.3022 1.34783 10.135 1.51506Z" fill="#F97316"/>
</g>
<defs>
<clipPath id="clip0_263_1193">
<rect width="20" height="20" fill="white" transform="translate(0.455025 0.0766602)"/>
</clipPath>
</defs>
</svg>
