<svg width="57" height="58" viewBox="0 0 57 58" fill="none" xmlns="http://www.w3.org/2000/svg">
<g filter="url(#filter0_ddd_263_1342)">
<rect x="8.9209" y="0.786133" width="39.1582" height="39.1582" rx="19.5791" fill="url(#paint0_linear_263_1342)" style="mix-blend-mode:overlay" shape-rendering="crispEdges"/>
<rect x="9.36588" y="1.23111" width="38.2682" height="38.2682" rx="19.1341" stroke="url(#paint1_linear_263_1342)" stroke-width="0.889959" style="mix-blend-mode:overlay" shape-rendering="crispEdges"/>
<g clip-path="url(#clip0_263_1342)">
<path d="M32.335 21.8477H27.125C26.9632 21.8477 26.832 21.9788 26.832 22.1406C26.832 22.3024 26.9632 22.4336 27.125 22.4336H32.335C32.4968 22.4336 32.6279 22.3024 32.6279 22.1406C32.6279 21.9788 32.4968 21.8477 32.335 21.8477Z" fill="#EAFF55"/>
<path d="M25.9746 21.3611C25.8483 21.26 25.6639 21.2805 25.5628 21.4068L24.8638 22.2806L24.5573 22.037C24.4306 21.9364 24.2463 21.9575 24.1456 22.0841C24.045 22.2108 24.0661 22.3951 24.1928 22.4958L24.7278 22.921C24.7817 22.9638 24.846 22.9846 24.9099 22.9846C24.9958 22.9846 25.081 22.9469 25.1388 22.8746L26.0203 21.7729C26.1215 21.6466 26.101 21.4622 25.9746 21.3611Z" fill="#EAFF55"/>
<path d="M32.335 24.1094H27.125C26.9632 24.1094 26.832 24.2405 26.832 24.4023C26.832 24.5641 26.9632 24.6953 27.125 24.6953H32.335C32.4968 24.6953 32.6279 24.5641 32.6279 24.4023C32.6279 24.2405 32.4968 24.1094 32.335 24.1094Z" fill="#EAFF55"/>
<path d="M32.6279 26.6621C32.6279 26.5003 32.4968 26.3691 32.335 26.3691H27.125C26.9632 26.3691 26.832 26.5003 26.832 26.6621C26.832 26.8239 26.9632 26.9551 27.125 26.9551H32.335C32.4968 26.9551 32.6279 26.8239 32.6279 26.6621Z" fill="#EAFF55"/>
<path d="M25.9746 23.6209C25.8483 23.5198 25.6639 23.5403 25.5628 23.6666L24.8638 24.5403L24.5573 24.2968C24.4306 24.1962 24.2463 24.2173 24.1456 24.3439C24.045 24.4706 24.0661 24.6549 24.1928 24.7556L24.7278 25.1808C24.7817 25.2236 24.846 25.2444 24.9099 25.2444C24.9958 25.2444 25.081 25.2067 25.1388 25.1344L26.0203 24.0327C26.1215 23.9063 26.101 23.7219 25.9746 23.6209Z" fill="#EAFF55"/>
<path d="M25.9746 25.8826C25.8483 25.7815 25.6639 25.802 25.5628 25.9283L24.8638 26.8021L24.5573 26.5586C24.4306 26.4579 24.2463 26.479 24.1456 26.6057C24.045 26.7323 24.0661 26.9166 24.1928 27.0173L24.7278 27.4425C24.7817 27.4853 24.846 27.5061 24.9099 27.5061C24.9958 27.5061 25.081 27.4684 25.1388 27.3961L26.0203 26.2944C26.1215 26.168 26.101 25.9837 25.9746 25.8826Z" fill="#EAFF55"/>
<path d="M28.293 12.176C28.3501 12.2329 28.4249 12.2614 28.4998 12.2614C28.5749 12.2614 28.6501 12.2327 28.7073 12.1752C28.8215 12.0606 28.8212 11.8751 28.7065 11.7609L28.7009 11.7554C28.5863 11.6411 28.4008 11.6415 28.2866 11.7561C28.1724 11.8707 28.1727 12.0562 28.2874 12.1704L28.293 12.176Z" fill="#EAFF55"/>
<path d="M30.537 18.9029V20.0306C30.537 20.3014 30.7575 20.5218 31.0287 20.5218H32.0012C32.2723 20.5218 32.4929 20.3014 32.4929 20.0306V19.0436H33.007C33.2781 19.0436 33.4987 18.8232 33.4987 18.5524V17.5436C33.4987 17.2728 33.2782 17.0525 33.007 17.0525H32.4929V16.0654C32.4929 15.7946 32.2723 15.5742 32.0012 15.5742H31.0287C30.7576 15.5742 30.537 15.7946 30.537 16.0654V17.1588H26.4636V16.0654C26.4636 15.7946 26.2431 15.5742 25.972 15.5742H24.9995C24.7284 15.5742 24.5078 15.7946 24.5078 16.0654V17.0525H23.9937C23.7225 17.0525 23.502 17.2728 23.502 17.5436V18.5524C23.502 18.8232 23.7225 19.0436 23.9937 19.0436H24.5078V20.0306C24.5078 20.3014 24.7283 20.5218 24.9995 20.5218H25.972C26.243 20.5218 26.4636 20.3014 26.4636 20.0306V18.9029H30.537ZM32.9127 17.6384V18.4576H32.4929V17.6384H32.9127ZM31.1229 16.1602H31.9069V19.9359H31.1229V16.1602ZM30.537 17.7447V18.317H26.4636V17.7447H30.537ZM24.0879 18.4576V17.6384H24.5078V18.4576H24.0879ZM25.8777 19.9358H25.0937V16.1602H25.8777V19.9358Z" fill="#EAFF55"/>
<path d="M35.5725 12.3738H32.7951C32.7339 12.0864 32.4779 11.87 32.1721 11.87H30.3581C30.1766 11.0071 29.4078 10.3652 28.4997 10.3652C27.5911 10.3652 26.8219 11.0071 26.6402 11.87H24.8273C24.5215 11.87 24.2655 12.0864 24.2043 12.3738H21.4258C21.0941 12.3738 20.8242 12.6438 20.8242 12.9757V29.7633C20.8242 30.0952 21.0941 30.3652 21.4258 30.3652H35.5725C35.9048 30.3652 36.1752 30.0952 36.1752 29.7633V12.9757C36.1752 12.6439 35.9048 12.3738 35.5725 12.3738ZM35.5893 29.7633C35.5893 29.7703 35.5812 29.7793 35.5725 29.7793H21.4258C21.418 29.7793 21.4102 29.7712 21.4102 29.7633V12.9757C21.4102 12.9678 21.418 12.9598 21.4258 12.9598H24.1902V13.6384H22.4094C22.2476 13.6384 22.1164 13.7695 22.1164 13.9313V28.8077C22.1164 28.9695 22.2476 29.1007 22.4094 29.1007H27.8614C28.0232 29.1007 28.1543 28.9695 28.1543 28.8077C28.1543 28.6459 28.0232 28.5148 27.8614 28.5148H22.7024V14.2243H24.2022C24.2591 14.5172 24.5176 14.7392 24.8273 14.7392H27.8614C28.0232 14.7392 28.1544 14.608 28.1544 14.4462C28.1544 14.2844 28.0232 14.1532 27.8614 14.1532H24.8273C24.7991 14.1532 24.7762 14.1307 24.7762 14.1029V12.5063C24.7762 12.4786 24.7991 12.456 24.8273 12.456H26.8956C27.0505 12.456 27.1786 12.3354 27.188 12.1808C27.2299 11.4913 27.8061 10.9512 28.4997 10.9512C29.1928 10.9512 29.7684 11.4913 29.8103 12.1808C29.8197 12.3354 29.9479 12.456 30.1028 12.456H32.1721C32.1994 12.456 32.2233 12.4795 32.2233 12.5063V14.103C32.2233 14.1298 32.1994 14.1533 32.1721 14.1533H29.218C29.0562 14.1533 28.925 14.2845 28.925 14.4462C28.925 14.608 29.0562 14.7392 29.218 14.7392H32.1721C32.4819 14.7392 32.7404 14.5173 32.7973 14.2243H34.296V28.5148H29.218C29.0562 28.5148 28.925 28.646 28.925 28.8078C28.925 28.9696 29.0562 29.1007 29.218 29.1007H34.5889C34.7508 29.1007 34.8819 28.9696 34.8819 28.8078V13.9313C34.8819 13.7695 34.7508 13.6384 34.5889 13.6384H32.8092V12.9598H35.5725C35.5812 12.9598 35.5893 12.9688 35.5893 12.9757V29.7633Z" fill="#EAFF55"/>
</g>
</g>
<defs>
<filter id="filter0_ddd_263_1342" x="-8.87828" y="-17.0131" width="74.7566" height="74.7566" filterUnits="userSpaceOnUse" color-interpolation-filters="sRGB">
<feFlood flood-opacity="0" result="BackgroundImageFix"/>
<feColorMatrix in="SourceAlpha" type="matrix" values="0 0 0 0 0 0 0 0 0 0 0 0 0 0 0 0 0 0 127 0" result="hardAlpha"/>
<feOffset dy="8.89959"/>
<feGaussianBlur stdDeviation="4.4498"/>
<feComposite in2="hardAlpha" operator="out"/>
<feColorMatrix type="matrix" values="0 0 0 0 0 0 0 0 0 0 0 0 0 0 0 0 0 0 0.1 0"/>
<feBlend mode="normal" in2="BackgroundImageFix" result="effect1_dropShadow_263_1342"/>
<feColorMatrix in="SourceAlpha" type="matrix" values="0 0 0 0 0 0 0 0 0 0 0 0 0 0 0 0 0 0 127 0" result="hardAlpha"/>
<feOffset dy="3.55984"/>
<feGaussianBlur stdDeviation="1.77992"/>
<feComposite in2="hardAlpha" operator="out"/>
<feColorMatrix type="matrix" values="0 0 0 0 0 0 0 0 0 0 0 0 0 0 0 0 0 0 0.05 0"/>
<feBlend mode="normal" in2="effect1_dropShadow_263_1342" result="effect2_dropShadow_263_1342"/>
<feColorMatrix in="SourceAlpha" type="matrix" values="0 0 0 0 0 0 0 0 0 0 0 0 0 0 0 0 0 0 127 0" result="hardAlpha"/>
<feOffset dy="0.889959"/>
<feComposite in2="hardAlpha" operator="out"/>
<feColorMatrix type="matrix" values="0 0 0 0 0 0 0 0 0 0 0 0 0 0 0 0 0 0 0.05 0"/>
<feBlend mode="normal" in2="effect2_dropShadow_263_1342" result="effect3_dropShadow_263_1342"/>
<feBlend mode="normal" in="SourceGraphic" in2="effect3_dropShadow_263_1342" result="shape"/>
</filter>
<linearGradient id="paint0_linear_263_1342" x1="28.5" y1="0.786133" x2="28.5" y2="39.9443" gradientUnits="userSpaceOnUse">
<stop stop-color="white" stop-opacity="0.5"/>
<stop offset="1" stop-color="white"/>
</linearGradient>
<linearGradient id="paint1_linear_263_1342" x1="28.5" y1="0.786133" x2="28.5" y2="39.9443" gradientUnits="userSpaceOnUse">
<stop stop-color="white" stop-opacity="0.5"/>
<stop offset="1" stop-color="white"/>
</linearGradient>
<clipPath id="clip0_263_1342">
<rect width="20" height="20" fill="white" transform="translate(18.5 10.3652)"/>
</clipPath>
</defs>
</svg>
