<svg width="59" height="58" viewBox="0 0 59 58" fill="none" xmlns="http://www.w3.org/2000/svg">
<g filter="url(#filter0_ddd_263_2452)">
<rect x="9.79779" y="0.361328" width="39.4045" height="39.4045" rx="19.7022" fill="url(#paint0_linear_263_2452)" style="mix-blend-mode:overlay" shape-rendering="crispEdges"/>
<rect x="10.2456" y="0.809106" width="38.5089" height="38.5089" rx="19.2545" stroke="url(#paint1_linear_263_2452)" stroke-width="0.895556" style="mix-blend-mode:overlay" shape-rendering="crispEdges"/>
<g clip-path="url(#clip0_263_2452)">
<path d="M28.8244 23.3584L26.2065 20.7405L30.1744 16.7726L32.7923 19.3905L28.8244 23.3584Z" fill="#EAFF55"/>
<path d="M20.0414 22.4293C19.3198 23.1511 19.3198 24.3255 20.0415 25.0474L20.9693 25.9753L20.4888 26.4557C20.1392 26.8055 19.9466 27.2704 19.9466 27.7649C19.9466 28.2594 20.1392 28.7243 20.4889 29.0739C20.8385 29.4236 21.3034 29.6163 21.798 29.6163C22.2887 29.6163 22.7502 29.4266 23.0989 29.0821C23.1017 29.0794 23.1045 29.0767 23.1072 29.0739L23.5876 28.5936L24.5155 29.5215C24.8651 29.8711 25.3301 30.0636 25.8246 30.0637C26.3193 30.0637 26.7843 29.8711 27.1341 29.5213C27.3036 29.3517 27.4326 29.1569 27.5224 28.9491L20.6133 22.04C20.4026 22.1315 20.2087 22.262 20.0414 22.4293Z" fill="#EAFF55"/>
<path d="M38.9575 15.0799L38.0296 14.152L38.5033 13.6782C38.5056 13.676 38.5079 13.6737 38.5102 13.6714C39.2319 12.9497 39.232 11.7752 38.5102 11.0531C38.1606 10.7035 37.6957 10.5109 37.2012 10.5109C36.7067 10.5109 36.2417 10.7034 35.8919 11.053C35.8889 11.0561 35.886 11.0591 35.883 11.0621L35.4114 11.5337L34.4834 10.6057C34.1338 10.2561 33.6689 10.0635 33.1744 10.0635C32.6798 10.0635 32.2149 10.2561 31.8653 10.6058C31.6957 10.7755 31.5666 10.9704 31.4767 11.1783L38.3856 18.0871C38.5962 17.9957 38.7901 17.8652 38.9575 17.698C39.3072 17.3483 39.4998 16.8834 39.4998 16.3889C39.4998 15.8943 39.3072 15.4295 38.9575 15.0799Z" fill="#EAFF55"/>
<path d="M27.9955 24.1853L25.3772 21.567L23.5545 19.7444C23.2049 19.3947 22.74 19.2021 22.2455 19.2021C21.751 19.2021 21.286 19.3947 20.9361 19.7445C20.7666 19.9141 20.6371 20.1087 20.5473 20.3165L29.2466 29.0158C29.4573 28.9243 29.6511 28.7935 29.8183 28.6263C30.168 28.2766 30.3605 27.8116 30.3605 27.3171C30.3605 26.8225 30.1679 26.3576 29.8183 26.008L27.9955 24.1853Z" fill="#EAFF55"/>
<path d="M29.1801 11.5019C28.4584 12.2237 28.4584 13.3982 29.1801 14.1201L31.0028 15.9427L33.6212 18.5611L33.6212 18.561L35.4438 20.3836L35.4439 20.3836L35.444 20.3837C35.7937 20.7333 36.2586 20.9259 36.753 20.9259H36.7531C37.2475 20.9259 37.7125 20.7332 38.0621 20.3837C38.2293 20.2165 38.3602 20.0228 38.4517 19.8123L29.7517 11.1123C29.5411 11.2038 29.3474 11.3346 29.1801 11.5019Z" fill="#EAFF55"/>
</g>
</g>
<defs>
<filter id="filter0_ddd_263_2452" x="-8.11334" y="-17.5498" width="75.2267" height="75.2266" filterUnits="userSpaceOnUse" color-interpolation-filters="sRGB">
<feFlood flood-opacity="0" result="BackgroundImageFix"/>
<feColorMatrix in="SourceAlpha" type="matrix" values="0 0 0 0 0 0 0 0 0 0 0 0 0 0 0 0 0 0 127 0" result="hardAlpha"/>
<feOffset dy="8.95556"/>
<feGaussianBlur stdDeviation="4.47778"/>
<feComposite in2="hardAlpha" operator="out"/>
<feColorMatrix type="matrix" values="0 0 0 0 0 0 0 0 0 0 0 0 0 0 0 0 0 0 0.1 0"/>
<feBlend mode="normal" in2="BackgroundImageFix" result="effect1_dropShadow_263_2452"/>
<feColorMatrix in="SourceAlpha" type="matrix" values="0 0 0 0 0 0 0 0 0 0 0 0 0 0 0 0 0 0 127 0" result="hardAlpha"/>
<feOffset dy="3.58223"/>
<feGaussianBlur stdDeviation="1.79111"/>
<feComposite in2="hardAlpha" operator="out"/>
<feColorMatrix type="matrix" values="0 0 0 0 0 0 0 0 0 0 0 0 0 0 0 0 0 0 0.05 0"/>
<feBlend mode="normal" in2="effect1_dropShadow_263_2452" result="effect2_dropShadow_263_2452"/>
<feColorMatrix in="SourceAlpha" type="matrix" values="0 0 0 0 0 0 0 0 0 0 0 0 0 0 0 0 0 0 127 0" result="hardAlpha"/>
<feOffset dy="0.895556"/>
<feComposite in2="hardAlpha" operator="out"/>
<feColorMatrix type="matrix" values="0 0 0 0 0 0 0 0 0 0 0 0 0 0 0 0 0 0 0.05 0"/>
<feBlend mode="normal" in2="effect2_dropShadow_263_2452" result="effect3_dropShadow_263_2452"/>
<feBlend mode="normal" in="SourceGraphic" in2="effect3_dropShadow_263_2452" result="shape"/>
</filter>
<linearGradient id="paint0_linear_263_2452" x1="29.5" y1="0.361328" x2="29.5" y2="39.7658" gradientUnits="userSpaceOnUse">
<stop stop-color="white" stop-opacity="0.5"/>
<stop offset="1" stop-color="white"/>
</linearGradient>
<linearGradient id="paint1_linear_263_2452" x1="29.5" y1="0.361328" x2="29.5" y2="39.7658" gradientUnits="userSpaceOnUse">
<stop stop-color="white" stop-opacity="0.5"/>
<stop offset="1" stop-color="white"/>
</linearGradient>
<clipPath id="clip0_263_2452">
<rect width="19.9996" height="20.0002" fill="white" transform="translate(19.5002 10.0635)"/>
</clipPath>
</defs>
</svg>
